<?xml version="1.0" encoding="utf-8"?>
<!-- Generator: Adobe Illustrator 15.0.1, SVG Export Plug-In . SVG Version: 6.00 Build 0)  -->
<!DOCTYPE svg PUBLIC "-//W3C//DTD SVG 1.1//EN" "http://www.w3.org/Graphics/SVG/1.1/DTD/svg11.dtd">
<svg version="1.1" id="Layer_1" xmlns="http://www.w3.org/2000/svg" xmlns:xlink="http://www.w3.org/1999/xlink" x="0px" y="0px"
	 width="675px" height="380px" viewBox="0 0 675 380" enable-background="new 0 0 675 380" xml:space="preserve">
<g>
	<path fill="#F7941E" d="M0,5.915c0-0.138,0-0.251,0.001-0.251c0.001,0,9.001,0,20.001,0h634.832c11,0,20.037,0,20.082,0
		s0.082,0.057,0.082,0.126c0,0.07,0,9.127,0,20.127V359.5c0,11-9,20-20,20H20c-11,0-20-9-20-20V26.167C0,15.167,0,6.054,0,5.915z"/>
	<path fill="#FDEAD2" d="M0,1.915c0-0.138,0-0.251,0.001-0.251c0.001,0,9.001,0,20.001,0h634.832c11,0,20.037,0,20.082,0
		s0.082,0.057,0.082,0.126c0,0.07,0,9.127,0,20.127V355.5c0,11-9,20-20,20H20c-11,0-20-9-20-20V22.167C0,11.167,0,2.054,0,1.915z"/>
</g>
<g>
	<path fill="#009FDB" d="M255.35,39.397c-11,0-20,9-20,20V260.75c0,11,9,20,20,20h398.578c11,0,20.241,0,20.536,0
		s0.536-1.989,0.536-4.42s0-13.42,0-24.42V62.05c0-11,0-20.597,0-21.327s-0.101-1.327-0.223-1.327s-9.223,0-20.223,0H255.35z"/>
</g>
<rect id="_x3C_Slice_x3E__11_" x="0.002" y="0.5" fill="none" width="673.996" height="375"/>
</svg>
