<svg width="52" height="52" viewBox="0 0 52 52" fill="none" xmlns="http://www.w3.org/2000/svg">
<g id="Group 1183">
<g id="Group 1176">
<rect id="Rectangle 2929" x="1" y="1.00012" width="50" height="50" rx="25" fill="white" stroke="#009FDE" stroke-width="2"/>
<path id="Vector" d="M39.6621 12.4038C39.4306 12.1537 39.1076 12.0085 38.7657 12.0005C38.4239 11.9924 38.0955 12.1242 37.8532 12.3634C37.611 12.6027 37.4737 12.9281 37.4764 13.2695L37.3957 16.6088C36.6985 15.8426 35.9125 15.1516 35.0565 14.552C33.0404 13.1458 30.6905 12.2935 28.2383 12.0838C25.7889 11.8741 23.3259 12.3124 21.0998 13.3556C18.8711 14.3907 16.9519 15.9931 15.5414 18.0015C14.1282 20.01 13.2696 22.3572 13.0542 24.8012C12.8389 27.2451 13.2669 29.7053 14.3032 31.9315C15.4283 34.3432 17.2184 36.3839 19.466 37.8142C21.7136 39.2446 24.3219 40.0001 26.9867 39.9974V40.0001C27.1616 40.0001 27.3366 39.9894 27.5143 39.9894C29.7673 39.9006 31.9664 39.2742 33.926 38.1611C35.8856 37.048 37.5491 35.4805 38.7792 33.5931C38.9811 33.3134 39.0592 32.9612 38.9919 32.6225C38.9273 32.2837 38.7254 31.9852 38.4347 31.7997C38.144 31.6142 37.7886 31.5524 37.4549 31.6357C37.1184 31.7164 36.8304 31.9342 36.6608 32.2326C35.2773 34.3701 33.2208 35.986 30.817 36.8275C28.4133 37.6691 25.7969 37.6906 23.3798 36.884C20.9626 36.0774 18.8818 34.4938 17.466 32.3778C16.0501 30.2618 15.3772 27.7372 15.5549 25.1991C15.7325 22.661 16.75 20.2546 18.4485 18.3565C20.1443 16.4583 22.4242 15.1785 24.9302 14.7187C27.4362 14.2589 30.023 14.6407 32.2867 15.8103C33.6057 16.4905 34.7712 17.4181 35.7268 18.5285L32.6555 17.6816C32.2221 17.5606 31.7565 17.6816 31.4334 17.9989C31.1131 18.3161 30.9839 18.7786 31.097 19.2141C31.21 19.6497 31.5465 19.9912 31.9826 20.1121L38.1466 21.8194C38.2839 21.8678 38.4293 21.8947 38.5773 21.8947C38.6177 21.8947 38.6554 21.892 38.6958 21.8893C38.9246 21.8705 39.1453 21.7899 39.331 21.6501C39.6163 21.4377 39.7967 21.115 39.8317 20.7655V20.7628C39.8344 20.7494 39.8344 20.7332 39.8344 20.7171C39.8344 20.7036 39.8371 20.6902 39.8371 20.6795C39.8371 20.6768 39.8371 20.6714 39.8371 20.6687L39.9986 13.3314C40.0147 12.9845 39.8936 12.6511 39.6621 12.4038Z" fill="#009FDE" stroke="#009FDE" stroke-width="0.7"/>
</g>
</g>
</svg>
