<svg width="52" height="52" viewBox="0 0 52 52" fill="none" xmlns="http://www.w3.org/2000/svg">
<rect x="1" y="1.00012" width="50" height="50" rx="25" fill="white" stroke="#009FDE" stroke-width="2"/>
<path d="M15.5 20.5C14.1667 22.3333 11.4 26 11 26L16.5 31.5L22 34.5H30L37 31.5L41 26L38.5 22.5C37.1667 21.5 34.4 19.4 34 19C33.6 18.6 30.1667 17.8333 28.5 17.5H21.5L15.5 20.5Z" fill="#009FDE"/>
<path d="M25.9994 18C28.7917 17.9961 31.5348 18.735 33.9476 20.1408C36.3603 21.5466 38.3559 23.5688 39.7295 26C37.8807 29.2466 34.9412 31.7333 31.433 33.0181C27.9247 34.3029 24.0746 34.3029 20.5664 33.0181C17.0581 31.7333 14.1184 29.2466 12.2699 26C13.6434 23.5687 15.6389 21.5467 18.0517 20.1408C20.4644 18.735 23.2069 17.9961 25.9994 18ZM25.9999 16C22.665 16.0052 19.3984 16.9449 16.5704 18.7125C13.7424 20.48 11.4661 23.0045 10 26C11.9592 30.0189 15.3589 33.1533 19.5234 34.7799C23.6879 36.4067 28.3119 36.4067 32.4764 34.7799C36.641 33.1533 40.0407 30.0189 41.9999 26C40.5337 23.0045 38.2575 20.48 35.4295 18.7125C32.6015 16.9449 29.3349 16.0053 25.9999 16Z" fill="#009FDE"/>
<circle cx="26" cy="26" r="6.5" fill="white" stroke="white"/>
<path d="M25.9994 19.9548C24.8019 19.9458 23.6288 20.2928 22.6288 20.9515C21.6288 21.6104 20.847 22.5513 20.3825 23.655C19.9182 24.7587 19.792 25.9756 20.0201 27.1512C20.2483 28.3269 20.8205 29.4081 21.664 30.2582C22.5076 31.108 23.5846 31.6883 24.7584 31.9251C25.9321 32.1621 27.15 32.045 28.257 31.5889C29.3642 31.1327 30.311 30.358 30.9773 29.3629C31.6435 28.3679 31.9993 27.1973 31.9993 25.9999C32.0072 24.9416 31.7351 23.9001 31.2105 22.981C30.6859 22.062 29.9275 21.2978 29.0123 20.7664C28.0971 20.235 27.0576 19.9551 25.9992 19.9551L25.9994 19.9548ZM23.9994 25.9998C23.469 25.9998 22.9603 25.7891 22.5853 25.414C22.2102 25.039 21.9994 24.5302 21.9994 23.9998C21.9994 23.4694 22.2102 22.9606 22.5853 22.5857C22.9603 22.2106 23.469 21.9998 23.9994 21.9998C24.5298 21.9998 25.0386 22.2105 25.4136 22.5857C25.7887 22.9606 25.9994 23.4694 25.9994 23.9998C25.9994 24.5302 25.7887 25.039 25.4136 25.414C25.0386 25.7891 24.5298 25.9998 23.9994 25.9998Z" fill="#009FDE"/>
</svg>
