<svg width="52" height="52" viewBox="0 0 52 52" fill="none" xmlns="http://www.w3.org/2000/svg">
<g id="Group 1183">
<g id="Group 1176">
<rect id="Rectangle 2929" x="1" y="1.00012" width="50" height="50" rx="25" fill="white" stroke="#009FDE" stroke-width="2"/>
</g>
<path id="Vector" fill-rule="evenodd" clip-rule="evenodd" d="M35.8213 20.4043C35.3247 20.4043 34.9222 20.8014 34.9222 21.2901C34.9222 21.7789 35.3249 22.1727 35.8213 22.1727C36.3178 22.1727 36.7213 21.7787 36.7213 21.2901C36.7213 20.8014 36.3178 20.4043 35.8213 20.4043ZM31.4676 10.0004C31.6866 10.0056 31.9354 10.1286 32.227 10.4774C32.8123 11.1784 33.2819 12.4656 33.4466 13.9632C33.5448 14.8705 33.5254 15.8529 33.3952 16.8356C36.3031 17.2327 39.0784 19.3399 39.8083 22.6279C40.1524 24.1349 40.0297 25.0766 39.469 25.7032C38.9116 26.327 37.8053 26.6922 36.0373 26.8836C34.9215 27.0067 35.2608 27.5563 35.2949 28.0083C35.4945 30.5465 34.9436 31.9477 34.2603 33.0292C33.55 34.1566 32.6456 34.9547 32.5494 36.2471L32.6135 37.4958C32.6433 38.0812 32.8472 38.3231 33.5423 38.5141C34.13 38.6739 34.5556 38.9712 34.6264 39.4673C34.6976 39.976 34.2304 40.0001 33.9057 40.0001H31.2093C30.7501 40.0001 30.5528 39.603 30.4159 39.2768C29.9661 38.2436 29.177 36.1573 29.0117 35.0861C27.2961 36.2349 24.1617 37.4697 22.0792 37.0241C21.4184 36.8792 21.4651 37.411 22.0354 37.5611C22.9176 37.7958 23.6778 37.9267 24.4373 38.6645C24.609 38.8318 24.7586 39.025 24.796 39.267C24.9018 39.9207 24.2235 39.9904 23.8175 39.9904H18.4953C16.674 39.9904 15.1424 39.0878 14.0022 37.7475C13.4288 37.6578 12.8714 37.4961 12.3748 37.2564C9.08271 35.6714 9.64867 31.6164 11.4501 32.4397C11.5921 32.5047 11.7183 32.553 11.8509 32.6111C11.8037 32.1805 11.7814 31.7522 11.7994 31.3359C11.8952 28.9165 13.021 26.6881 14.7635 24.968C17.4919 22.275 21.7087 20.8721 25.7272 22.0358C26.514 22.2629 27.2937 22.5802 28.0574 23.0005C28.2665 23.1143 28.5252 22.9765 28.542 22.7418C28.6285 21.4523 28.9768 20.5041 29.3996 19.7422C29.3926 19.7324 29.3879 19.7199 29.3775 19.7106C27.1898 17.6202 25.4568 14.6803 25.358 12.7567C25.3292 12.2006 25.3924 11.7677 25.5057 11.462C25.6185 11.1596 25.7638 10.9952 25.9432 10.9082C26.0319 10.8669 26.1399 10.8399 26.2655 10.8381C26.6465 10.8307 27.1919 11.0291 27.8754 11.554C29.5646 13.042 30.6756 14.7627 31.2336 17.1021C31.3417 17.5643 31.8061 17.4068 31.7032 16.9906C31.3222 15.4665 30.6686 14.0343 29.8965 12.839C30.1206 11.5472 30.5407 10.6013 30.9438 10.219C31.1116 10.0607 31.2466 9.99523 31.4674 10.0004L31.4676 10.0004Z" fill="#009FDE"/>
</g>
</svg>
