<?xml version="1.0" encoding="utf-8"?>
<!-- Generator: Adobe Illustrator 17.0.0, SVG Export Plug-In . SVG Version: 6.00 Build 0)  -->
<!DOCTYPE svg PUBLIC "-//W3C//DTD SVG 1.1//EN" "http://www.w3.org/Graphics/SVG/1.1/DTD/svg11.dtd">
<svg version="1.1" id="Layer_1" xmlns="http://www.w3.org/2000/svg" xmlns:xlink="http://www.w3.org/1999/xlink" x="0px" y="0px"
	 width="288px" height="18px" viewBox="0 0 288 18" enable-background="new 0 0 288 18" xml:space="preserve">
<g id="eror">
</g>
<g id="correct">
</g>
<g id="Layer_5">
</g>
<g>
	<path fill="#4D6878" d="M253.042,12.235v1.098h-6.151c-0.009-0.275,0.036-0.54,0.134-0.793c0.156-0.419,0.407-0.832,0.752-1.238
		s0.843-0.876,1.494-1.409c1.012-0.83,1.695-1.486,2.051-1.971c0.355-0.485,0.533-0.943,0.533-1.375
		c0-0.453-0.162-0.834-0.485-1.146c-0.324-0.311-0.746-0.466-1.267-0.466c-0.55,0-0.99,0.165-1.32,0.495s-0.497,0.787-0.502,1.371
		l-1.174-0.121c0.08-0.876,0.383-1.543,0.908-2.003c0.524-0.459,1.229-0.688,2.113-0.688c0.893,0,1.6,0.248,2.12,0.743
		s0.78,1.109,0.78,1.841c0,0.373-0.076,0.738-0.229,1.098s-0.404,0.738-0.758,1.136s-0.94,0.944-1.762,1.638
		c-0.686,0.576-1.126,0.966-1.32,1.171c-0.194,0.205-0.355,0.411-0.482,0.619H253.042z"/>
</g>
</svg>
