<svg xmlns="http://www.w3.org/2000/svg" width="52" height="52" viewBox="0 0 52 52" fill="none">
<rect x="1" y="1" width="50" height="50" rx="25" fill="#009FDE" stroke="white" stroke-width="2"/>
<path d="M39.6621 12.4036C39.4306 12.1536 39.1076 12.0084 38.7657 12.0003C38.4239 11.9923 38.0955 12.124 37.8532 12.3633C37.611 12.6026 37.4737 12.9279 37.4764 13.2694L37.3957 16.6087C36.6985 15.8424 35.9125 15.1515 35.0565 14.5519C33.0404 13.1457 30.6905 12.2934 28.2383 12.0837C25.7889 11.874 23.3259 12.3122 21.0998 13.3554C18.8711 14.3906 16.9519 15.993 15.5414 18.0014C14.1282 20.0099 13.2696 22.357 13.0542 24.801C12.8389 27.245 13.2669 29.7051 14.3032 31.9313C15.4283 34.3431 17.2184 36.3838 19.466 37.8141C21.7136 39.2445 24.3219 40 26.9867 39.9973V40C27.1616 40 27.3366 39.9892 27.5143 39.9892C29.7673 39.9005 31.9664 39.2741 33.926 38.161C35.8856 37.0479 37.5491 35.4804 38.7792 33.5929C38.9811 33.3133 39.0592 32.9611 38.9919 32.6223C38.9273 32.2836 38.7254 31.9851 38.4347 31.7996C38.144 31.6141 37.7886 31.5522 37.4549 31.6356C37.1184 31.7163 36.8304 31.934 36.6608 32.2325C35.2773 34.37 33.2208 35.9858 30.817 36.8274C28.4133 37.6689 25.7969 37.6904 23.3798 36.8839C20.9626 36.0773 18.8818 34.4936 17.466 32.3777C16.0501 30.2617 15.3772 27.737 15.5549 25.199C15.7325 22.6609 16.75 20.2545 18.4485 18.3563C20.1443 16.4581 22.4242 15.1783 24.9302 14.7186C27.4362 14.2588 30.023 14.6406 32.2867 15.8102C33.6057 16.4904 34.7712 17.418 35.7268 18.5284L32.6555 17.6815C32.2221 17.5605 31.7565 17.6815 31.4334 17.9987C31.1131 18.316 30.9839 18.7784 31.097 19.214C31.21 19.6496 31.5465 19.991 31.9826 20.112L38.1466 21.8193C38.2839 21.8677 38.4293 21.8946 38.5773 21.8946C38.6177 21.8946 38.6554 21.8919 38.6958 21.8892C38.9246 21.8704 39.1453 21.7897 39.331 21.6499C39.6163 21.4375 39.7967 21.1149 39.8317 20.7654V20.7627C39.8344 20.7492 39.8344 20.7331 39.8344 20.717C39.8344 20.7035 39.8371 20.6901 39.8371 20.6793C39.8371 20.6766 39.8371 20.6713 39.8371 20.6686L39.9986 13.3312C40.0147 12.9844 39.8936 12.651 39.6621 12.4036Z" fill="white" stroke="white" stroke-width="0.7"/>
</svg>