<svg xmlns="http://www.w3.org/2000/svg" width="52" height="52" viewBox="0 0 52 52" fill="none">
<rect x="1" y="1" width="50" height="50" rx="25" fill="white" stroke="#009FDE" stroke-width="2"/>
<path d="M39.0499 35.1541H27.4166L33.8544 28.7436L39.1524 23.4661C39.6967 22.9147 40.0011 22.1721 40 21.3988C39.9988 20.6256 39.6922 19.8838 39.1462 19.3341L32.6428 12.8621C32.0971 12.3125 31.354 12.0023 30.578 12H30.5694C29.7892 11.9992 29.0411 12.3097 28.4922 12.8621L23.213 18.1209L11.8593 29.427C11.3091 29.976 11 30.7201 11 31.496C11 32.2719 11.3091 33.016 11.8593 33.5651L15.0368 36.7303C15.0436 36.7371 15.0529 36.7389 15.0597 36.7451C15.1413 36.8233 15.2367 36.8859 15.341 36.9298L15.3583 36.9347V36.9348C15.4653 36.9773 15.5794 36.9994 15.6945 37H25.1623H25.1754H25.189H39.0501C39.3815 37 39.6877 36.824 39.8533 36.5382C40.0189 36.2525 40.0189 35.9003 39.8533 35.6145C39.6876 35.3288 39.3815 35.1526 39.0501 35.1526L39.0499 35.1541ZM12.8545 31.4961C12.8541 31.2119 12.9677 30.9392 13.1698 30.7387L23.8707 20.0793L31.901 28.0784L24.7948 35.154H16.0735L13.1679 32.2561C12.9648 32.0553 12.8518 31.7813 12.8545 31.4962L12.8545 31.4961Z" fill="#009FDE" stroke="#009FDE" stroke-width="0.25"/>
</svg>