<svg width="134" height="67" viewBox="0 0 134 67" fill="none" xmlns="http://www.w3.org/2000/svg">
<path d="M1.09204 60.5809C0.860601 61.0824 1.07949 61.6765 1.58094 61.908C2.08239 62.1394 2.67652 61.9205 2.90796 61.4191L1.09204 60.5809ZM131 66.5L132.099 55.0054L121.595 59.8009L131 66.5ZM4.9169 57.4025C5.17287 56.9131 4.98365 56.3089 4.49427 56.0529C4.00488 55.797 3.40065 55.9862 3.14468 56.4756L4.9169 57.4025ZM7.61457 48.4742C7.33272 48.9492 7.48927 49.5627 7.96422 49.8445C8.43918 50.1264 9.05268 49.9698 9.33453 49.4949L7.61457 48.4742ZM14.1616 41.8192C14.4678 41.3596 14.3435 40.7387 13.8839 40.4325C13.4243 40.1263 12.8034 40.2506 12.4972 40.7102L14.1616 41.8192ZM17.8019 33.2161C17.4697 33.6573 17.5579 34.2842 17.9991 34.6165C18.4403 34.9488 19.0672 34.8605 19.3995 34.4194L17.8019 33.2161ZM25.0797 27.3726C25.4411 26.955 25.3956 26.3235 24.978 25.9621C24.5604 25.6007 23.9289 25.6462 23.5674 26.0638L25.0797 27.3726ZM29.8617 19.3547C29.4668 19.7409 29.4597 20.374 29.8458 20.7689C30.2319 21.1638 30.865 21.1709 31.2599 20.7848L29.8617 19.3547ZM38.011 14.8209C38.4445 14.4786 38.5183 13.8497 38.176 13.4163C37.8337 12.9829 37.2049 12.909 36.7715 13.2513L38.011 14.8209ZM44.3924 8.00786C43.916 8.28737 43.7565 8.90011 44.036 9.37644C44.3155 9.85276 44.9283 10.0123 45.4046 9.73279L44.3924 8.00786ZM53.4594 5.89622C53.9781 5.70662 54.2449 5.13242 54.0554 4.61369C53.8658 4.09497 53.2915 3.82816 52.7728 4.01776L53.4594 5.89622ZM61.8253 1.7937C61.2773 1.86243 60.8888 2.36238 60.9576 2.91038C61.0263 3.45837 61.5263 3.84688 62.0742 3.77815L61.8253 1.7937ZM71.1083 3.83073C71.655 3.90902 72.1617 3.5293 72.24 2.98259C72.3183 2.43589 71.9385 1.92922 71.3918 1.85093L71.1083 3.83073ZM80.7825 4.47434C80.2724 4.26261 79.6872 4.50447 79.4755 5.01456C79.2638 5.52465 79.5057 6.1098 80.0157 6.32153L80.7825 4.47434ZM88.2208 10.7407C88.6814 11.0455 89.3019 10.9192 89.6066 10.4586C89.9114 9.99807 89.7851 9.37763 89.3246 9.07284L88.2208 10.7407ZM96.9664 14.9795C96.5528 14.6135 95.9208 14.6522 95.5548 15.0658C95.1889 15.4794 95.2275 16.1114 95.6412 16.4774L96.9664 14.9795ZM102.348 23.0943C102.721 23.5012 103.354 23.5282 103.761 23.1548C104.167 22.7813 104.194 22.1487 103.821 21.7419L102.348 23.0943ZM110.018 29.084C109.678 28.6486 109.05 28.571 108.614 28.9107C108.179 29.2505 108.101 29.8789 108.441 30.3143L110.018 29.084ZM114.007 37.959C114.318 38.4154 114.94 38.5333 115.397 38.2223C115.853 37.9112 115.971 37.2891 115.66 36.8328L114.007 37.959ZM120.838 44.9057C120.552 44.4331 119.938 44.2816 119.465 44.5674C118.992 44.8531 118.841 45.4679 119.127 45.9405L120.838 44.9057ZM123.829 54.1687C124.091 54.6547 124.698 54.8359 125.184 54.5735C125.67 54.3111 125.851 53.7045 125.589 53.2185L123.829 54.1687ZM129.929 61.7465C129.691 61.2481 129.094 61.0368 128.596 61.2746C128.097 61.5125 127.886 62.1093 128.124 62.6078L129.929 61.7465ZM2 61C2.90796 61.4191 2.90794 61.4191 2.90793 61.4191C2.90793 61.4191 2.90792 61.4191 2.90792 61.4191C2.90792 61.4191 2.90793 61.4191 2.90795 61.4191C2.90799 61.419 2.90807 61.4188 2.90819 61.4186C2.90844 61.418 2.90886 61.4171 2.90945 61.4158C2.91062 61.4133 2.91248 61.4093 2.91502 61.4038C2.92009 61.3929 2.92787 61.3762 2.93835 61.3538C2.95931 61.3091 2.99105 61.2416 3.03344 61.1523C3.11821 60.9739 3.24557 60.7084 3.41444 60.3634C3.75218 59.6736 4.25588 58.6663 4.9169 57.4025L3.14468 56.4756C2.4748 57.7563 1.9631 58.7795 1.61817 59.484C1.4457 59.8363 1.31491 60.1089 1.22687 60.2943C1.18285 60.3869 1.14951 60.4578 1.12699 60.5059C1.11574 60.53 1.10718 60.5483 1.10135 60.5609C1.09844 60.5671 1.0962 60.5719 1.09465 60.5753C1.09387 60.577 1.09327 60.5783 1.09283 60.5792C1.09261 60.5797 1.09244 60.5801 1.09231 60.5804C1.09224 60.5805 1.09219 60.5806 1.09214 60.5807C1.09212 60.5808 1.09209 60.5808 1.09208 60.5808C1.09206 60.5809 1.09204 60.5809 2 61ZM9.33453 49.4949C10.7359 47.1333 12.3502 44.5379 14.1616 41.8192L12.4972 40.7102C10.6643 43.4612 9.03157 46.0864 7.61457 48.4742L9.33453 49.4949ZM19.3995 34.4194C21.1719 32.0661 23.0683 29.6966 25.0797 27.3726L23.5674 26.0638C21.5231 28.4257 19.5984 30.831 17.8019 33.2161L19.3995 34.4194ZM31.2599 20.7848C33.4154 18.6773 35.6685 16.6709 38.011 14.8209L36.7715 13.2513C34.367 15.1503 32.0612 17.2043 29.8617 19.3547L31.2599 20.7848ZM45.4046 9.73279C48.009 8.20449 50.6969 6.90594 53.4594 5.89622L52.7728 4.01776C49.8843 5.07354 47.0878 6.42617 44.3924 8.00786L45.4046 9.73279ZM62.0742 3.77815C63.5324 3.59525 65.008 3.5 66.5 3.5V1.5C64.9226 1.5 63.3639 1.60071 61.8253 1.7937L62.0742 3.77815ZM66.5 3.5C68.0542 3.5 69.5906 3.61337 71.1083 3.83073L71.3918 1.85093C69.7829 1.62051 68.1518 1.5 66.5 1.5V3.5ZM80.0157 6.32153C82.8314 7.49025 85.5696 8.98624 88.2208 10.7407L89.3246 9.07284C86.5821 7.25796 83.7315 5.69842 80.7825 4.47434L80.0157 6.32153ZM95.6412 16.4774C97.9698 18.5376 100.208 20.7635 102.348 23.0943L103.821 21.7419C101.641 19.367 99.3536 17.0914 96.9664 14.9795L95.6412 16.4774ZM108.441 30.3143C110.413 32.8417 112.271 35.4119 114.007 37.959L115.66 36.8328C113.903 34.2544 112.019 31.6491 110.018 29.084L108.441 30.3143ZM119.127 45.9405C120.892 48.86 122.464 51.6414 123.829 54.1687L125.589 53.2185C124.211 50.6661 122.622 47.8562 120.838 44.9057L119.127 45.9405ZM0.184081 60.1619C-0.278798 61.1648 0.158979 62.353 1.16188 62.8159C2.16479 63.2788 3.35304 62.841 3.81592 61.8381L0.184081 60.1619ZM131 66.5L133.198 43.5108L112.19 53.1018L131 66.5ZM5.80301 57.866C6.31495 56.8872 5.93651 55.6788 4.95774 55.1668C3.97897 54.6549 2.77051 55.0333 2.25857 56.0121L5.80301 57.866ZM6.75458 47.9639C6.19089 48.9138 6.50399 50.1408 7.4539 50.7045C8.4038 51.2682 9.63082 50.9551 10.1945 50.0052L6.75458 47.9639ZM14.9938 42.3736C15.6063 41.4544 15.3576 40.2127 14.4383 39.6003C13.5191 38.9878 12.2774 39.2365 11.665 40.1557L14.9938 42.3736ZM17.0032 32.6145C16.3386 33.4968 16.5152 34.7508 17.3975 35.4153C18.2798 36.0798 19.5337 35.9033 20.1983 35.021L17.0032 32.6145ZM25.8358 28.0271C26.5587 27.1919 26.4676 25.9288 25.6324 25.206C24.7972 24.4831 23.5342 24.5742 22.8113 25.4094L25.8358 28.0271ZM29.1626 18.6397C28.3728 19.4119 28.3586 20.6782 29.1308 21.468C29.903 22.2578 31.1693 22.272 31.959 21.4998L29.1626 18.6397ZM38.6308 15.6057C39.4977 14.9211 39.6454 13.6634 38.9608 12.7965C38.2762 11.9297 37.0185 11.782 36.1517 12.4666L38.6308 15.6057ZM43.8863 7.14539C42.9336 7.70442 42.6145 8.92989 43.1735 9.88254C43.7326 10.8352 44.958 11.1543 45.9107 10.5953L43.8863 7.14539ZM53.8027 6.83544C54.8402 6.45625 55.3738 5.30784 54.9946 4.2704C54.6154 3.23296 53.467 2.69934 52.4295 3.07853L53.8027 6.83544ZM61.7009 0.801471C60.6049 0.938938 59.8279 1.93885 59.9653 3.03483C60.1028 4.13081 61.1027 4.90784 62.1987 4.77037L61.7009 0.801471ZM70.9665 4.82063C72.06 4.97722 73.0733 4.21777 73.2299 3.12436C73.3865 2.03095 72.627 1.01762 71.5336 0.861027L70.9665 4.82063ZM81.1658 3.55074C80.1457 3.12728 78.9754 3.61102 78.5519 4.63119C78.1285 5.65137 78.6122 6.82166 79.6324 7.24512L81.1658 3.55074ZM87.669 11.5746C88.5901 12.1842 89.831 11.9316 90.4406 11.0105C91.0502 10.0894 90.7976 8.84848 89.8764 8.23891L87.669 11.5746ZM97.629 14.2305C96.8018 13.4986 95.5378 13.5759 94.8059 14.4032C94.074 15.2305 94.1513 16.4944 94.9786 17.2263L97.629 14.2305ZM101.611 23.7705C102.358 24.5843 103.623 24.6384 104.437 23.8915C105.251 23.1445 105.305 21.8794 104.558 21.0656L101.611 23.7705ZM110.806 28.4689C110.127 27.598 108.87 27.4429 107.999 28.1223C107.128 28.8018 106.973 30.0586 107.653 30.9294L110.806 28.4689ZM113.181 38.5222C113.803 39.4349 115.047 39.6706 115.96 39.0486C116.872 38.4266 117.108 37.1824 116.486 36.2696L113.181 38.5222ZM121.694 44.3883C121.122 43.4431 119.893 43.1401 118.948 43.7116C118.002 44.2831 117.699 45.5127 118.271 46.4579L121.694 44.3883ZM122.949 54.6438C123.474 55.6157 124.687 55.9782 125.659 55.4534C126.631 54.9287 126.993 53.7153 126.469 52.7434L122.949 54.6438ZM130.832 61.3159C130.356 60.319 129.162 59.8964 128.165 60.3721C127.168 60.8478 126.746 62.0415 127.221 63.0384L130.832 61.3159ZM2 61C3.81592 61.8381 3.81589 61.8382 3.81586 61.8382C3.81585 61.8383 3.81582 61.8383 3.81581 61.8383C3.81579 61.8384 3.81577 61.8384 3.81577 61.8384C3.81576 61.8385 3.8158 61.8384 3.81587 61.8382C3.81603 61.8379 3.81635 61.8372 3.81685 61.8361C3.81784 61.834 3.8195 61.8304 3.82185 61.8253C3.82654 61.8152 3.83394 61.7994 3.84403 61.7778C3.86421 61.7347 3.89515 61.6689 3.93672 61.5814C4.01987 61.4063 4.14551 61.1444 4.31257 60.8032C4.64672 60.1207 5.14641 59.1213 5.80301 57.866L2.25857 56.0121C1.58426 57.3013 1.06856 58.3324 0.720041 59.0443C0.545769 59.4002 0.413259 59.6764 0.323584 59.8652C0.278745 59.9596 0.244611 60.0322 0.221317 60.0819C0.20967 60.1068 0.200732 60.126 0.194521 60.1394C0.191415 60.146 0.188991 60.1513 0.18725 60.155C0.18638 60.1569 0.185681 60.1584 0.185152 60.1596C0.184888 60.1601 0.184667 60.1606 0.184488 60.161C0.184399 60.1612 0.18432 60.1614 0.184253 60.1615C0.184219 60.1616 0.184176 60.1617 0.184159 60.1617C0.184119 60.1618 0.184081 60.1619 2 61ZM10.1945 50.0052C11.5881 47.6568 13.1931 45.0763 14.9938 42.3736L11.665 40.1557C9.82138 42.9228 8.1794 45.5629 6.75458 47.9639L10.1945 50.0052ZM20.1983 35.021C21.9587 32.6837 23.8408 30.332 25.8358 28.0271L22.8113 25.4094C20.7506 27.7903 18.8116 30.2134 17.0032 32.6145L20.1983 35.021ZM31.959 21.4998C34.0925 19.4138 36.3192 17.4312 38.6308 15.6057L36.1517 12.4666C33.7163 14.39 31.384 16.4678 29.1626 18.6397L31.959 21.4998ZM45.9107 10.5953C48.4696 9.09365 51.1032 7.82214 53.8027 6.83544L52.4295 3.07853C49.478 4.15734 46.6271 5.53701 43.8863 7.14539L45.9107 10.5953ZM62.1987 4.77037C63.6167 4.59252 65.0506 4.5 66.5 4.5V0.5C64.88 0.5 63.2797 0.603442 61.7009 0.801471L62.1987 4.77037ZM66.5 4.5C68.0054 4.5 69.4944 4.6098 70.9665 4.82063L71.5336 0.861027C69.8791 0.624083 68.2006 0.5 66.5 0.5V4.5ZM79.6324 7.24512C82.3813 8.38616 85.0634 9.85038 87.669 11.5746L89.8764 8.23891C87.0883 6.39382 84.1816 4.80251 81.1658 3.55074L79.6324 7.24512ZM94.9786 17.2263C97.2779 19.2607 99.4916 21.4617 101.611 23.7705L104.558 21.0656C102.358 18.6687 100.045 16.3683 97.629 14.2305L94.9786 17.2263ZM107.653 30.9294C109.61 33.438 111.455 35.9906 113.181 38.5222L116.486 36.2696C114.718 33.6757 112.822 31.0528 110.806 28.4689L107.653 30.9294ZM118.271 46.4579C120.027 49.3619 121.591 52.1291 122.949 54.6438L126.469 52.7434C125.084 50.1784 123.487 47.3543 121.694 44.3883L118.271 46.4579Z" fill="#009FDE"/>
</svg>
