<svg width="73" height="66" viewBox="0 0 73 66" fill="none" xmlns="http://www.w3.org/2000/svg">
<path id="Ellipse 49" d="M1.02523 60.2768C0.901956 60.8151 1.23844 61.3515 1.7768 61.4748C2.31515 61.598 2.8515 61.2616 2.97477 60.7232L1.02523 60.2768ZM66 66L69.417 54.9702L58.1564 57.5258L66 66ZM4.01078 56.5543C4.14982 56.0198 3.82925 55.4738 3.29475 55.3348C2.76026 55.1957 2.21424 55.5163 2.0752 56.0508L4.01078 56.5543ZM4.41903 47.6401C4.26186 48.1696 4.56365 48.7262 5.0931 48.8834C5.62255 49.0406 6.17916 48.7388 6.33633 48.2093L4.41903 47.6401ZM8.94997 39.94C9.12611 39.4166 8.84457 38.8494 8.32112 38.6733C7.79768 38.4972 7.23056 38.7787 7.05442 39.3021L8.94997 39.94ZM10.0171 31.079C9.81793 31.5942 10.0741 32.1732 10.5892 32.3724C11.1043 32.5715 11.6834 32.3154 11.8825 31.8003L10.0171 31.079ZM15.224 23.8382C15.454 23.3361 15.2333 22.7426 14.7312 22.5126C14.2291 22.2827 13.6356 22.5033 13.4056 23.0054L15.224 23.8382ZM17.4022 15.1822C17.1264 15.6606 17.2908 16.2721 17.7692 16.5479C18.2477 16.8237 18.8592 16.6594 19.135 16.1809L17.4022 15.1822ZM23.941 9.14155C24.2955 8.71804 24.2395 8.08736 23.816 7.73287C23.3925 7.37838 22.7618 7.43433 22.4073 7.85784L23.941 9.14155ZM29.384 2.0771C28.8837 2.31096 28.6677 2.90613 28.9015 3.40646C29.1354 3.90679 29.7306 4.12282 30.2309 3.88896L29.384 2.0771ZM37.9623 4.08421C38.448 4.34701 39.0549 4.16627 39.3177 3.68052C39.5805 3.19476 39.3997 2.58794 38.914 2.32515L37.9623 4.08421ZM45.9624 8.95736C45.6332 8.51392 45.0068 8.42132 44.5634 8.75054C44.1199 9.07975 44.0273 9.70611 44.3565 10.1495L45.9624 8.95736ZM49.1165 17.9506C49.3704 18.441 49.9739 18.6328 50.4643 18.3788C50.9548 18.1249 51.1465 17.5215 50.8926 17.031L49.1165 17.9506ZM54.8224 25.5656C54.6111 25.0553 54.0262 24.8128 53.5159 25.0241C53.0056 25.2353 52.7632 25.8202 52.9744 26.3305L54.8224 25.5656ZM56.2635 34.9843C56.4463 35.5055 57.017 35.7798 57.5382 35.597C58.0593 35.4142 58.3336 34.8435 58.1508 34.3224L56.2635 34.9843ZM61.0602 43.2115C60.8986 42.6834 60.3394 42.3863 59.8113 42.548C59.2832 42.7096 58.9861 43.2687 59.1478 43.7968L61.0602 43.2115ZM61.7162 52.722C61.8604 53.2551 62.4095 53.5704 62.9427 53.4262C63.4758 53.2819 63.791 52.7328 63.6468 52.1997L61.7162 52.722ZM65.9475 61.2505C65.8198 60.7132 65.2808 60.381 64.7435 60.5086C64.2061 60.6363 63.874 61.1753 64.0016 61.7127L65.9475 61.2505ZM2 60.5C2.97477 60.7232 2.97477 60.7232 2.97477 60.7232C2.97477 60.7232 2.97476 60.7232 2.97477 60.7232C2.97477 60.7232 2.97478 60.7232 2.97479 60.7231C2.97482 60.723 2.97488 60.7228 2.97495 60.7224C2.9751 60.7218 2.97533 60.7208 2.97565 60.7194C2.97629 60.7166 2.97729 60.7123 2.97863 60.7064C2.98131 60.6948 2.98539 60.6772 2.99085 60.6537C3.00178 60.6066 3.01825 60.5361 3.04019 60.443C3.08407 60.2569 3.14984 59.9807 3.23693 59.6226C3.41112 58.9062 3.67057 57.8621 4.01078 56.5543L2.0752 56.0508C1.73208 57.3697 1.47004 58.4243 1.29357 59.15C1.20533 59.5129 1.13847 59.7936 1.09356 59.9841C1.07111 60.0793 1.05414 60.152 1.04273 60.2011C1.03702 60.2257 1.0327 60.2443 1.02978 60.257C1.02832 60.2633 1.02721 60.2681 1.02645 60.2715C1.02607 60.2731 1.02578 60.2744 1.02558 60.2753C1.02548 60.2757 1.0254 60.2761 1.02534 60.2763C1.02531 60.2764 1.02528 60.2766 1.02527 60.2766C1.02526 60.2767 1.02525 60.2767 1.02524 60.2767C1.02523 60.2768 1.02523 60.2768 2 60.5ZM6.33633 48.2093C7.09246 45.6622 7.96679 42.8618 8.94997 39.94L7.05442 39.3021C6.06247 42.25 5.18094 45.0736 4.41903 47.6401L6.33633 48.2093ZM11.8825 31.8003C12.9209 29.1144 14.037 26.4301 15.224 23.8382L13.4056 23.0054C12.199 25.6402 11.0674 28.3625 10.0171 31.079L11.8825 31.8003ZM19.135 16.1809C20.665 13.5263 22.2712 11.1364 23.941 9.14155L22.4073 7.85784C20.6428 9.96588 18.972 12.4586 17.4022 15.1822L19.135 16.1809ZM30.2309 3.88896C31.4813 3.30451 32.7362 3 34 3V1C32.4048 1 30.8622 1.38623 29.384 2.0771L30.2309 3.88896ZM34 3C35.322 3 36.6406 3.36915 37.9623 4.08421L38.914 2.32515C37.352 1.48009 35.7088 1 34 1V3ZM44.3565 10.1495C46.0123 12.3797 47.603 15.0274 49.1165 17.9506L50.8926 17.031C49.3457 14.0433 47.6998 11.2977 45.9624 8.95736L44.3565 10.1495ZM52.9744 26.3305C54.1433 29.1544 55.2418 32.0713 56.2635 34.9843L58.1508 34.3224C57.1192 31.3811 56.0077 28.4292 54.8224 25.5656L52.9744 26.3305ZM59.1478 43.7968C60.1141 46.9541 60.9733 49.9759 61.7162 52.722L63.6468 52.1997C62.899 49.4358 62.0338 46.3927 61.0602 43.2115L59.1478 43.7968ZM0.0504563 60.0536C-0.196088 61.1303 0.47689 62.203 1.55359 62.4495C2.6303 62.6961 3.703 62.0231 3.94954 60.9464L0.0504563 60.0536ZM66 66L72.8341 43.9403L50.3128 49.0517L66 66ZM4.97857 56.8061C5.25666 55.7371 4.6155 54.6451 3.54651 54.367C2.47752 54.0889 1.3855 54.73 1.10741 55.799L4.97857 56.8061ZM3.46038 47.3556C3.14604 48.4145 3.74961 49.5277 4.80851 49.842C5.86741 50.1564 6.98064 49.5528 7.29498 48.4939L3.46038 47.3556ZM9.89775 40.2589C10.25 39.212 9.68694 38.0778 8.64005 37.7255C7.59316 37.3732 6.45892 37.9363 6.10664 38.9832L9.89775 40.2589ZM9.08437 30.7184C8.68605 31.7487 9.19833 32.9068 10.2286 33.3051C11.2588 33.7034 12.4169 33.1911 12.8152 32.1609L9.08437 30.7184ZM16.1332 24.2546C16.5931 23.2504 16.1519 22.0634 15.1476 21.6035C14.1434 21.1435 12.9564 21.5848 12.4965 22.5891L16.1332 24.2546ZM16.5358 14.6828C15.9843 15.6398 16.3129 16.8627 17.2699 17.4143C18.2269 17.9659 19.4498 17.6372 20.0014 16.6803L16.5358 14.6828ZM24.7078 9.78341C25.4168 8.93639 25.3049 7.67502 24.4578 6.96604C23.6108 6.25707 22.3495 6.36897 21.6405 7.21599L24.7078 9.78341ZM28.9606 1.17118C27.9599 1.63888 27.5279 2.82923 27.9956 3.82989C28.4633 4.83056 29.6537 5.2626 30.6543 4.79489L28.9606 1.17118ZM37.4865 4.96375C38.458 5.48934 39.6716 5.12786 40.1972 4.15635C40.7228 3.18485 40.3613 1.97121 39.3898 1.44561L37.4865 4.96375ZM46.7653 8.36126C46.1069 7.47439 44.8541 7.2892 43.9673 7.94763C43.0804 8.60605 42.8952 9.85877 43.5536 10.7456L46.7653 8.36126ZM48.2285 18.4104C48.7363 19.3913 49.9432 19.7747 50.9241 19.2669C51.905 18.759 52.2884 17.5521 51.7806 16.5712L48.2285 18.4104ZM55.7463 25.1831C55.3239 24.1625 54.1541 23.6776 53.1335 24.1001C52.1129 24.5225 51.628 25.6924 52.0504 26.713L55.7463 25.1831ZM55.3199 35.3153C55.6855 36.3576 56.8268 36.9062 57.8691 36.5406C58.9114 36.175 59.46 35.0337 59.0945 33.9914L55.3199 35.3153ZM62.0164 42.9189C61.6932 41.8626 60.5749 41.2685 59.5187 41.5917C58.4625 41.915 57.8683 43.0333 58.1916 44.0895L62.0164 42.9189ZM60.7509 52.9832C61.0394 54.0494 62.1376 54.6799 63.2038 54.3915C64.2701 54.103 64.9006 53.0048 64.6121 51.9385L60.7509 52.9832ZM66.9204 61.0194C66.6652 59.9448 65.5871 59.2805 64.5124 59.5357C63.4377 59.7909 62.7734 60.869 63.0286 61.9437L66.9204 61.0194ZM2 60.5C3.94954 60.9464 3.94953 60.9464 3.94953 60.9465C3.94953 60.9465 3.94952 60.9465 3.94952 60.9465C3.94951 60.9465 3.94952 60.9465 3.94952 60.9465C3.94954 60.9464 3.94957 60.9463 3.94963 60.946C3.94975 60.9455 3.94996 60.9446 3.95025 60.9433C3.95083 60.9408 3.95177 60.9367 3.95305 60.9312C3.95561 60.9201 3.95957 60.9029 3.96491 60.8799C3.9756 60.8339 3.99182 60.7645 4.0135 60.6725C4.05687 60.4885 4.1221 60.2147 4.20862 59.8589C4.38166 59.1472 4.63982 58.1082 4.97857 56.8061L1.10741 55.799C0.762837 57.1236 0.499498 58.1833 0.321882 58.9137C0.233068 59.279 0.165669 59.5619 0.120249 59.7546C0.0975375 59.8509 0.0803195 59.9246 0.0686644 59.9748C0.0628369 59.9999 0.0583999 60.0191 0.0553623 60.0323C0.0538436 60.0388 0.0526747 60.0439 0.0518566 60.0475C0.0514475 60.0493 0.0511262 60.0507 0.0508928 60.0517C0.0507761 60.0522 0.0506814 60.0526 0.0506086 60.0529C0.0505723 60.0531 0.0505414 60.0532 0.050516 60.0533C0.0505033 60.0534 0.0504884 60.0535 0.050482 60.0535C0.0504684 60.0535 0.0504563 60.0536 2 60.5ZM7.29498 48.4939C8.04823 45.9566 8.91895 43.1677 9.89775 40.2589L6.10664 38.9832C5.11031 41.9441 4.22518 44.7793 3.46038 47.3556L7.29498 48.4939ZM12.8152 32.1609C13.8477 29.4904 14.956 26.825 16.1332 24.2546L12.4965 22.5891C11.2799 25.2453 10.1406 27.9866 9.08437 30.7184L12.8152 32.1609ZM20.0014 16.6803C21.5115 14.0602 23.0854 11.7217 24.7078 9.78341L21.6405 7.21599C19.8286 9.38062 18.1255 11.9247 16.5358 14.6828L20.0014 16.6803ZM30.6543 4.79489C31.7909 4.26365 32.9018 4 34 4V0C32.2392 0 30.5526 0.427092 28.9606 1.17118L30.6543 4.79489ZM34 4C35.1286 4 36.2849 4.31367 37.4865 4.96375L39.3898 1.44561C37.7077 0.535562 35.9022 0 34 0V4ZM43.5536 10.7456C45.1685 12.9208 46.7317 15.5195 48.2285 18.4104L51.7806 16.5712C50.217 13.5513 48.5436 10.7566 46.7653 8.36126L43.5536 10.7456ZM52.0504 26.713C53.2111 29.517 54.3031 32.4164 55.3199 35.3153L59.0945 33.9914C58.0579 31.036 56.9398 28.0666 55.7463 25.1831L52.0504 26.713ZM58.1916 44.0895C59.1542 47.2348 60.0104 50.246 60.7509 52.9832L64.6121 51.9385C63.8619 49.1657 62.9937 46.112 62.0164 42.9189L58.1916 44.0895Z" fill="#009FDE"/>
</svg>
