<svg width="38" height="39" viewBox="0 0 38 39" fill="none" xmlns="http://www.w3.org/2000/svg">
<ellipse cx="19" cy="19.5" rx="19" ry="19.5" fill="white"/>
<path d="M29.7967 24.9333C29.8796 24.8597 29.9571 24.7544 30.0292 24.6176C30.0934 24.4966 30.1254 24.3887 30.1228 24.294C30.1228 24.1941 30.0907 24.0967 30.0266 24.0046C29.9678 23.9204 29.8903 23.8494 29.7941 23.7968C29.6364 23.71 29.4333 23.6705 29.1794 23.6784C29.1073 23.6784 29.0004 23.6863 28.8641 23.7021C28.7198 23.7179 28.6155 23.7284 28.5487 23.7284C28.2628 23.7389 27.9581 23.6995 27.6374 23.6126C27.3729 23.5416 27.0869 23.4311 26.7742 23.2838C26.7422 23.268 26.7128 23.2522 26.6887 23.2364C26.5979 23.5495 26.4455 23.8599 26.2371 24.1704C26.1756 24.2625 26.1115 24.3466 26.0447 24.4177C26.1248 24.4361 26.2023 24.4545 26.2745 24.4677C26.4135 24.4913 26.5979 24.5045 26.8223 24.5124C27.119 24.5229 27.3034 24.5308 27.3809 24.5387C27.8272 24.5755 28.1692 24.6939 28.4044 24.8939C28.53 24.9965 28.6289 25.1254 28.6984 25.2753C28.7117 25.3043 28.7224 25.3332 28.7331 25.3621C28.7465 25.3621 28.7598 25.3595 28.7732 25.3569C28.9122 25.3332 29.1126 25.2674 29.3692 25.1648C29.5696 25.0833 29.7112 25.007 29.7967 24.9359M15.4432 29.09C15.3737 29.0558 15.3042 29.0138 15.2347 28.9638C15.2427 29.1453 15.224 29.3347 15.1733 29.5294C15.2134 29.632 15.2668 29.7293 15.3309 29.8214C15.4165 29.9503 15.5207 30.0608 15.6436 30.1529C15.7906 30.2687 15.9296 30.316 16.0552 30.2976C16.1407 30.2897 16.2209 30.2476 16.2877 30.1792C16.3491 30.1161 16.3972 30.0398 16.4266 29.9477C16.4507 29.8767 16.4667 29.7899 16.4747 29.6873C16.4801 29.5662 16.4828 29.4768 16.4854 29.4163C16.4854 29.3768 16.4908 29.3426 16.4988 29.3137C16.0926 29.3163 15.7398 29.2426 15.4405 29.09M20.8094 11.4397C20.6838 11.3398 20.5609 11.2451 20.4353 11.153C19.5026 10.4505 18.5699 9.88227 17.6372 9.44555C16.9905 9.14038 16.3839 8.92202 15.812 8.79048C15.5474 8.72997 15.2508 8.67735 14.9167 8.63262C14.7083 8.60632 14.4063 8.57212 14.0108 8.53265C13.7355 8.50634 13.5404 8.48793 13.4228 8.48267C13.2037 8.46425 13.0059 8.45636 12.8349 8.45899C12.4661 8.46688 12.0439 8.52213 11.5682 8.6221C10.9375 8.75627 10.4164 8.93517 10.0102 9.15353C9.59593 9.38241 9.30998 9.6455 9.15231 9.94805C9.06946 10.1112 9.01869 10.2901 9.00265 10.4821C8.98929 10.6689 9.01067 10.8504 9.06412 11.032C9.07214 11.0556 9.07748 11.0767 9.08015 11.0977C10.0476 10.9162 11.0364 10.8425 12.0519 10.8794C13.0594 10.9162 14.0562 11.0609 15.0477 11.3108C15.5795 11.445 16.1487 11.6239 16.7527 11.8423C16.8916 11.8922 17.0386 11.9475 17.1909 12.0054C17.5597 12.1448 17.9686 12.3079 18.4176 12.4973C19.3289 12.8788 20.0691 13.2261 20.641 13.5444C20.7052 13.5812 20.772 13.6154 20.8361 13.6523C21.5336 14.0548 22.1269 14.4889 22.6186 14.9519C22.6587 14.9887 22.6908 15.0256 22.7175 15.0624C22.8752 14.6836 23.1237 14.3547 23.4658 14.0758C23.5059 14.0443 23.546 14.0127 23.586 13.9838C23.5834 13.9838 23.5807 13.9811 23.578 13.9785C23.2974 13.6891 23.0195 13.4129 22.7496 13.1498C22.0761 12.4973 21.4294 11.9264 20.8094 11.4371V11.4397Z" fill="#B7A287"/>
<path d="M22.5144 24.8886C22.2258 24.8281 21.9639 24.7518 21.734 24.6597L21.424 24.7413L20.8094 25.2753L19.4117 25.8778L19.1338 25.9146C19.2407 26.2119 19.3101 26.5197 19.3395 26.8407C19.3582 27.1011 19.3476 27.3274 19.3075 27.5247C19.4758 27.5931 19.6709 27.6247 19.8901 27.6194C20.0664 27.6141 20.2642 27.5878 20.4914 27.5352C20.7132 27.4826 20.9296 27.4195 21.1408 27.3458C21.6779 27.1537 22.175 26.8828 22.632 26.5329C22.7896 26.4118 22.8939 26.3356 22.9446 26.3066C22.9527 26.3014 22.9633 26.2935 22.9714 26.2882C22.9206 26.2487 22.8805 26.2198 22.8511 26.2014C22.7763 26.1514 22.6747 26.0909 22.5464 26.0225C22.3781 25.9304 22.2739 25.8725 22.2391 25.8488C22.1082 25.7752 22.028 25.6963 21.9959 25.62C21.9745 25.5647 21.9745 25.5095 21.9959 25.4516C22.0227 25.3911 22.0654 25.3569 22.1189 25.349C22.1643 25.3411 22.2231 25.3595 22.2979 25.4042C22.632 25.591 22.95 25.7936 23.2493 26.0146C23.3027 26.0541 23.3829 26.1119 23.4898 26.1882C23.5807 26.2514 23.6635 26.304 23.733 26.3461C23.8346 26.4013 23.9468 26.446 24.0724 26.4881C24.1285 26.5066 24.1873 26.5223 24.2461 26.5408C24.3717 26.5697 24.5534 26.6039 24.7886 26.6434C25.275 26.7223 25.6732 26.7723 25.9805 26.7907C26.4188 26.8196 26.8143 26.8038 27.1671 26.7433C27.5385 26.6802 27.8245 26.5644 28.0222 26.3961C28.1077 26.3224 28.1799 26.2382 28.236 26.1461C27.453 26.2251 26.6513 26.1225 25.8362 25.841C25.1333 25.5963 24.4278 25.3806 23.717 25.1911C23.3161 25.0833 22.9152 24.9833 22.5117 24.8939M30.3846 16.3726C30.4675 16.3594 30.545 16.3436 30.6171 16.3252C30.5236 16.341 30.4354 16.3568 30.3472 16.3778C30.3606 16.3778 30.3713 16.3752 30.3846 16.3726ZM28.7331 17.1329C28.7171 17.146 28.7037 17.1618 28.693 17.1802C28.399 17.7879 28.0784 18.4641 27.7283 19.2086C27.1644 19.4743 26.5871 19.7348 26.0019 19.9926C26.0019 20.0057 25.9992 20.0215 25.9939 20.0373C25.9725 20.1583 25.911 20.2662 25.8068 20.3662C25.6652 20.503 25.4808 20.5898 25.2509 20.6293C25.1574 20.6424 25.0799 20.6424 25.0158 20.6293C24.9757 20.6214 24.9089 20.5951 24.8207 20.5503C24.8127 20.5451 24.802 20.5398 24.7966 20.5345C24.6389 20.6608 24.5374 20.845 24.4946 21.0844L24.6122 21.5211L25.1307 22.0341C25.291 22.1183 25.4567 22.1972 25.6251 22.2709C25.6758 22.242 25.7533 22.2288 25.8549 22.2367C26.042 22.2525 26.3226 22.2814 26.6994 22.3183C27.0254 22.3419 27.3087 22.3446 27.5439 22.3235C27.9207 22.2893 28.375 22.1762 28.9068 21.9815C29.2409 21.8605 29.5241 21.7395 29.7513 21.6211C30.0506 21.4659 30.3018 21.2949 30.5076 21.1081C30.7935 20.8476 31.026 20.5345 31.2024 20.1662C31.3734 19.8137 31.4777 19.4375 31.5204 19.0376C31.4777 19.0508 31.4322 19.0613 31.3868 19.0718C31.189 19.1113 30.9806 19.1113 30.7668 19.0718C30.5637 19.035 30.3659 18.9692 30.1789 18.8692C29.8395 18.693 29.5268 18.422 29.2435 18.0563C29.15 17.93 29.0778 17.8327 29.0271 17.7695C28.979 17.7011 28.9496 17.6538 28.9415 17.6248C28.9362 17.5985 28.9389 17.5696 28.9496 17.5406C28.9602 17.5117 28.979 17.4933 29.003 17.4828C29.0591 17.4591 29.1206 17.4933 29.1954 17.5801C29.4199 17.8511 29.6738 18.0931 29.9597 18.3036C30.3152 18.564 30.6439 18.7087 30.9459 18.7324C31.0528 18.7377 31.1757 18.7324 31.3093 18.7166C31.3681 18.7087 31.4483 18.6956 31.5498 18.6745C31.5578 18.0458 31.4162 17.4038 31.1303 16.7435C31.1009 16.6751 31.0688 16.6146 31.0421 16.5567C31.0394 16.5593 31.034 16.562 31.0314 16.5646C30.9993 16.6041 30.9405 16.6383 30.8496 16.6619C30.5396 16.7461 30.2216 16.7645 29.8983 16.7146C29.8288 16.7014 29.786 16.6804 29.7673 16.6541C29.7513 16.6304 29.7486 16.6014 29.7566 16.5672C29.7566 16.5646 29.7566 16.5593 29.7566 16.5567C29.3905 16.6988 29.0511 16.8908 28.7331 17.1329ZM17.5704 14.2389C17.5357 14.2232 17.5009 14.21 17.4688 14.1968C16.6778 13.8443 15.9376 13.5654 15.2481 13.3602C14.4463 13.1261 13.666 12.9788 12.9124 12.9235C12.0786 12.8604 11.2929 12.9051 10.5526 13.0656C10.3148 13.1129 10.1384 13.1813 10.0262 13.2682C9.88453 13.3734 9.79099 13.5181 9.74289 13.7075C9.69746 13.8838 9.7028 14.0627 9.75892 14.2416C9.84979 14.5389 10.0689 14.8177 10.411 15.0782C10.7237 15.3176 11.1032 15.5175 11.5521 15.6859C11.8808 15.8043 12.3031 15.9227 12.8162 16.0384C14.7617 16.4752 16.5549 16.6488 18.1984 16.5567C18.7436 16.5278 19.2727 16.4673 19.7858 16.3778C19.9328 16.3541 20.037 16.3173 20.0985 16.2647C20.1546 16.2252 20.192 16.17 20.2161 16.0989C20.2401 16.0358 20.2482 15.9674 20.2375 15.8964C20.2188 15.7569 20.1439 15.6254 20.0103 15.5044C19.9168 15.4228 19.7805 15.3334 19.5988 15.2387C18.797 14.823 18.1209 14.4889 17.5677 14.2389H17.5704Z" fill="#EBCFAC"/>
<path d="M25.7989 19.4823C25.6813 19.3665 25.5396 19.2981 25.3686 19.2797C25.211 19.2613 25.0533 19.285 24.893 19.3507C24.7914 19.3955 24.7139 19.4454 24.6605 19.5033C24.6231 19.5401 24.5857 19.5928 24.5483 19.6638C24.4841 19.7716 24.4521 19.8663 24.4521 19.9505C24.4494 20.0294 24.4788 20.132 24.5376 20.2609C24.5696 20.3346 24.6044 20.3924 24.6391 20.4293C24.6685 20.4635 24.722 20.4977 24.7968 20.5345C24.8048 20.5398 24.8128 20.545 24.8208 20.5503C24.909 20.595 24.9731 20.6187 25.0159 20.6292C25.08 20.6423 25.1575 20.6397 25.2511 20.6292C25.4782 20.5897 25.6652 20.5029 25.8069 20.3661C25.9111 20.2662 25.9725 20.1583 25.9939 20.0373C25.9966 20.0215 25.9993 20.0058 26.0019 19.9926C26.01 19.8874 25.9832 19.7769 25.9244 19.6638C25.8897 19.5928 25.8469 19.5323 25.7962 19.4823H25.7989Z" fill="#F36F41"/>
<path d="M30.4435 15.9439C30.3126 15.8939 30.1335 15.8702 29.9064 15.8755C29.6151 15.8834 29.428 15.8834 29.3505 15.8755C29.0592 15.8386 28.7572 15.6913 28.4472 15.4309C28.1025 15.102 27.8432 14.86 27.6695 14.7074C27.413 14.4838 27.1377 14.2996 26.8438 14.1523C26.5364 13.9997 26.2211 13.8971 25.8977 13.8418C25.5663 13.7866 25.235 13.7866 24.9009 13.8418C24.5588 13.8997 24.2488 14.0128 23.9656 14.1812C23.7651 14.2996 23.5647 14.4575 23.3669 14.6521C23.2146 14.8021 23.0463 14.9941 22.8565 15.2257C22.8244 15.2625 22.787 15.2862 22.7469 15.302C22.7336 15.3072 22.7256 15.3098 22.7175 15.3098C22.7042 15.323 22.6908 15.3335 22.6721 15.3414C22.608 15.3677 22.5251 15.3335 22.4263 15.2388C22.2312 15.0599 22.004 14.881 21.7448 14.7021C21.5444 14.5653 21.3012 14.4101 21.0099 14.2365C20.903 14.1733 20.7934 14.1128 20.6892 14.0523C19.5213 13.3893 18.3107 12.8316 17.06 12.3765C16.253 12.0818 15.4272 11.8319 14.5854 11.6267C14.1017 11.5056 13.6687 11.4188 13.2812 11.3662C12.851 11.3083 12.386 11.2768 11.8862 11.2689C10.7959 11.2557 9.75097 11.3662 8.75149 11.6004C8.42011 11.6793 8.14217 11.7635 7.92304 11.8555C7.63174 11.9792 7.39122 12.1292 7.20416 12.3107C6.95562 12.5475 6.77924 12.8421 6.67769 13.1973C6.58148 13.5367 6.56277 13.8839 6.62691 14.2365C6.68838 14.5653 6.81933 14.8863 7.01174 15.1967C7.19347 15.4887 7.42597 15.7518 7.7039 15.986C8.17157 16.3859 8.7889 16.7173 9.55321 16.9778C10.3763 17.2567 11.3224 17.4487 12.3967 17.554C13.0888 17.6197 14.0643 17.6592 15.3176 17.675C16.4828 17.6908 17.5464 17.6934 18.5058 17.6855C19.0617 17.6829 19.5828 17.675 20.0692 17.6644C20.1413 17.6618 20.1948 17.6644 20.2349 17.6644C20.2643 17.6697 20.2937 17.675 20.3204 17.6802C20.3391 17.5566 20.3631 17.4277 20.3925 17.2961C20.4112 17.2146 20.438 17.1567 20.4647 17.1278C20.4887 17.1014 20.5181 17.0883 20.5502 17.0857C20.585 17.083 20.6144 17.0936 20.6357 17.1172C20.6544 17.1409 20.6625 17.1725 20.6571 17.2119C20.6544 17.2304 20.6437 17.2672 20.625 17.3224C20.5983 17.3935 20.585 17.4987 20.5823 17.6329C20.5716 18.0591 20.5823 18.3932 20.617 18.6405C20.6357 18.7931 20.6678 18.9615 20.7132 19.1456C20.74 19.2561 20.7827 19.4218 20.8469 19.6402C20.9083 19.8717 20.9698 20.048 21.0286 20.1664C21.074 20.2611 21.1355 20.3584 21.213 20.4637C21.2611 20.5268 21.3359 20.6189 21.4321 20.7346C21.5043 20.8188 21.5631 20.8846 21.6112 20.9293C21.6806 20.9977 21.7475 21.0503 21.8116 21.0924C21.8597 21.1161 21.8944 21.1372 21.9131 21.1556C21.9479 21.195 21.9532 21.2319 21.9292 21.2634C21.9158 21.2897 21.8837 21.3029 21.8303 21.3082C21.6753 21.3213 21.5203 21.2713 21.368 21.1635C21.2718 21.0951 21.1569 20.9793 21.0232 20.8162C20.9003 20.6636 20.8094 20.5321 20.748 20.4242C20.7159 20.3637 20.6865 20.3005 20.6571 20.2321C20.3471 20.5636 19.9382 20.8451 19.4305 21.074C19.3289 21.1214 19.222 21.1635 19.1125 21.2056C18.8425 21.3055 18.5085 21.4055 18.1156 21.5081C17.6667 21.6133 17.3299 21.6949 17.1055 21.7528C16.7153 21.8501 16.3839 21.9501 16.1087 22.0527C15.7559 22.1842 15.4459 22.3342 15.1787 22.5078C14.9061 22.6815 14.711 22.8656 14.5907 23.0603C14.5613 23.1129 14.5373 23.1524 14.5212 23.1761C14.4945 23.2234 14.4651 23.2602 14.4384 23.2839C14.4037 23.3181 14.3636 23.3418 14.3208 23.3523C14.27 23.3681 14.2246 23.3655 14.1872 23.3444C14.1498 23.326 14.123 23.2944 14.1017 23.2524C14.083 23.2129 14.0776 23.1708 14.083 23.1261C14.0883 23.084 14.107 23.0366 14.1337 22.984C14.1204 22.9709 14.1043 22.9577 14.083 22.9445C13.8718 22.7762 13.658 22.6473 13.4389 22.5578C13.193 22.4552 12.9499 22.4105 12.712 22.4184C12.5971 22.4184 12.4635 22.4342 12.3111 22.4684C12.068 22.5236 11.8755 22.5946 11.7366 22.6841C11.6457 22.7446 11.5682 22.813 11.5094 22.8893C11.4399 22.9735 11.3972 23.0656 11.3758 23.1603C11.3598 23.2392 11.3571 23.3286 11.3678 23.4313C11.3758 23.497 11.3918 23.5865 11.4159 23.7022C11.4453 23.8259 11.4747 23.9232 11.5014 23.9943C11.5415 24.0995 11.5896 24.1889 11.6484 24.26C11.7099 24.3389 11.8087 24.4178 11.9397 24.4994C12.1802 24.6414 12.3967 24.7125 12.5918 24.7098C12.6746 24.7098 12.7761 24.6967 12.8911 24.6704C12.9552 24.6546 13.0541 24.6309 13.1824 24.602C13.2759 24.5862 13.348 24.5862 13.3961 24.5967C13.4336 24.6072 13.463 24.6257 13.4897 24.6493C13.4977 24.6546 13.503 24.6625 13.5111 24.6704C13.5191 24.6704 13.5271 24.6704 13.5351 24.6704C13.5859 24.6809 13.618 24.7283 13.6367 24.8151L13.813 25.6675C13.8424 25.8095 13.8772 25.9121 13.9226 25.9779C13.9413 26.0042 13.9734 26.041 14.0188 26.0884C14.0643 26.1331 14.0963 26.17 14.115 26.1989C14.1444 26.2436 14.1605 26.2883 14.1605 26.3383C14.1605 26.3909 14.1418 26.433 14.107 26.462C14.0803 26.483 14.0509 26.4936 14.0135 26.4962C13.9761 26.4962 13.9413 26.4883 13.9093 26.4699C13.8611 26.4462 13.813 26.3962 13.7596 26.3225C13.6554 26.1805 13.5832 26.0568 13.5431 25.9516C13.4977 25.949 13.471 25.9463 13.4576 25.9463C13.3801 25.949 13.3026 25.9753 13.2278 26.0226C13.1583 26.0647 13.0995 26.12 13.0487 26.1857C12.9766 26.2778 12.9098 26.4251 12.843 26.6251C12.7655 26.8645 12.6933 27.1355 12.6318 27.4433C12.5918 27.6248 12.5383 27.9037 12.4688 28.2799C12.4261 28.5061 12.3967 28.6798 12.3833 28.7982C12.3566 28.9902 12.3486 29.1665 12.3539 29.3243C12.3593 29.4769 12.3886 29.7163 12.4448 30.0478C12.4715 30.1925 12.4955 30.3004 12.5196 30.3767C12.557 30.4924 12.6051 30.5898 12.6693 30.6661C12.7601 30.7766 12.8804 30.8529 13.03 30.9002C13.1743 30.9423 13.3186 30.9502 13.4656 30.9239C13.7302 30.8739 13.9787 30.7266 14.2112 30.4845C14.4117 30.2741 14.564 30.032 14.6709 29.7558C14.7778 29.4769 14.8286 29.1928 14.8179 28.906C14.8152 28.8218 14.8179 28.7561 14.8312 28.714C14.8366 28.6903 14.8446 28.6693 14.8553 28.6508L14.7912 28.5877C14.5533 28.3457 14.3689 28.1063 14.238 27.8721C14.091 27.5985 14.0268 27.3407 14.0509 27.1039C14.0589 27.0434 14.0749 26.9987 14.0963 26.9724C14.1337 26.9276 14.1818 26.9145 14.246 26.9329C14.3101 26.9461 14.3582 26.9776 14.3956 27.0276C14.4224 27.0671 14.4411 27.1197 14.4544 27.1855C14.4624 27.2223 14.4731 27.2802 14.4838 27.3591C14.5132 27.5248 14.588 27.6932 14.703 27.8616C14.7885 27.9905 14.9114 28.1326 15.0691 28.2904C15.2855 28.5088 15.486 28.6614 15.6677 28.7508C15.8842 28.856 16.1381 28.9113 16.4293 28.9113C16.6618 28.9113 16.9237 28.8771 17.2177 28.8061C17.974 28.6272 18.4764 28.322 18.733 27.8932C18.9093 27.5959 18.9762 27.2407 18.9307 26.825C18.9147 26.6593 18.8773 26.4804 18.8185 26.2883C18.7757 26.1436 18.7143 25.97 18.6368 25.7674C18.5512 25.5438 18.4684 25.3702 18.3909 25.2492C18.2733 25.0624 18.0782 24.8493 17.8056 24.6099C17.4689 24.3152 17.2578 24.1153 17.1696 24.0127C17.1162 23.9522 17.0974 23.9022 17.1108 23.8627C17.1268 23.818 17.1616 23.7996 17.2177 23.7996C17.2658 23.7996 17.3139 23.8127 17.3647 23.839C17.9179 24.1389 18.3749 24.5599 18.733 25.1018C18.904 25.3649 19.0403 25.6359 19.1418 25.9174L19.4198 25.8806L20.8175 25.2781L21.4321 24.744L21.7421 24.6625C21.9746 24.7546 22.2338 24.8309 22.5225 24.8914C22.926 24.9808 23.3269 25.0808 23.7277 25.1887C24.4386 25.3781 25.1441 25.5938 25.8469 25.8385C26.662 26.1226 27.4638 26.2226 28.2468 26.1436C28.2708 26.1068 28.2922 26.07 28.3082 26.0279C28.3537 25.9279 28.3751 25.8306 28.3777 25.7332C28.3644 25.7175 28.3537 25.699 28.3483 25.678C28.3323 25.6385 28.335 25.5938 28.359 25.5491C28.327 25.4281 28.2628 25.3228 28.1693 25.2334C28.0757 25.1439 27.9555 25.0755 27.8032 25.0308C27.6882 24.9966 27.5439 24.9756 27.3702 24.9624C27.0656 24.9466 26.8384 24.9335 26.6861 24.9229C26.4162 24.9045 26.189 24.873 26.0046 24.8282C25.8817 24.7993 25.7614 24.7598 25.6358 24.7125C25.6305 24.7125 25.6278 24.7098 25.6225 24.7072C25.6091 24.7046 25.5984 24.6993 25.5877 24.6914C25.4113 24.6204 25.2323 24.5283 25.0479 24.4178C24.8448 24.2942 24.5588 24.0916 24.19 23.8127C24.1446 23.7785 24.1152 23.7417 24.0938 23.6996C24.0671 23.6522 24.0698 23.6128 24.1019 23.5838C24.1419 23.5444 24.2088 23.5496 24.2996 23.5996C24.9036 23.9285 25.2243 24.0995 25.2617 24.1179C25.4113 24.1942 25.5583 24.26 25.7 24.31C25.7481 24.2442 25.8042 24.1653 25.871 24.0758C25.9645 23.9443 26.0394 23.8259 26.0982 23.7233C26.1676 23.6023 26.2344 23.4628 26.2986 23.3023C26.344 23.1997 26.4001 23.055 26.4669 22.8683C26.4883 22.813 26.5044 22.7656 26.5124 22.7288C26.3013 22.7104 26.0928 22.6788 25.8817 22.642C25.7694 22.6236 25.6893 22.5973 25.6412 22.5578C25.6064 22.5289 25.5824 22.492 25.569 22.4526C25.5557 22.4079 25.5583 22.3684 25.577 22.3316C25.5904 22.3079 25.6118 22.2895 25.6358 22.2763C25.4675 22.2053 25.3044 22.1264 25.1414 22.0395L24.623 21.5265L24.5054 21.0898C24.5481 20.8504 24.6497 20.6689 24.8074 20.54C24.7325 20.5031 24.6791 20.4663 24.6497 20.4347C24.6123 20.3979 24.5802 20.34 24.5482 20.2663C24.4867 20.1374 24.4573 20.0348 24.4626 19.9559C24.4626 19.8717 24.4947 19.777 24.5588 19.6691C24.5963 19.5981 24.6337 19.5455 24.6711 19.5087C24.7272 19.4508 24.8047 19.3982 24.9036 19.3561C25.0639 19.2877 25.2216 19.264 25.3793 19.285C25.5476 19.3035 25.6919 19.3719 25.8095 19.4876C25.8603 19.5376 25.9031 19.5981 25.9378 19.6691C25.9966 19.7823 26.0233 19.8901 26.0153 19.998C26.6006 19.7402 27.1778 19.4797 27.7417 19.214C28.0891 18.4695 28.4125 17.7934 28.7064 17.1856C28.7171 17.1672 28.7305 17.1514 28.7465 17.1383C29.0645 16.8962 29.4039 16.7042 29.7701 16.5621C29.7781 16.5358 29.7941 16.5148 29.8155 16.4937C29.8502 16.4674 29.909 16.4464 29.9945 16.4332C30.0774 16.4201 30.2003 16.4043 30.3633 16.3806C30.4489 16.3622 30.5397 16.3438 30.6332 16.328C30.692 16.3122 30.7455 16.2964 30.7936 16.2754C30.8203 16.2648 30.8417 16.2569 30.8604 16.2517C30.7428 16.1044 30.6092 16.0018 30.4595 15.9439M26.6407 15.4545C27.0843 15.7097 27.3729 16.0781 27.5065 16.5621C27.6348 17.0462 27.576 17.504 27.3248 17.9381C27.3114 17.9617 27.3007 17.9854 27.2874 18.0065C27.0308 18.4063 26.6674 18.6694 26.197 18.7957C25.7026 18.9246 25.235 18.8641 24.7913 18.6115C24.3477 18.359 24.0618 17.9907 23.9308 17.504C23.7972 17.0199 23.8587 16.5569 24.1152 16.1201C24.3718 15.6834 24.7459 15.4019 25.2376 15.273C25.5583 15.1862 25.8683 15.1809 26.173 15.2599C26.3307 15.3046 26.4883 15.3677 26.6407 15.4519M14.7083 12.8158C15.6383 13.0394 16.5389 13.3236 17.4155 13.6656C17.6025 13.7392 17.7896 13.8155 17.9767 13.8971C19.0296 14.347 19.7191 14.7284 20.0478 15.0468C20.3792 15.3625 20.5689 15.6782 20.617 15.9939C20.6357 16.0754 20.6304 16.1649 20.5956 16.2622C20.5502 16.3964 20.4727 16.5069 20.3578 16.5911C20.2589 16.6621 20.136 16.72 19.989 16.7594C19.8875 16.7884 19.7512 16.8147 19.5801 16.8357C19.1606 16.891 18.7356 16.9278 18.3054 16.9515C16.4267 17.0515 14.4571 16.8436 12.394 16.3306C11.8515 16.1964 11.4052 16.0544 11.0578 15.9044C10.5874 15.7018 10.2026 15.4519 9.90597 15.1573C9.60399 14.8547 9.41425 14.5364 9.34209 14.197C9.302 14.0076 9.29933 13.8208 9.34209 13.6366C9.38218 13.4419 9.46235 13.2736 9.58261 13.1341C9.70821 12.9894 9.87925 12.8763 10.0957 12.7895C10.2587 12.7237 10.4645 12.6685 10.713 12.6264C11.9504 12.4107 13.2812 12.4738 14.7083 12.8132M24.7913 14.2733C24.8288 14.2864 24.8582 14.3128 24.8795 14.347C24.9036 14.3812 24.9143 14.418 24.9196 14.4575C24.9196 14.4969 24.9089 14.5337 24.8902 14.5732C24.8715 14.61 24.8448 14.639 24.81 14.66C24.7967 14.6679 24.7726 14.6837 24.7352 14.7048C24.7031 14.7205 24.6791 14.7363 24.6631 14.7521C24.639 14.7705 24.6123 14.8074 24.5802 14.8626C24.5508 14.9178 24.5214 14.9547 24.4947 14.9757C24.4653 15.002 24.4172 15.0205 24.3531 15.031C24.2889 15.0415 24.2408 15.0389 24.2088 15.0231C24.182 15.0073 24.1607 14.9863 24.15 14.9573C24.1366 14.9284 24.1313 14.8994 24.1313 14.8705C24.1339 14.8205 24.1553 14.7626 24.1954 14.6969C24.2675 14.5758 24.3584 14.468 24.4706 14.3785C24.5882 14.2733 24.6978 14.2391 24.7913 14.2786V14.2733Z" fill="#CCB79C"/>
<path d="M24.8795 14.3469C24.8555 14.3101 24.8261 14.2864 24.7913 14.2733C24.6951 14.2364 24.5882 14.2706 24.4706 14.3732C24.3584 14.4653 24.2675 14.5705 24.1954 14.6916C24.1553 14.7547 24.1339 14.8126 24.1312 14.8652C24.1312 14.8941 24.1366 14.9257 24.1499 14.952C24.1633 14.981 24.182 15.002 24.2087 15.0178C24.2408 15.0336 24.2889 15.0362 24.353 15.0257C24.4172 15.0152 24.4653 14.9967 24.4947 14.9704C24.5214 14.952 24.5481 14.9125 24.5802 14.8573C24.6123 14.8021 24.639 14.7679 24.6631 14.7468C24.6791 14.731 24.7031 14.7152 24.7352 14.6995C24.7726 14.6758 24.7993 14.6626 24.81 14.6547C24.8448 14.6337 24.8715 14.6047 24.8902 14.5679C24.9089 14.5311 24.9196 14.4916 24.9196 14.4522C24.9169 14.4127 24.9036 14.3759 24.8795 14.3417M17.4155 13.6655C16.5389 13.3235 15.6383 13.0394 14.7083 12.8158C13.2812 12.4764 11.9504 12.4132 10.713 12.629C10.4645 12.6711 10.2587 12.7237 10.0957 12.7921C9.87923 12.8763 9.7082 12.992 9.58259 13.1367C9.46234 13.2762 9.38216 13.4445 9.34208 13.6392C9.30199 13.8234 9.30199 14.0075 9.34208 14.1996C9.41423 14.539 9.60397 14.8573 9.90596 15.1598C10.2026 15.4545 10.5874 15.7018 11.0578 15.907C11.4052 16.0596 11.8515 16.2017 12.394 16.3332C14.4544 16.8462 16.4267 17.0514 18.3054 16.9541C18.7356 16.9304 19.1605 16.8909 19.5801 16.8383C19.7511 16.8146 19.8874 16.791 19.989 16.762C20.136 16.7226 20.2589 16.6647 20.3578 16.5937C20.4727 16.5095 20.5502 16.4016 20.5956 16.2648C20.6304 16.1675 20.6357 16.078 20.617 15.9965C20.5689 15.6808 20.3792 15.3651 20.0478 15.0494C19.7191 14.7337 19.0296 14.3495 17.9767 13.8997C17.7896 13.8181 17.6025 13.7418 17.4155 13.6682M17.4689 14.1943C17.501 14.2075 17.533 14.2233 17.5705 14.2364C18.1236 14.4864 18.7998 14.8205 19.6015 15.2361C19.7832 15.3309 19.9195 15.4203 20.013 15.5019C20.1467 15.6229 20.2242 15.7544 20.2402 15.8939C20.2509 15.9649 20.2429 16.0307 20.2188 16.0964C20.1948 16.1675 20.1547 16.2227 20.1012 16.2622C20.0398 16.3122 19.9355 16.3516 19.7886 16.3753C19.2755 16.4647 18.7463 16.5226 18.2011 16.5542C16.5576 16.6463 14.7617 16.4726 12.8189 16.0359C12.3058 15.9202 11.8835 15.8018 11.5548 15.6834C11.1059 15.5176 10.7264 15.3151 10.4137 15.0757C10.069 14.8152 9.85251 14.5363 9.76165 14.2391C9.70553 14.0602 9.70018 13.8839 9.74561 13.705C9.79371 13.5182 9.88725 13.3709 10.0289 13.2656C10.1438 13.1788 10.3202 13.1104 10.5554 13.0631C11.2956 12.9052 12.0813 12.8579 12.9151 12.921C13.6714 12.9762 14.4491 13.1209 15.2508 13.3577C15.9403 13.5603 16.6805 13.8392 17.4716 14.1943M26.6406 15.4571C26.4856 15.3703 26.3306 15.3045 26.173 15.2651C25.871 15.1862 25.5583 15.1888 25.2376 15.2756C24.7432 15.4045 24.3691 15.686 24.1152 16.1227C23.8587 16.5595 23.7972 17.0199 23.9308 17.5066C24.0618 17.9906 24.3477 18.3616 24.7913 18.6115C25.2349 18.8641 25.7053 18.9246 26.197 18.7957C26.6674 18.6694 27.0308 18.4063 27.2874 18.0064C27.3007 17.9854 27.3114 17.9617 27.3248 17.938C27.576 17.5039 27.6375 17.0462 27.5065 16.5621C27.3729 16.0754 27.0843 15.7071 26.6406 15.4571ZM26.0126 15.5518C25.9752 15.5992 25.9405 15.6518 25.9084 15.7071C25.7026 16.0596 25.6545 16.4358 25.7587 16.8278C25.8656 17.2224 26.0981 17.5197 26.4562 17.7223C26.6219 17.817 26.793 17.8775 26.9693 17.9064C26.7609 18.2011 26.475 18.3958 26.1142 18.4931C25.7053 18.5984 25.3178 18.5484 24.949 18.3405C24.5829 18.1327 24.345 17.8275 24.2355 17.4224C24.1232 17.0199 24.174 16.6384 24.3878 16.278C24.5989 15.9175 24.9089 15.6834 25.3178 15.5755C25.553 15.5124 25.7855 15.5019 26.01 15.5492L26.0126 15.5518Z" fill="#4F4527"/>
<path d="M25.9082 15.7071C25.9403 15.6518 25.975 15.5992 26.0125 15.5519C25.788 15.5045 25.5555 15.5151 25.3204 15.5782C24.9115 15.6834 24.6015 15.9175 24.3904 16.2805C24.1767 16.6409 24.1259 17.0224 24.2381 17.4248C24.345 17.8273 24.5828 18.1325 24.9516 18.3429C25.3204 18.5507 25.7078 18.6033 26.1167 18.4955C26.4801 18.3981 26.7633 18.2035 26.9718 17.9089C26.7954 17.8799 26.6244 17.8194 26.4587 17.7247C26.1006 17.5222 25.8682 17.2249 25.7613 16.8303C25.6544 16.4358 25.7052 16.0622 25.9109 15.7097L25.9082 15.7071Z" fill="#FFFAF8"/>
<path d="M26.0902 13.4787C25.6145 13.3813 25.1522 13.3813 24.7059 13.4787C24.4226 13.5392 24.1581 13.6365 23.9122 13.7733C23.8935 13.7497 23.8748 13.726 23.8534 13.7023C22.8673 12.6684 21.8865 11.7792 20.9164 11.0346C20.9111 11.032 20.9084 11.0294 20.9057 11.0267C19.7967 10.1743 18.6743 9.49032 17.5385 8.97204C17.0521 8.75105 16.6218 8.58794 16.2477 8.48797C15.9992 8.4222 15.7159 8.36432 15.4006 8.31696C15.1921 8.28539 14.9062 8.24856 14.5374 8.20647C14.1712 8.16437 13.888 8.13544 13.6902 8.11702C13.3775 8.09334 13.0943 8.08545 12.843 8.08545C12.3861 8.09334 11.9344 8.14596 11.4855 8.24593C11.0365 8.34327 10.6062 8.48534 10.1893 8.67213C9.59339 8.94047 9.16847 9.2588 8.91994 9.62712C8.76494 9.85864 8.67942 10.1086 8.65804 10.3795C8.63933 10.6663 8.70347 10.9162 8.85046 11.1267C8.85046 11.132 8.8558 11.1346 8.85847 11.1372C8.43623 11.2267 8.07278 11.3372 7.77347 11.4687C7.33519 11.6581 6.98778 11.9028 6.73123 12.2027C6.48002 12.5 6.31166 12.8499 6.22881 13.2577C6.14864 13.6497 6.15933 14.0443 6.25287 14.4363C6.34373 14.8072 6.50675 15.165 6.73925 15.5071C6.96106 15.828 7.23364 16.1174 7.55701 16.3752C8.10752 16.8172 8.81839 17.1697 9.6896 17.4381C10.4459 17.6722 11.3091 17.8353 12.2792 17.9327C12.9393 17.9985 13.8212 18.0406 14.9275 18.0642C16.1488 18.0905 17.3781 18.1011 18.6155 18.0958C19.1446 18.0932 19.6737 18.0879 20.2056 18.08C20.2269 18.08 20.2483 18.08 20.2697 18.0774C20.2483 18.3405 20.251 18.5851 20.2804 18.8088C20.3044 18.9955 20.3632 19.2744 20.4648 19.6401C20.4915 19.7427 20.5182 19.8295 20.5423 19.9032C20.2163 20.2031 19.8074 20.4583 19.3183 20.6661C19.2355 20.7003 19.1526 20.7345 19.0644 20.7687C18.8186 20.8608 18.538 20.9476 18.2226 21.0318C18.0329 21.0844 17.7469 21.1528 17.3648 21.2449C16.9693 21.3396 16.6726 21.4159 16.4749 21.4738C16.1488 21.5685 15.8602 21.6711 15.6143 21.7816C15.0772 22.021 14.6549 22.3209 14.3503 22.684C14.1445 22.4998 13.9788 22.3735 13.8532 22.2999C13.6368 22.171 13.3909 22.0842 13.113 22.0394C12.8537 21.9947 12.6079 21.9894 12.3727 22.0289C12.3086 22.0368 12.1937 22.0631 12.0253 22.1052C11.873 22.1447 11.7661 22.1815 11.7073 22.2104C11.6351 22.2446 11.5576 22.2973 11.4694 22.3657C11.3144 22.4919 11.1915 22.6261 11.1033 22.7708C10.9991 22.9365 10.9483 23.1023 10.943 23.2707C10.943 23.3496 10.9563 23.4627 10.983 23.6127C11.0205 23.8074 11.0605 23.9599 11.0953 24.0704C11.1514 24.2362 11.2236 24.373 11.3118 24.4835C11.3839 24.5729 11.4855 24.665 11.6218 24.765C11.7447 24.8544 11.8623 24.9228 11.9745 24.9728C12.1723 25.0623 12.3914 25.1044 12.6319 25.1044C12.8537 25.1044 13.0755 25.0675 13.2974 24.9886C13.3401 24.9755 13.3749 24.9597 13.4069 24.9439C13.4096 25.0649 13.423 25.2228 13.4443 25.4148C13.455 25.4964 13.4631 25.5621 13.4684 25.6095C13.4149 25.6069 13.3588 25.6095 13.3 25.6226C13.1584 25.6489 13.0301 25.7095 12.9152 25.8042C12.7388 25.9515 12.5918 26.1883 12.4769 26.5119C12.4235 26.6618 12.3754 26.8302 12.3273 27.0222C12.2979 27.138 12.2605 27.309 12.2097 27.5405L12.036 28.385C11.9665 28.7349 11.9291 29.0033 11.9291 29.1901C11.9291 29.3269 11.9371 29.4795 11.9638 29.6452C11.9799 29.7504 12.0066 29.903 12.044 30.0977C12.0787 30.2819 12.1135 30.4213 12.1429 30.5186C12.191 30.6686 12.2524 30.7975 12.3273 30.9001C12.4315 31.0422 12.5705 31.1527 12.7468 31.2316C12.9152 31.3079 13.0916 31.3447 13.276 31.3447C13.4524 31.3447 13.6287 31.3079 13.8051 31.2369C13.9708 31.1737 14.1285 31.0816 14.2755 30.9632C14.5267 30.758 14.7485 30.4765 14.9382 30.1187C14.9837 30.0293 15.0264 29.9398 15.0638 29.853C15.0959 29.9188 15.1413 29.9925 15.1948 30.0688C15.3364 30.2661 15.4754 30.4134 15.6143 30.5055C15.7025 30.566 15.7961 30.6081 15.8949 30.6318C15.9992 30.6581 16.1007 30.6581 16.1943 30.6397C16.3065 30.616 16.4081 30.5634 16.5016 30.4792C16.5898 30.4002 16.6593 30.3055 16.7127 30.1898C16.7581 30.0924 16.7929 29.9819 16.8169 29.8557C16.8356 29.761 16.849 29.6452 16.857 29.5058C16.8624 29.411 16.857 29.3374 16.841 29.2874C16.9078 29.2795 16.9746 29.269 17.0441 29.2585C17.6 29.169 18.0676 28.9954 18.4418 28.7376C18.6556 28.5902 18.8346 28.4166 18.9816 28.2193C19.0912 28.0693 19.174 27.9141 19.2355 27.7536C19.3691 27.8247 19.4813 27.8746 19.5695 27.9009C19.6951 27.9378 19.8368 27.9536 19.9918 27.9536C20.1147 27.9536 20.2563 27.9378 20.4194 27.9115C20.6973 27.8641 20.9699 27.7957 21.2371 27.7089C21.3734 27.6615 21.507 27.6116 21.6406 27.5537C22.0335 27.3853 22.3969 27.1722 22.7337 26.9196C22.878 26.8144 22.9982 26.7118 23.0944 26.6066C23.1425 26.554 23.1773 26.504 23.1933 26.4619C23.2895 26.5382 23.3697 26.596 23.4312 26.6381C23.6075 26.7513 23.8213 26.8407 24.0726 26.9065C24.2329 26.9486 24.4627 26.9933 24.7674 27.0407C25.3794 27.138 25.8497 27.1933 26.1784 27.2064C26.7022 27.2301 27.1672 27.188 27.5707 27.0775C27.8273 27.0065 28.0357 26.9117 28.1988 26.7881C28.3377 26.6829 28.4607 26.5434 28.5702 26.3698C28.6932 26.1725 28.7653 25.9804 28.784 25.791C28.8802 25.7752 28.9845 25.7489 29.0914 25.7173C29.1876 25.6884 29.3265 25.6358 29.5109 25.5621C29.7354 25.4753 29.8958 25.3911 29.9973 25.3096C30.0989 25.228 30.2004 25.0991 30.302 24.9255C30.4944 24.615 30.5639 24.3519 30.5158 24.1336C30.497 24.0389 30.4436 23.9257 30.3581 23.7968C30.2886 23.6969 30.2218 23.6179 30.1576 23.5601C29.9465 23.3733 29.6392 23.2786 29.2383 23.2786C29.1448 23.2786 28.9791 23.2865 28.7466 23.3049C28.5382 23.3207 28.3751 23.3259 28.2549 23.3233C28.0545 23.3154 27.8326 23.2812 27.5895 23.218C27.4478 23.1786 27.2313 23.1128 26.9427 23.0155C26.8599 22.9865 26.8038 22.9629 26.7744 22.9444C26.7663 22.9392 26.7583 22.9339 26.7503 22.9287C26.761 22.8629 26.769 22.7997 26.777 22.7366C27.21 22.755 27.6402 22.7261 28.0678 22.655C28.8241 22.5288 29.5056 22.2736 30.1149 21.8921C30.497 21.6527 30.8258 21.3765 31.0983 21.066C31.395 20.7266 31.6088 20.3662 31.7397 19.9795C31.8627 19.6138 31.9268 19.1718 31.9268 18.6535C31.9295 17.8722 31.8065 17.2013 31.5553 16.6436C31.403 16.3016 31.1999 16.0201 30.946 15.7991C30.6601 15.5491 30.3501 15.4202 30.024 15.415C29.9839 15.415 29.8476 15.4229 29.6178 15.4439C29.4521 15.4597 29.3212 15.4544 29.217 15.4255C29.1047 15.3966 28.9925 15.3387 28.8776 15.2519C28.8081 15.1992 28.7119 15.1124 28.5916 14.9888C28.3725 14.773 28.1801 14.5968 28.0144 14.4573C27.7979 14.2732 27.5895 14.118 27.3837 13.9917C26.9801 13.7418 26.5499 13.5708 26.0902 13.4787ZM24.8983 13.8417C25.2297 13.7865 25.5611 13.7865 25.8925 13.8417C26.2158 13.897 26.5285 13.9996 26.8358 14.1522C27.1325 14.2995 27.4077 14.4837 27.6616 14.7073C27.8353 14.8599 28.0945 15.1019 28.4366 15.4308C28.7466 15.6912 29.0486 15.8412 29.3399 15.8754C29.4174 15.8859 29.6018 15.8859 29.8958 15.8754C30.1229 15.8675 30.302 15.8912 30.4302 15.9411C30.5799 15.999 30.7108 16.1016 30.8311 16.249C30.8124 16.2542 30.7883 16.2621 30.7643 16.2726C30.6574 16.3121 30.5264 16.3463 30.3714 16.37C30.1897 16.3963 30.0561 16.4147 29.9652 16.4278C29.8824 16.441 29.8236 16.4594 29.7889 16.4884C29.7621 16.5094 29.7461 16.5357 29.7381 16.5673C29.7301 16.6015 29.7327 16.6304 29.7488 16.6541C29.7675 16.683 29.8102 16.7015 29.877 16.712C30.2004 16.762 30.5184 16.7462 30.8311 16.662C30.9193 16.6383 30.9781 16.6067 31.0101 16.5673C31.0128 16.562 31.0182 16.5594 31.0208 16.5541C31.0502 16.612 31.0796 16.6751 31.109 16.7435C31.3976 17.4039 31.5366 18.0484 31.5286 18.6772C31.427 18.6956 31.3495 18.7088 31.2908 18.7167C31.1571 18.7351 31.0369 18.7404 30.93 18.7325C30.628 18.7088 30.2966 18.5667 29.9412 18.3036C29.6552 18.0932 29.4014 17.8511 29.1769 17.5802C29.1047 17.4933 29.0406 17.4618 28.9845 17.4828C28.9604 17.4933 28.9417 17.5118 28.931 17.5407C28.9203 17.5696 28.9176 17.5959 28.9257 17.6249C28.931 17.6538 28.9604 17.7012 29.0085 17.7669C29.0593 17.8301 29.1314 17.9248 29.225 18.0511C29.5109 18.4168 29.8209 18.6877 30.1603 18.864C30.3501 18.9613 30.5478 19.0297 30.7509 19.0666C30.9647 19.106 31.1705 19.106 31.3709 19.0666C31.419 19.0561 31.4645 19.0455 31.5072 19.0324C31.4645 19.4296 31.3576 19.8058 31.1892 20.1584C31.0128 20.5267 30.7803 20.8424 30.4944 21.1002C30.2859 21.287 30.0347 21.4606 29.7381 21.6132C29.5082 21.7316 29.225 21.8526 28.8909 21.9737C28.3591 22.1657 27.9075 22.2788 27.5307 22.313C27.2928 22.3341 27.0122 22.3341 26.6862 22.3078C26.3094 22.2709 26.0288 22.2446 25.839 22.2289C25.684 22.2183 25.5878 22.2473 25.5504 22.3183C25.5317 22.3551 25.529 22.3946 25.5424 22.4393C25.5557 22.4814 25.5825 22.5156 25.6145 22.5446C25.6626 22.5814 25.7428 22.6103 25.8524 22.6314C26.0635 22.6708 26.2746 22.6998 26.4831 22.7156C26.4724 22.755 26.459 22.7997 26.4376 22.855C26.3682 23.0418 26.312 23.1865 26.2693 23.2891C26.2025 23.4469 26.1357 23.5864 26.0662 23.7074C26.0074 23.81 25.9326 23.9284 25.839 24.0599C25.7722 24.1494 25.7161 24.2283 25.6707 24.2941C25.529 24.2414 25.382 24.1783 25.2297 24.102C25.1923 24.0862 24.8743 23.9126 24.2703 23.5811C24.1768 23.5311 24.11 23.5259 24.0699 23.5653C24.0378 23.5943 24.0351 23.6337 24.0619 23.6837C24.0832 23.7232 24.1153 23.76 24.1581 23.7968C24.5269 24.0757 24.8128 24.2756 25.0186 24.4019C25.203 24.5124 25.382 24.6045 25.5557 24.6755C25.5638 24.6834 25.5744 24.6887 25.5878 24.6913C25.5932 24.6913 25.5985 24.6913 25.6038 24.694C25.7268 24.7439 25.8497 24.7834 25.9726 24.8123C26.1544 24.8571 26.3815 24.8886 26.6541 24.907C26.8064 24.9176 27.0363 24.9307 27.3409 24.9465C27.5146 24.9597 27.6589 24.9833 27.7712 25.0149C27.9235 25.0596 28.0438 25.128 28.1373 25.2149C28.2308 25.3043 28.295 25.4122 28.3244 25.5332C28.303 25.5779 28.2976 25.62 28.3137 25.6621C28.3217 25.6831 28.3297 25.6989 28.3457 25.7147C28.3457 25.8121 28.3217 25.9094 28.2789 26.012C28.2175 26.1514 28.1239 26.2751 28.001 26.3777C27.8006 26.5434 27.5173 26.6592 27.1458 26.7223C26.7904 26.7855 26.3949 26.8013 25.9566 26.7723C25.6493 26.7513 25.2538 26.7039 24.7674 26.625C24.5322 26.5855 24.3505 26.5513 24.2222 26.5198C24.0244 26.4671 23.8561 26.404 23.7118 26.3277C23.6396 26.2882 23.5568 26.2356 23.4659 26.1725C23.359 26.0962 23.2815 26.0383 23.2281 26.0015C22.9261 25.7805 22.6081 25.5779 22.274 25.3911C22.1992 25.349 22.1404 25.3306 22.095 25.3385C22.0415 25.3464 21.9988 25.3806 21.9747 25.4411C21.9507 25.499 21.9507 25.5542 21.972 25.6095C22.0041 25.6884 22.0843 25.7647 22.2152 25.841C22.2526 25.862 22.3542 25.9199 22.5225 26.012C22.6508 26.0804 22.7497 26.1383 22.8272 26.1909C22.8593 26.2119 22.8994 26.2409 22.9475 26.2803C22.9368 26.2856 22.9288 26.2909 22.9181 26.2961C22.8673 26.3277 22.7631 26.4014 22.6054 26.5224C22.1484 26.8723 21.6513 27.1433 21.1115 27.3353C20.9004 27.409 20.6866 27.4721 20.4648 27.5221C20.2403 27.5747 20.0399 27.601 19.8635 27.6063C19.647 27.6116 19.4519 27.58 19.2809 27.5142C19.321 27.3169 19.3317 27.0906 19.313 26.8302C19.2622 26.2119 19.0564 25.6305 18.6983 25.0886C18.3402 24.544 17.8859 24.1231 17.3327 23.8231C17.2819 23.7968 17.2312 23.7837 17.1857 23.7837C17.1296 23.7837 17.0922 23.8021 17.0788 23.8442C17.0655 23.8863 17.0842 23.9363 17.1376 23.9968C17.2285 24.0994 17.4396 24.2993 17.7763 24.594C18.0489 24.8334 18.244 25.0465 18.3616 25.2333C18.4391 25.3517 18.5193 25.5253 18.6075 25.7489C18.6876 25.9541 18.7464 26.1278 18.7892 26.2698C18.8453 26.4619 18.8854 26.6408 18.9014 26.8065C18.9442 27.2196 18.8774 27.5747 18.7037 27.8746C18.4471 28.3035 17.942 28.6086 17.1884 28.7849C16.8944 28.8559 16.6299 28.8901 16.4 28.8901C16.1114 28.8901 15.8575 28.8375 15.6411 28.7297C15.4593 28.6402 15.2616 28.485 15.0424 28.2693C14.8874 28.114 14.7645 27.972 14.679 27.8404C14.5641 27.6721 14.4893 27.5037 14.4599 27.3379C14.4492 27.2617 14.4385 27.2011 14.4305 27.1643C14.4171 27.0985 14.3957 27.0459 14.369 27.0065C14.3343 26.9565 14.2862 26.9249 14.222 26.9118C14.1552 26.896 14.1044 26.9118 14.0697 26.9512C14.0483 26.9775 14.0323 27.0196 14.0243 27.0828C14.0002 27.3222 14.0643 27.5774 14.2113 27.8536C14.3396 28.0877 14.524 28.3245 14.7618 28.5692C14.7832 28.5902 14.8046 28.6113 14.826 28.6323C14.8153 28.6507 14.8073 28.6718 14.7993 28.6955C14.7886 28.7402 14.7832 28.8033 14.7859 28.8875C14.7966 29.1769 14.7485 29.461 14.6416 29.7373C14.5347 30.0135 14.3824 30.2556 14.1793 30.466C13.9494 30.7081 13.7009 30.8554 13.4363 30.9054C13.2867 30.9343 13.1424 30.9264 13.0007 30.8843C12.8484 30.8396 12.7281 30.7607 12.6399 30.6502C12.5758 30.5739 12.5277 30.4765 12.4903 30.3582C12.4662 30.2819 12.4422 30.174 12.4181 30.0293C12.362 29.6978 12.3299 29.4558 12.3246 29.3058C12.3193 29.148 12.3299 28.9743 12.354 28.7823C12.37 28.6639 12.3994 28.4903 12.4422 28.264C12.5117 27.8878 12.5651 27.6089 12.6025 27.43C12.6693 27.1222 12.7388 26.846 12.8163 26.6092C12.8805 26.4119 12.9499 26.2646 13.0221 26.1725C13.0729 26.1041 13.1317 26.0488 13.2012 26.0067C13.276 25.962 13.3508 25.9357 13.431 25.9331C13.4443 25.9331 13.4711 25.9331 13.5165 25.9331C13.5566 26.0436 13.6287 26.1672 13.733 26.3093C13.7864 26.3803 13.8345 26.4303 13.8799 26.454C13.912 26.4724 13.9468 26.4803 13.9842 26.4803C14.0216 26.4803 14.0537 26.4698 14.0804 26.4487C14.1151 26.4198 14.1338 26.3777 14.1338 26.3224C14.1338 26.2725 14.1151 26.2277 14.0857 26.183C14.067 26.1541 14.0349 26.1199 13.9895 26.0725C13.9441 26.0252 13.912 25.9883 13.8933 25.962C13.8479 25.8989 13.8131 25.7936 13.7837 25.6516L13.6074 24.7992C13.5913 24.7124 13.5566 24.665 13.5058 24.6545C13.4978 24.6545 13.4898 24.6545 13.4818 24.6545C13.4737 24.6466 13.4684 24.6413 13.4631 24.6334C13.4363 24.6098 13.4043 24.594 13.3695 24.5835C13.3214 24.5703 13.2493 24.5703 13.1557 24.5861C13.0248 24.6177 12.9286 24.6413 12.8618 24.6571C12.7442 24.6834 12.6453 24.6966 12.5624 24.6992C12.3674 24.6992 12.1509 24.6282 11.9104 24.4861C11.7768 24.4046 11.6805 24.3256 11.6191 24.2467C11.5603 24.1757 11.5122 24.0889 11.4721 23.9836C11.4454 23.9126 11.416 23.8126 11.3866 23.689C11.3599 23.5758 11.3438 23.4864 11.3385 23.4206C11.3278 23.3207 11.3305 23.2286 11.3465 23.1496C11.3679 23.0549 11.4133 22.9629 11.4801 22.8787C11.5416 22.7997 11.6164 22.7313 11.7073 22.6735C11.8489 22.5814 12.0387 22.5104 12.2818 22.4577C12.4342 22.4262 12.5678 22.4078 12.6827 22.4051C12.9205 22.3972 13.1637 22.4446 13.4096 22.5472C13.6287 22.6366 13.8452 22.7655 14.0537 22.9339C14.0724 22.9497 14.0911 22.9629 14.1044 22.9734C14.0777 23.026 14.0617 23.0734 14.0537 23.1154C14.0483 23.1602 14.0537 23.2023 14.0724 23.2444C14.0911 23.2865 14.1205 23.318 14.1579 23.3364C14.198 23.3549 14.2434 23.3575 14.2915 23.3417C14.3369 23.3312 14.3743 23.3075 14.4091 23.2733C14.4358 23.247 14.4652 23.2128 14.4919 23.1654C14.508 23.1391 14.532 23.0997 14.5641 23.047C14.6843 22.8524 14.8794 22.6682 15.152 22.4946C15.4193 22.3236 15.7293 22.171 16.0793 22.0394C16.3546 21.9395 16.686 21.8395 17.0762 21.7421C17.3006 21.6869 17.6374 21.6053 18.0863 21.4975C18.4792 21.3975 18.8106 21.2949 19.0831 21.1949C19.1927 21.1528 19.2996 21.1107 19.4012 21.066C19.9089 20.8398 20.3178 20.5583 20.6278 20.2242C20.6572 20.2926 20.6893 20.3583 20.7213 20.4188C20.7801 20.5267 20.871 20.6582 20.9939 20.8108C21.1275 20.9766 21.2425 21.0923 21.3387 21.1607C21.4937 21.2686 21.646 21.316 21.801 21.3054C21.8518 21.3002 21.8838 21.287 21.8999 21.2607C21.9213 21.2291 21.9159 21.1949 21.8838 21.1528C21.8651 21.1344 21.8331 21.1134 21.785 21.0871C21.7182 21.0476 21.6487 20.995 21.5819 20.9266C21.5364 20.8819 21.4776 20.8161 21.4055 20.7319C21.3066 20.6135 21.2344 20.5241 21.1837 20.4609C21.1062 20.3583 21.0447 20.2584 20.9993 20.1663C20.9431 20.0479 20.8817 19.8716 20.8175 19.6401C20.7561 19.4217 20.7133 19.256 20.6839 19.1455C20.6385 18.9613 20.6091 18.7903 20.5877 18.6404C20.5556 18.3957 20.545 18.059 20.5556 17.6354C20.5556 17.4986 20.5717 17.396 20.5957 17.325C20.6144 17.2697 20.6278 17.2329 20.6305 17.2171C20.6358 17.1776 20.6305 17.1434 20.6091 17.1198C20.5877 17.0961 20.561 17.0882 20.5263 17.0908C20.4915 17.0935 20.4648 17.1066 20.4407 17.1329C20.4113 17.1619 20.3873 17.2197 20.3659 17.3013C20.3365 17.4328 20.3125 17.5617 20.2938 17.688C20.267 17.6801 20.2376 17.6749 20.2056 17.6722C20.1681 17.667 20.1147 17.667 20.0425 17.6696C19.5562 17.6801 19.035 17.688 18.4792 17.6907C17.5198 17.6959 16.4562 17.6907 15.291 17.6775C14.0376 17.6617 13.0649 17.6222 12.3727 17.5565C11.2984 17.4539 10.3524 17.2618 9.53192 16.9803C8.76761 16.7172 8.15028 16.3884 7.67994 15.9885C7.40201 15.7517 7.17218 15.4913 6.98778 15.1992C6.79269 14.8888 6.66442 14.5678 6.60295 14.2364C6.53881 13.8865 6.55485 13.5392 6.65373 13.1998C6.75528 12.8446 6.92899 12.55 7.17752 12.3132C7.36726 12.1343 7.60778 11.9817 7.8964 11.8581C8.11821 11.766 8.39347 11.6818 8.72485 11.6029C9.72434 11.3687 10.7693 11.2582 11.8596 11.2714C12.362 11.2767 12.827 11.3109 13.2546 11.3687C13.6421 11.4214 14.075 11.5082 14.5587 11.6292C15.4006 11.8344 16.2263 12.0843 17.0307 12.379C18.399 12.8762 19.7165 13.4971 20.9806 14.239C21.2719 14.41 21.5177 14.5652 21.7155 14.7046C21.9747 14.8835 22.1992 15.0624 22.3943 15.2413C22.4958 15.336 22.5787 15.3702 22.6455 15.3439C22.6615 15.336 22.6775 15.3255 22.6882 15.315C22.6963 15.315 22.7069 15.3124 22.7203 15.3071C22.7631 15.2913 22.7978 15.265 22.8299 15.2308C23.0169 14.9993 23.188 14.8072 23.3376 14.6599C23.5354 14.4652 23.7358 14.3074 23.9363 14.1864C24.2169 14.018 24.5295 13.9075 24.8716 13.8496M17.1884 12.0054C17.0361 11.9475 16.8891 11.8923 16.7501 11.8423C16.1435 11.6239 15.5743 11.4477 15.0424 11.3135C14.051 11.0636 13.0542 10.9189 12.0467 10.882C11.0338 10.8452 10.0424 10.9189 9.07494 11.1004C9.07494 11.0793 9.06692 11.0583 9.0589 11.0346C9.00278 10.8531 8.98408 10.6689 8.99744 10.4821C9.0108 10.2901 9.06158 10.1112 9.14442 9.94808C9.30209 9.64554 9.58804 9.38245 10.0023 9.1562C10.4085 8.93521 10.9269 8.75894 11.5603 8.62477C12.0387 8.5248 12.4609 8.47218 12.827 8.46166C13.0007 8.45903 13.1985 8.46166 13.4149 8.48008C13.5325 8.48797 13.7303 8.50375 14.0056 8.53269C14.4011 8.57215 14.7031 8.60636 14.9088 8.6353C15.2429 8.68002 15.5395 8.73264 15.8014 8.79315C16.3733 8.92469 16.9826 9.14305 17.6267 9.44823C18.5594 9.88494 19.492 10.4532 20.4247 11.153C20.5503 11.2451 20.6732 11.3424 20.7988 11.4398C21.6674 12.1264 22.5894 12.9736 23.5648 13.9812C23.5648 13.9812 23.5675 13.9838 23.5701 13.9864C23.53 14.0154 23.49 14.0469 23.4499 14.0785C23.1078 14.3574 22.8566 14.6862 22.6989 15.0624C22.6749 15.0282 22.6401 14.994 22.6 14.9546C22.0656 14.4468 21.4055 13.9759 20.6225 13.5444C20.0532 13.2287 19.3103 12.8788 18.399 12.4974C17.95 12.3106 17.5438 12.1448 17.175 12.0054M26.6835 23.2286C26.7076 23.2444 26.737 23.2601 26.769 23.2759C27.079 23.4233 27.3676 23.5338 27.6322 23.6074C27.9529 23.6942 28.2549 23.7337 28.5408 23.7232C28.6076 23.7232 28.7145 23.7126 28.8589 23.6969C28.9951 23.6837 29.0994 23.6732 29.1742 23.6732C29.4254 23.6653 29.6312 23.7048 29.7889 23.7916C29.8851 23.8442 29.9626 23.9126 30.024 23.9994C30.0882 24.0915 30.1176 24.1888 30.1202 24.2888C30.1202 24.3835 30.0908 24.4914 30.0267 24.6124C29.9545 24.7492 29.877 24.8544 29.7942 24.9281C29.7087 24.9991 29.567 25.0754 29.3666 25.157C29.1074 25.2622 28.9096 25.3254 28.768 25.349C28.7546 25.349 28.7413 25.3517 28.7306 25.3543C28.7199 25.3254 28.7065 25.2964 28.6958 25.2648C28.6264 25.1149 28.5301 24.986 28.4019 24.8834C28.1667 24.6861 27.8246 24.565 27.3757 24.5282C27.3008 24.5203 27.1164 24.5124 26.8225 24.5019C26.5953 24.494 26.4136 24.4782 26.2746 24.4545C26.1998 24.4414 26.1223 24.4256 26.0448 24.4072C26.1089 24.3335 26.1731 24.252 26.2345 24.1599C26.4457 23.8521 26.598 23.539 26.6888 23.2259M16.4962 29.3111C16.4882 29.34 16.4829 29.3768 16.4829 29.4137C16.4802 29.4742 16.4749 29.5636 16.4695 29.682C16.4615 29.7846 16.4481 29.8714 16.4214 29.9425C16.392 30.0346 16.3439 30.1109 16.2825 30.174C16.213 30.2424 16.1355 30.2845 16.05 30.2924C15.9243 30.3108 15.7881 30.2608 15.6384 30.1477C15.5155 30.053 15.4139 29.9425 15.3257 29.8162C15.2616 29.7241 15.2081 29.6241 15.1681 29.5215C15.2188 29.3242 15.2402 29.1374 15.2295 28.9559C15.299 29.0059 15.3685 29.048 15.4353 29.0822C15.7346 29.2348 16.0874 29.3084 16.4936 29.3058L16.4962 29.3111Z" fill="#4F4527"/>
</svg>
