<svg xmlns="http://www.w3.org/2000/svg" width="38" height="38" viewBox="0 0 38 38" fill="none">
<path d="M37.5 19C37.5 29.2173 29.2173 37.5 19 37.5C8.78273 37.5 0.5 29.2173 0.5 19C0.5 8.78273 8.78273 0.5 19 0.5C29.2173 0.5 37.5 8.78273 37.5 19Z" fill="white" stroke="#009FDE"/>
<path d="M29.2465 25.5233H20.02L25.1259 20.3949L29.3278 16.1729C29.7595 15.7318 30.0009 15.1377 30 14.519C29.9991 13.9005 29.7559 13.307 29.3229 12.8673L24.165 7.6897C23.7322 7.25003 23.1428 7.00184 22.5274 7H22.5205C21.9018 6.99939 21.3085 7.24776 20.8732 7.6897L16.6862 11.8967L7.6815 20.9416C7.24512 21.3808 7 21.9761 7 22.5968C7 23.2176 7.24515 23.8128 7.6815 24.2521L10.2016 26.7843C10.207 26.7897 10.2144 26.7911 10.2198 26.7961C10.2844 26.8587 10.3601 26.9088 10.4429 26.9439L10.4566 26.9478V26.9479C10.5414 26.9818 10.6319 26.9995 10.7233 27H18.2322H18.2425H18.2534H29.2467C29.5095 27 29.7523 26.8592 29.8836 26.6305C30.015 26.402 30.015 26.1202 29.8836 25.8916C29.7523 25.663 29.5095 25.5221 29.2467 25.5221L29.2465 25.5233ZM8.4708 22.5969C8.47049 22.3696 8.56058 22.1514 8.72085 21.9909L17.2078 13.4634L23.5766 19.8627L17.9407 25.5232H11.0238L8.71941 23.2049C8.55833 23.0442 8.46864 22.825 8.47079 22.597L8.4708 22.5969Z" fill="#009FDE" stroke="#009FDE" stroke-width="0.25"/>
</svg>
