<svg width="36" height="36" viewBox="0 0 36 36" fill="none" xmlns="http://www.w3.org/2000/svg">
<path d="M35.5 18C35.5 27.665 27.665 35.5 18 35.5C8.33502 35.5 0.5 27.665 0.5 18C0.5 8.33502 8.33502 0.5 18 0.5C27.665 0.5 35.5 8.33502 35.5 18Z" fill="#7BC8EF" stroke="#7BC8EF"/>
<path d="M11.7396 28.5335C11.7573 28.7961 11.9754 29 12.2385 29H24.1228C24.3859 29 24.604 28.7961 24.6217 28.5335L25.7065 12.3927C25.7242 12.1301 25.9423 11.9262 26.2054 11.9262H26.8613C27.1375 11.9262 27.3613 11.7024 27.3613 11.4262V10.7468C27.3613 10.4707 27.1375 10.2468 26.8613 10.2468H22.4033C22.1272 10.2468 21.9033 10.023 21.9033 9.74682V7.5C21.9033 7.22386 21.6794 7 21.4033 7H14.958C14.6819 7 14.458 7.22386 14.458 7.5V9.74682C14.458 10.023 14.2342 10.2468 13.958 10.2468H9.5C9.22386 10.2468 9 10.4707 9 10.7468V11.4262C9 11.7024 9.22386 11.9262 9.5 11.9262H10.1559C10.4191 11.9262 10.6372 12.1301 10.6548 12.3927L11.7396 28.5335ZM23.0815 26.8533C23.0642 27.1162 22.846 27.3206 22.5825 27.3206H13.8059C13.5428 27.3206 13.3247 27.1167 13.307 26.8542L12.3387 12.4598C12.3193 12.1711 12.5482 11.9262 12.8376 11.9262H23.5247C23.8137 11.9262 24.0426 12.1705 24.0237 12.4589L23.0815 26.8533ZM16.1374 9.17939C16.1374 8.90325 16.3612 8.67939 16.6374 8.67939H19.7239C20 8.67939 20.2239 8.90325 20.2239 9.17939V9.74681C20.2239 10.0229 20 10.2468 19.7239 10.2468L16.6374 10.2469C16.3612 10.2469 16.1374 10.023 16.1374 9.74688V9.17939Z" fill="white"/>
<path d="M19.7156 24.92C19.4396 24.9118 19.2225 24.6814 19.2307 24.4053L19.524 14.5218C19.5322 14.2457 19.7626 14.0286 20.0386 14.0368L20.7177 14.057C20.9937 14.0652 21.2108 14.2956 21.2027 14.5716L20.9093 24.4552C20.9011 24.7312 20.6707 24.9483 20.3947 24.9401L19.7156 24.92Z" fill="white"/>
<path d="M15.1298 14.5828C15.1216 14.3068 15.3387 14.0764 15.6148 14.0682L16.2939 14.048C16.5699 14.0398 16.8003 14.257 16.8085 14.533L17.1019 24.4194C17.1101 24.6954 16.893 24.9258 16.617 24.934L15.9379 24.9541C15.6618 24.9623 15.4314 24.7452 15.4233 24.4692L15.1298 14.5828Z" fill="white"/>
</svg>
