<svg width="81" height="73" viewBox="0 0 81 73" fill="none" xmlns="http://www.w3.org/2000/svg">
<path d="M74.3005 52.8777C74.5611 52.6465 74.8049 52.3162 75.0318 51.8868C75.2336 51.507 75.3344 51.1685 75.326 50.8712C75.326 50.5575 75.2251 50.252 75.0234 49.963C74.8385 49.6987 74.5947 49.4758 74.2921 49.3107C73.7962 49.0382 73.1573 48.9143 72.3588 48.9391C72.1318 48.9391 71.7956 48.9639 71.3669 49.0134C70.9129 49.063 70.5851 49.096 70.375 49.096C69.4755 49.129 68.5173 49.0052 67.5086 48.7327C66.6764 48.5097 65.777 48.1629 64.7935 47.7006C64.6926 47.651 64.6001 47.6015 64.5245 47.5519C64.2387 48.5345 63.7596 49.5088 63.1039 50.4832C62.9106 50.7722 62.7088 51.0364 62.4987 51.2593C62.7509 51.3171 62.9946 51.3749 63.2216 51.4162C63.6587 51.4905 64.2387 51.5318 64.9448 51.5566C65.8778 51.5896 66.4578 51.6144 66.7016 51.6391C68.1054 51.7547 69.1813 52.1263 69.9211 52.7538C70.3161 53.0758 70.6271 53.4804 70.8457 53.9511C70.8877 54.0419 70.9214 54.1327 70.955 54.2236C70.997 54.2236 71.039 54.2153 71.0811 54.2071C71.5182 54.1327 72.1486 53.9263 72.9556 53.6043C73.586 53.3483 74.0315 53.1089 74.3005 52.8859M29.1526 65.9237C28.9341 65.8164 28.7155 65.6843 28.497 65.5274C28.5222 66.0971 28.4633 66.6916 28.3036 67.3026C28.4297 67.6247 28.5978 67.9302 28.7996 68.2192C29.0686 68.6238 29.3964 68.9705 29.7831 69.2595C30.2454 69.6228 30.6825 69.7715 31.0776 69.7137C31.3466 69.6889 31.5987 69.5568 31.8089 69.3421C32.0022 69.1439 32.1535 68.9045 32.246 68.6155C32.3216 68.3926 32.3721 68.1201 32.3973 67.7981C32.4141 67.4182 32.4225 67.1375 32.4309 66.9476C32.4309 66.8237 32.4477 66.7164 32.4729 66.6256C31.1953 66.6338 30.0857 66.4026 29.1442 65.9237M46.0316 10.5276C45.6365 10.2138 45.2499 9.91659 44.8548 9.6276C41.9211 7.42298 38.9875 5.63948 36.0538 4.26882C34.0196 3.31101 32.1115 2.62568 30.3126 2.21283C29.4805 2.02292 28.5474 1.85778 27.4967 1.71741C26.841 1.63484 25.8912 1.5275 24.6471 1.40364C23.7813 1.32107 23.1677 1.26327 22.7978 1.24676C22.1085 1.18896 21.4865 1.16419 20.9485 1.17245C19.7885 1.19722 18.4604 1.37061 16.9641 1.68438C14.9804 2.10549 13.3412 2.66696 12.0635 3.35229C10.7606 4.07065 9.86118 4.89635 9.36524 5.8459C9.10466 6.35783 8.94494 6.91931 8.89451 7.52207C8.85248 8.10831 8.91973 8.67805 9.08784 9.24778C9.11306 9.32209 9.12987 9.38815 9.13828 9.4542C12.1812 8.88447 15.2914 8.65327 18.4856 8.76887C21.6546 8.88447 24.79 9.3386 27.9086 10.123C29.5813 10.5441 31.3718 11.1056 33.2715 11.7909C33.7086 11.9478 34.1709 12.1212 34.6501 12.3029C35.8101 12.7405 37.0962 13.2524 38.5084 13.8469C41.3748 15.0442 43.7032 16.1341 45.502 17.1332C45.7038 17.2488 45.9139 17.3561 46.1157 17.4717C48.3096 18.7351 50.1757 20.0975 51.7224 21.5507C51.8485 21.6663 51.9493 21.7819 52.0334 21.8975C52.5293 20.7085 53.3111 19.6763 54.387 18.8011C54.5131 18.702 54.6392 18.6029 54.7653 18.5121C54.7569 18.5121 54.7485 18.5039 54.7401 18.4956C53.8575 17.5873 52.9832 16.7203 52.1343 15.8946C50.016 13.8469 47.9818 12.0552 46.0316 10.5194V10.5276Z" fill="#B7A287"/>
<path d="M74.3005 52.8777C74.5611 52.6465 74.8049 52.3162 75.0318 51.8868C75.2336 51.507 75.3344 51.1685 75.326 50.8712C75.326 50.5575 75.2251 50.252 75.0234 49.963C74.8385 49.6987 74.5947 49.4758 74.2921 49.3107C73.7962 49.0382 73.1573 48.9143 72.3588 48.9391C72.1318 48.9391 71.7956 48.9639 71.3669 49.0134C70.9129 49.063 70.5851 49.096 70.375 49.096C69.4755 49.129 68.5173 49.0052 67.5086 48.7327C66.6764 48.5097 65.777 48.1629 64.7935 47.7006C64.6926 47.651 64.6001 47.6015 64.5245 47.5519C64.2387 48.5345 63.7596 49.5088 63.1039 50.4832C62.9106 50.7722 62.7088 51.0364 62.4987 51.2593C62.7509 51.3171 62.9946 51.3749 63.2216 51.4162C63.6587 51.4905 64.2387 51.5318 64.9448 51.5566C65.8778 51.5896 66.4578 51.6144 66.7016 51.6391C68.1054 51.7547 69.1813 52.1263 69.9211 52.7538C70.3161 53.0758 70.6271 53.4804 70.8457 53.9511C70.8877 54.0419 70.9214 54.1327 70.955 54.2236C70.997 54.2236 71.039 54.2153 71.0811 54.2071C71.5182 54.1327 72.1486 53.9263 72.9556 53.6043C73.586 53.3483 74.0315 53.1089 74.3005 52.8859M29.1526 65.9237C28.9341 65.8164 28.7155 65.6843 28.497 65.5274C28.5222 66.0971 28.4633 66.6916 28.3036 67.3026C28.4297 67.6247 28.5978 67.9302 28.7996 68.2192C29.0686 68.6238 29.3964 68.9705 29.7831 69.2595C30.2454 69.6228 30.6825 69.7715 31.0776 69.7137C31.3466 69.6889 31.5987 69.5568 31.8089 69.3421C32.0022 69.1439 32.1535 68.9045 32.246 68.6155C32.3216 68.3926 32.3721 68.1201 32.3973 67.7981C32.4141 67.4182 32.4225 67.1375 32.4309 66.9476C32.4309 66.8237 32.4477 66.7164 32.4729 66.6256C31.1953 66.6338 30.0857 66.4026 29.1442 65.9237M46.0316 10.5276C45.6365 10.2138 45.2499 9.91659 44.8548 9.6276C41.9211 7.42298 38.9875 5.63948 36.0538 4.26882C34.0196 3.31101 32.1115 2.62568 30.3126 2.21283C29.4805 2.02292 28.5474 1.85778 27.4967 1.71741C26.841 1.63484 25.8912 1.5275 24.6471 1.40364C23.7813 1.32107 23.1677 1.26327 22.7978 1.24676C22.1085 1.18896 21.4865 1.16419 20.9485 1.17245C19.7885 1.19722 18.4604 1.37061 16.9641 1.68438C14.9804 2.10549 13.3412 2.66696 12.0635 3.35229C10.7606 4.07065 9.86118 4.89635 9.36524 5.8459C9.10466 6.35783 8.94494 6.91931 8.89451 7.52207C8.85248 8.10831 8.91973 8.67805 9.08784 9.24778C9.11306 9.32209 9.12987 9.38815 9.13828 9.4542C12.1812 8.88447 15.2914 8.65327 18.4856 8.76887C21.6546 8.88447 24.79 9.3386 27.9086 10.123C29.5813 10.5441 31.3718 11.1056 33.2715 11.7909C33.7086 11.9478 34.1709 12.1212 34.6501 12.3029C35.8101 12.7405 37.0962 13.2524 38.5084 13.8469C41.3748 15.0442 43.7032 16.1341 45.502 17.1332C45.7038 17.2488 45.9139 17.3561 46.1157 17.4717C48.3096 18.7351 50.1757 20.0975 51.7224 21.5507C51.8485 21.6663 51.9493 21.7819 52.0334 21.8975C52.5293 20.7085 53.3111 19.6763 54.387 18.8011C54.5131 18.702 54.6392 18.6029 54.7653 18.5121C54.7569 18.5121 54.7485 18.5039 54.7401 18.4956C53.8575 17.5873 52.9832 16.7203 52.1343 15.8946C50.016 13.8469 47.9818 12.0552 46.0316 10.5194V10.5276Z" stroke="#B7A287" stroke-width="0.25"/>
<path d="M51.3945 52.7373C50.4866 52.5474 49.6629 52.3079 48.9399 52.0189L47.9649 52.2749L46.0315 53.9511L41.6353 55.8419L40.761 55.9575C41.0973 56.8906 41.3158 57.8566 41.4083 58.864C41.4671 59.6814 41.4335 60.3915 41.3074 61.0108C41.837 61.2255 42.4506 61.3246 43.1399 61.3081C43.6947 61.2915 44.3167 61.209 45.0312 61.0438C45.7289 60.8787 46.4098 60.6805 47.0738 60.4493C48.7634 59.8466 50.3269 58.9961 51.7643 57.8979C52.2603 57.5181 52.5881 57.2786 52.7478 57.1878C52.773 57.1713 52.8066 57.1465 52.8319 57.13C52.6721 57.0062 52.5461 56.9153 52.4536 56.8575C52.2182 56.7007 51.8988 56.5107 51.4953 56.2961C50.9658 56.0071 50.6379 55.8254 50.5287 55.7511C50.1168 55.5199 49.8646 55.2722 49.7637 55.0327C49.6965 54.8593 49.6965 54.686 49.7637 54.5043C49.8478 54.3144 49.9823 54.207 50.1504 54.1823C50.2933 54.1575 50.4782 54.2153 50.7136 54.3557C51.7643 54.9419 52.7646 55.5777 53.7061 56.2713C53.8742 56.3951 54.1264 56.5768 54.4626 56.8163C54.7484 57.0144 55.009 57.1796 55.2275 57.3117C55.547 57.4851 55.9 57.6254 56.2951 57.7575C56.4716 57.8153 56.6565 57.8649 56.8415 57.9227C57.2365 58.0135 57.8081 58.1209 58.5478 58.2447C60.0777 58.4924 61.3302 58.6493 62.2969 58.7071C63.6754 58.7979 64.9195 58.7484 66.0291 58.5585C67.1975 58.3603 68.0969 57.997 68.7189 57.4686C68.9879 57.2374 69.2149 56.9731 69.3914 56.6841C66.9285 56.9319 64.4067 56.6098 61.8429 55.7263C59.6322 54.9584 57.4131 54.2814 55.1771 53.6869C53.9162 53.3483 52.6553 53.0346 51.3861 52.7538M76.1497 26.0094C76.4103 25.9682 76.6541 25.9186 76.881 25.8608C76.5868 25.9104 76.3094 25.9599 76.032 26.026C76.0741 26.026 76.1077 26.0177 76.1497 26.0094ZM70.9549 28.3957C70.9045 28.437 70.8624 28.4865 70.8288 28.5443C69.9042 30.4517 68.8955 32.5737 67.7943 34.9105C66.0207 35.7444 64.205 36.5619 62.3641 37.3711C62.3641 37.4123 62.3557 37.4619 62.3389 37.5114C62.2716 37.8912 62.0783 38.2298 61.7505 38.5435C61.305 38.9729 60.725 39.2454 60.0021 39.3692C59.7079 39.4105 59.4641 39.4105 59.2623 39.3692C59.1363 39.3445 58.9261 39.2619 58.6487 39.1215C58.6235 39.105 58.5899 39.0885 58.5731 39.072C58.0771 39.4683 57.7577 40.0463 57.6232 40.7977L57.9931 42.1684L59.6238 43.7785C60.1281 44.0427 60.6493 44.2904 61.1789 44.5216C61.3386 44.4308 61.5824 44.3895 61.9018 44.4143C62.4902 44.4638 63.3728 44.5546 64.558 44.6702C65.5836 44.7445 66.4746 44.7528 67.2143 44.6867C68.3995 44.5794 69.8285 44.2244 71.5013 43.6133C72.552 43.2335 73.443 42.8537 74.1575 42.4821C75.099 41.995 75.8891 41.4583 76.5364 40.872C77.4358 40.0546 78.1671 39.072 78.7219 37.916C79.2599 36.8096 79.5877 35.6288 79.7222 34.3738C79.5877 34.4151 79.4448 34.4481 79.3019 34.4811C78.6799 34.605 78.0242 34.605 77.3518 34.4811C76.7129 34.3655 76.0909 34.1591 75.5025 33.8453C74.4349 33.2921 73.4514 32.4416 72.5604 31.2939C72.2662 30.8976 72.0393 30.5921 71.8795 30.3939C71.7282 30.1792 71.6358 30.0306 71.6106 29.9398C71.5937 29.8572 71.6021 29.7664 71.6358 29.6755C71.6694 29.5847 71.7282 29.5269 71.8039 29.4939C71.9804 29.4196 72.1737 29.5269 72.4091 29.7994C73.1152 30.6499 73.9138 31.4095 74.8132 32.0701C75.9312 32.8875 76.9651 33.3416 77.9149 33.416C78.2512 33.4325 78.6379 33.416 79.0581 33.3664C79.2431 33.3416 79.4952 33.3004 79.8147 33.2343C79.8399 31.2609 79.3944 29.2462 78.4949 27.1737C78.4025 26.959 78.3016 26.7691 78.2176 26.5874C78.2092 26.5957 78.1923 26.6039 78.1839 26.6122C78.0831 26.7361 77.8981 26.8434 77.6123 26.9177C76.6373 27.1819 75.637 27.2397 74.6198 27.0828C74.4013 27.0416 74.2668 26.9755 74.208 26.8929C74.1575 26.8186 74.1491 26.7278 74.1743 26.6205C74.1743 26.6122 74.1743 26.5957 74.1743 26.5874C73.0227 27.0333 71.9552 27.6361 70.9549 28.3957ZM35.8436 19.313C35.7343 19.2635 35.6251 19.2222 35.5242 19.1809C33.0361 18.0745 30.7076 17.1992 28.5389 16.5552C26.0172 15.8203 23.5626 15.3579 21.1922 15.1845C18.5696 14.9864 16.0982 15.1267 13.7698 15.6304C13.0217 15.779 12.4669 15.9937 12.1139 16.2662C11.6684 16.5965 11.3742 17.0506 11.2228 17.6451C11.0799 18.1983 11.0968 18.7598 11.2733 19.3213C11.5591 20.2543 12.2484 21.1296 13.3243 21.947C14.3078 22.6984 15.5014 23.3259 16.9136 23.8544C17.9475 24.2259 19.2757 24.5975 20.8896 24.9608C27.0091 26.3315 32.6494 26.8764 37.819 26.5874C39.5338 26.4966 41.1981 26.3067 42.8121 26.026C43.2744 25.9516 43.6022 25.836 43.7956 25.6709C43.9721 25.5471 44.0898 25.3737 44.1654 25.1507C44.2411 24.9525 44.2663 24.7379 44.2327 24.5149C44.1738 24.0773 43.9385 23.6645 43.5182 23.2846C43.224 23.0287 42.7953 22.7479 42.2237 22.4507C39.7019 21.1461 37.5752 20.0974 35.8352 19.313H35.8436Z" fill="#EBCFAC"/>
<path d="M51.3945 52.7373C50.4866 52.5474 49.6629 52.3079 48.9399 52.0189L47.9649 52.2749L46.0315 53.9511L41.6353 55.8419L40.761 55.9575C41.0973 56.8906 41.3158 57.8566 41.4083 58.864C41.4671 59.6814 41.4335 60.3915 41.3074 61.0108C41.837 61.2255 42.4506 61.3246 43.1399 61.3081C43.6947 61.2915 44.3167 61.209 45.0312 61.0438C45.7289 60.8787 46.4098 60.6805 47.0738 60.4493C48.7634 59.8466 50.3269 58.9961 51.7643 57.8979C52.2603 57.5181 52.5881 57.2786 52.7478 57.1878C52.773 57.1713 52.8066 57.1465 52.8319 57.13C52.6721 57.0062 52.5461 56.9153 52.4536 56.8575C52.2182 56.7007 51.8988 56.5107 51.4953 56.2961C50.9658 56.0071 50.6379 55.8254 50.5287 55.7511C50.1168 55.5199 49.8646 55.2722 49.7637 55.0327C49.6965 54.8593 49.6965 54.686 49.7637 54.5043C49.8478 54.3144 49.9823 54.207 50.1504 54.1823C50.2933 54.1575 50.4782 54.2153 50.7136 54.3557C51.7643 54.9419 52.7646 55.5777 53.7061 56.2713C53.8742 56.3951 54.1264 56.5768 54.4626 56.8163C54.7484 57.0144 55.009 57.1796 55.2275 57.3117C55.547 57.4851 55.9 57.6254 56.2951 57.7575C56.4716 57.8153 56.6565 57.8649 56.8415 57.9227C57.2365 58.0135 57.8081 58.1209 58.5478 58.2447C60.0777 58.4924 61.3302 58.6493 62.2969 58.7071C63.6754 58.7979 64.9195 58.7484 66.0291 58.5585C67.1975 58.3603 68.0969 57.997 68.7189 57.4686C68.9879 57.2374 69.2149 56.9731 69.3914 56.6841C66.9285 56.9319 64.4067 56.6098 61.8429 55.7263C59.6322 54.9584 57.4131 54.2814 55.1771 53.6869C53.9162 53.3483 52.6553 53.0346 51.3861 52.7538M76.1497 26.0094C76.4103 25.9682 76.6541 25.9186 76.881 25.8608C76.5868 25.9104 76.3094 25.9599 76.032 26.026C76.0741 26.026 76.1077 26.0177 76.1497 26.0094ZM70.9549 28.3957C70.9045 28.437 70.8624 28.4865 70.8288 28.5443C69.9042 30.4517 68.8955 32.5737 67.7943 34.9105C66.0207 35.7444 64.205 36.5619 62.3641 37.3711C62.3641 37.4123 62.3557 37.4619 62.3389 37.5114C62.2716 37.8912 62.0783 38.2298 61.7505 38.5435C61.305 38.9729 60.725 39.2454 60.0021 39.3692C59.7079 39.4105 59.4641 39.4105 59.2623 39.3692C59.1363 39.3445 58.9261 39.2619 58.6487 39.1215C58.6235 39.105 58.5899 39.0885 58.5731 39.072C58.0771 39.4683 57.7577 40.0463 57.6232 40.7977L57.9931 42.1684L59.6238 43.7785C60.1281 44.0427 60.6493 44.2904 61.1789 44.5216C61.3386 44.4308 61.5824 44.3895 61.9018 44.4143C62.4902 44.4638 63.3728 44.5546 64.558 44.6702C65.5836 44.7445 66.4746 44.7528 67.2143 44.6867C68.3995 44.5794 69.8285 44.2244 71.5013 43.6133C72.552 43.2335 73.443 42.8537 74.1575 42.4821C75.099 41.995 75.8891 41.4583 76.5364 40.872C77.4358 40.0546 78.1671 39.072 78.7219 37.916C79.2599 36.8096 79.5877 35.6288 79.7222 34.3738C79.5877 34.4151 79.4448 34.4481 79.3019 34.4811C78.6799 34.605 78.0242 34.605 77.3518 34.4811C76.7129 34.3655 76.0909 34.1591 75.5025 33.8453C74.4349 33.2921 73.4514 32.4416 72.5604 31.2939C72.2662 30.8976 72.0393 30.5921 71.8795 30.3939C71.7282 30.1792 71.6358 30.0306 71.6106 29.9398C71.5937 29.8572 71.6021 29.7664 71.6358 29.6755C71.6694 29.5847 71.7282 29.5269 71.8039 29.4939C71.9804 29.4196 72.1737 29.5269 72.4091 29.7994C73.1152 30.6499 73.9138 31.4095 74.8132 32.0701C75.9312 32.8875 76.9651 33.3416 77.9149 33.416C78.2512 33.4325 78.6379 33.416 79.0581 33.3664C79.2431 33.3416 79.4952 33.3004 79.8147 33.2343C79.8399 31.2609 79.3944 29.2462 78.4949 27.1737C78.4025 26.959 78.3016 26.7691 78.2176 26.5874C78.2092 26.5957 78.1923 26.6039 78.1839 26.6122C78.0831 26.7361 77.8981 26.8434 77.6123 26.9177C76.6373 27.1819 75.637 27.2397 74.6198 27.0828C74.4013 27.0416 74.2668 26.9755 74.208 26.8929C74.1575 26.8186 74.1491 26.7278 74.1743 26.6205C74.1743 26.6122 74.1743 26.5957 74.1743 26.5874C73.0227 27.0333 71.9552 27.6361 70.9549 28.3957ZM35.8436 19.313C35.7343 19.2635 35.6251 19.2222 35.5242 19.1809C33.0361 18.0745 30.7076 17.1992 28.5389 16.5552C26.0172 15.8203 23.5626 15.3579 21.1922 15.1845C18.5696 14.9864 16.0982 15.1267 13.7698 15.6304C13.0217 15.779 12.4669 15.9937 12.1139 16.2662C11.6684 16.5965 11.3742 17.0506 11.2228 17.6451C11.0799 18.1983 11.0968 18.7598 11.2733 19.3213C11.5591 20.2543 12.2484 21.1296 13.3243 21.947C14.3078 22.6984 15.5014 23.3259 16.9136 23.8544C17.9475 24.2259 19.2757 24.5975 20.8896 24.9608C27.0091 26.3315 32.6494 26.8764 37.819 26.5874C39.5338 26.4966 41.1981 26.3067 42.8121 26.026C43.2744 25.9516 43.6022 25.836 43.7956 25.6709C43.9721 25.5471 44.0898 25.3737 44.1654 25.1507C44.2411 24.9525 44.2663 24.7379 44.2327 24.5149C44.1738 24.0773 43.9385 23.6645 43.5182 23.2846C43.224 23.0287 42.7953 22.7479 42.2237 22.4507C39.7019 21.1461 37.5752 20.0974 35.8352 19.313H35.8436Z" stroke="#EBCFAC" stroke-width="0.25"/>
<path d="M61.725 35.7694C61.3552 35.4062 60.9097 35.1915 60.3718 35.1337C59.8759 35.0759 59.38 35.1502 58.8757 35.3566C58.5563 35.497 58.3125 35.6538 58.1444 35.8355C58.0267 35.9511 57.9091 36.1162 57.7914 36.3391C57.5897 36.6776 57.4888 36.9748 57.4888 37.239C57.4804 37.4867 57.5729 37.8087 57.7578 38.2132C57.8586 38.4444 57.9679 38.626 58.0772 38.7416C58.1696 38.8489 58.3377 38.9563 58.5731 39.0718C58.5983 39.0884 58.6235 39.1049 58.6487 39.1214C58.9261 39.2617 59.1278 39.336 59.2623 39.3691C59.464 39.4103 59.7078 39.4021 60.0019 39.3691C60.7164 39.2452 61.3047 38.9728 61.7502 38.5435C62.078 38.2297 62.2713 37.8912 62.3386 37.5115C62.347 37.4619 62.3554 37.4124 62.3638 37.3711C62.389 37.0409 62.3049 36.6941 62.12 36.3391C62.0108 36.1162 61.8763 35.9263 61.7166 35.7694H61.725Z" fill="#F36F41"/>
<path d="M76.3346 24.6638C75.9227 24.5069 75.3596 24.4326 74.6451 24.4491C73.7288 24.4738 73.1404 24.4738 72.8966 24.4491C71.9804 24.3335 71.0305 23.8711 70.0555 23.0536C68.9711 22.0215 68.1557 21.2619 67.6093 20.783C66.8024 20.0811 65.9366 19.5031 65.0119 19.0407C64.0453 18.5618 63.0534 18.2398 62.0363 18.0664C60.9939 17.893 59.9516 17.893 58.9009 18.0664C57.8249 18.2481 56.8498 18.6031 55.9588 19.1316C55.3284 19.5031 54.6979 19.9986 54.0759 20.6096C53.5968 21.0802 53.0672 21.683 52.4704 22.4096C52.3695 22.5252 52.2518 22.5995 52.1258 22.649C52.0837 22.6656 52.0585 22.6738 52.0333 22.6738C51.9913 22.7151 51.9492 22.7481 51.8904 22.7729C51.6886 22.8555 51.4281 22.7481 51.1171 22.4509C50.5034 21.8894 49.7889 21.3279 48.9736 20.7665C48.3431 20.3371 47.5782 19.8499 46.6619 19.305C46.3257 19.1068 45.9811 18.9169 45.6532 18.727C41.9799 16.6462 38.172 14.8957 34.2381 13.4673C31.6995 12.5425 29.1021 11.7581 26.4543 11.114C24.9328 10.7342 23.571 10.4617 22.3522 10.2966C20.9988 10.1149 19.5362 10.0159 17.9643 9.99109C14.5347 9.9498 11.2481 10.2966 8.10426 11.0315C7.06193 11.2792 6.18772 11.5434 5.49844 11.8324C4.5822 12.2205 3.82568 12.6911 3.23727 13.2609C2.45552 14.004 1.90073 14.9288 1.58131 16.0435C1.2787 17.1086 1.21986 18.1985 1.4216 19.305C1.61494 20.3371 2.02682 21.3444 2.63204 22.3188C3.20364 23.2353 3.93495 24.061 4.80916 24.7959C6.28019 26.0509 8.22194 27.0913 10.626 27.9087C13.215 28.784 16.1907 29.3867 19.5699 29.717C21.747 29.9235 24.8151 30.0473 28.7575 30.0968C32.4224 30.1464 35.7679 30.1546 38.7857 30.1299C40.5341 30.1216 42.1732 30.0968 43.7031 30.0638C43.93 30.0556 44.0982 30.0638 44.2242 30.0638C44.3167 30.0803 44.4092 30.0968 44.4932 30.1134C44.5521 29.7253 44.6277 29.3207 44.7202 28.9078C44.779 28.6519 44.8631 28.4702 44.9471 28.3794C45.0228 28.2968 45.1153 28.2555 45.2161 28.2473C45.3254 28.239 45.4179 28.2721 45.4851 28.3464C45.544 28.4207 45.5692 28.5198 45.5524 28.6436C45.544 28.7014 45.5103 28.817 45.4515 28.9904C45.3674 29.2133 45.3254 29.5436 45.317 29.9647C45.2834 31.3024 45.317 32.351 45.4263 33.1272C45.4851 33.6061 45.586 34.1345 45.7289 34.7125C45.813 35.0593 45.9474 35.5795 46.1492 36.2648C46.3425 36.9914 46.5359 37.5446 46.7208 37.9162C46.8637 38.2135 47.057 38.519 47.3008 38.8492C47.4521 39.0474 47.6875 39.3364 47.9901 39.6997C48.217 39.9639 48.402 40.1704 48.5533 40.3107C48.7718 40.5254 48.982 40.6906 49.1837 40.8227C49.335 40.897 49.4443 40.963 49.5031 41.0208C49.6124 41.1447 49.6292 41.2603 49.5536 41.3594C49.5115 41.4419 49.4107 41.4832 49.2425 41.4997C48.755 41.541 48.2675 41.3841 47.7883 41.0456C47.4857 40.8309 47.1243 40.4676 46.704 39.9557C46.3173 39.4768 46.0315 39.0639 45.8382 38.7254C45.7373 38.5355 45.6448 38.3373 45.5524 38.1226C44.5773 39.163 43.2912 40.0465 41.6941 40.7649C41.3747 40.9135 41.0384 41.0456 40.6938 41.1777C39.8448 41.4915 38.7941 41.8052 37.5584 42.1273C36.1462 42.4576 35.0871 42.7135 34.381 42.8952C33.1537 43.2007 32.1114 43.5144 31.2456 43.8365C30.136 44.2493 29.1609 44.72 28.3204 45.2649C27.463 45.8099 26.8493 46.3879 26.4711 46.9989C26.3786 47.164 26.3029 47.2879 26.2525 47.3622C26.1685 47.5108 26.076 47.6264 25.9919 47.7007C25.8827 47.8081 25.7566 47.8824 25.6221 47.9154C25.4624 47.965 25.3195 47.9567 25.2018 47.8906C25.0841 47.8328 25 47.7338 24.9328 47.6017C24.874 47.4778 24.8571 47.3457 24.874 47.2053C24.8908 47.0732 24.9496 46.9246 25.0337 46.7594C24.9916 46.7182 24.9412 46.6769 24.874 46.6356C24.2099 46.1071 23.5374 45.7025 22.8481 45.4218C22.0748 45.0998 21.3099 44.9594 20.5617 44.9842C20.2003 44.9842 19.78 45.0337 19.3009 45.1411C18.5359 45.3145 17.9307 45.5374 17.4936 45.8181C17.2078 46.0081 16.964 46.2227 16.7791 46.4622C16.5606 46.7264 16.4261 47.0154 16.3588 47.3127C16.3084 47.5604 16.3 47.8411 16.3336 48.1631C16.3588 48.3696 16.4093 48.6503 16.4849 49.0136C16.5774 49.4017 16.6698 49.7072 16.7539 49.9301C16.88 50.2604 17.0313 50.5411 17.2162 50.7641C17.4095 51.0118 17.7206 51.2595 18.1325 51.5155C18.889 51.9613 19.5699 52.1843 20.1835 52.176C20.4441 52.176 20.7635 52.1347 21.1249 52.0522C21.3267 52.0026 21.6377 51.9283 22.0412 51.8375C22.3354 51.7879 22.5623 51.7879 22.7136 51.821C22.8313 51.854 22.9238 51.9118 23.0079 51.9861C23.0331 52.0026 23.0499 52.0274 23.0751 52.0522C23.1003 52.0522 23.1255 52.0522 23.1508 52.0522C23.3105 52.0852 23.4113 52.2338 23.4702 52.5063L24.025 55.1816C24.1174 55.6274 24.2267 55.9495 24.3696 56.1559C24.4284 56.2385 24.5293 56.3541 24.6722 56.5027C24.8151 56.6431 24.916 56.7586 24.9748 56.8495C25.0673 56.9898 25.1177 57.1302 25.1177 57.2871C25.1177 57.4522 25.0589 57.5843 24.9496 57.6752C24.8655 57.7412 24.7731 57.7743 24.6554 57.7825C24.5377 57.7825 24.4284 57.7577 24.3276 57.6999C24.1763 57.6256 24.025 57.4687 23.8568 57.2376C23.529 56.7917 23.3021 56.4036 23.176 56.0733C23.0331 56.0651 22.949 56.0568 22.907 56.0568C22.6632 56.0651 22.4194 56.1476 22.1841 56.2963C21.9655 56.4284 21.7806 56.6018 21.6209 56.8082C21.3939 57.0972 21.1838 57.5596 20.9736 58.1871C20.7299 58.9385 20.5029 59.789 20.3096 60.755C20.1835 61.3248 20.0154 62.2 19.7968 63.3808C19.6623 64.0909 19.5699 64.6358 19.5278 65.0074C19.4438 65.6101 19.4185 66.1634 19.4354 66.6588C19.4522 67.1377 19.5446 67.8891 19.7212 68.9295C19.8052 69.3836 19.8809 69.7221 19.9565 69.9616C20.0742 70.3249 20.2255 70.6304 20.4273 70.8698C20.713 71.2166 21.0913 71.4561 21.562 71.6047C22.016 71.7368 22.4699 71.7616 22.9322 71.679C23.7644 71.5221 24.5461 71.0597 25.2774 70.3001C25.9079 69.6395 26.387 68.8799 26.7232 68.0129C27.0595 67.1377 27.2192 66.2459 27.1856 65.3459C27.1772 65.0817 27.1856 64.8753 27.2276 64.7432C27.2444 64.6688 27.2696 64.6028 27.3032 64.545L27.1015 64.3468C26.3534 63.5872 25.7734 62.8358 25.3615 62.1009C24.8992 61.2422 24.6974 60.433 24.7731 59.6899C24.7983 59.5 24.8487 59.3596 24.916 59.277C25.0337 59.1367 25.185 59.0954 25.3867 59.1532C25.5885 59.1945 25.7398 59.2935 25.8574 59.4504C25.9415 59.5743 26.0003 59.7394 26.0424 59.9458C26.0676 60.0614 26.1012 60.2431 26.1348 60.4908C26.2273 61.011 26.4627 61.5394 26.8241 62.0679C27.0931 62.4725 27.4798 62.9184 27.9757 63.4138C28.6566 64.0991 29.287 64.578 29.8586 64.8588C30.5395 65.189 31.3381 65.3624 32.2543 65.3624C32.9856 65.3624 33.8094 65.2551 34.734 65.0322C37.1129 64.4707 38.6932 63.5129 39.5002 62.167C40.0549 61.2339 40.2651 60.1192 40.1222 58.8146C40.0717 58.2945 39.9541 57.733 39.7691 57.1302C39.6346 56.6761 39.4413 56.1311 39.1975 55.4953C38.9286 54.7935 38.668 54.2485 38.4242 53.8687C38.0543 53.2825 37.4407 52.6136 36.5833 51.8623C35.5242 50.9375 34.8601 50.3099 34.5827 49.9879C34.4146 49.798 34.3558 49.6411 34.3978 49.5173C34.4482 49.3769 34.5575 49.3191 34.734 49.3191C34.8853 49.3191 35.0366 49.3604 35.1963 49.443C36.9364 50.3843 38.3738 51.7054 39.5002 53.4063C40.0381 54.232 40.4668 55.0825 40.7862 55.966L41.6605 55.8504L46.0567 53.9595L47.9901 52.2834L48.9651 52.0274C49.6965 52.3164 50.5118 52.5558 51.4197 52.7458C52.6889 53.0265 53.9498 53.3403 55.2107 53.6788C57.4467 54.2733 59.6658 54.9504 61.8766 55.7183C64.4403 56.61 66.9621 56.9238 69.425 56.6761C69.5007 56.5605 69.5679 56.4449 69.6183 56.3128C69.7612 55.999 69.8285 55.6935 69.8369 55.388C69.7949 55.3384 69.7612 55.2807 69.7444 55.2146C69.694 55.0907 69.7024 54.9504 69.7781 54.81C69.6772 54.4302 69.4755 54.0999 69.1812 53.8192C68.887 53.5384 68.5088 53.3237 68.0296 53.1834C67.6682 53.076 67.2143 53.01 66.6679 52.9687C65.7096 52.9192 64.9951 52.8779 64.516 52.8448C63.667 52.787 62.9525 52.688 62.3725 52.5476C61.9858 52.4568 61.6076 52.3329 61.2125 52.1843C61.1957 52.1843 61.1873 52.176 61.1705 52.1678C61.1284 52.1595 61.0948 52.143 61.0612 52.1182C60.5064 51.8953 59.9432 51.6063 59.3632 51.2595C58.7244 50.8714 57.8249 50.2356 56.6649 49.3604C56.522 49.253 56.4296 49.1375 56.3623 49.0053C56.2783 48.8567 56.2867 48.7329 56.3875 48.642C56.5136 48.5182 56.7238 48.5347 57.0096 48.6916C58.9093 49.7237 59.918 50.2604 60.0357 50.3182C60.5064 50.5577 60.9687 50.7641 61.4142 50.921C61.5655 50.7145 61.7421 50.4668 61.9522 50.1861C62.2464 49.7732 62.4818 49.4017 62.6667 49.0797C62.8853 48.6998 63.0954 48.2622 63.2971 47.7585C63.44 47.4365 63.6166 46.9824 63.8267 46.3961C63.894 46.2227 63.9444 46.0741 63.9696 45.9585C63.3055 45.9007 62.6499 45.8016 61.9858 45.686C61.6328 45.6282 61.3806 45.5457 61.2293 45.4218C61.12 45.331 61.0444 45.2154 61.0023 45.0915C60.9603 44.9512 60.9687 44.8273 61.0276 44.7117C61.0696 44.6374 61.1368 44.5796 61.2125 44.5383C60.6829 44.3154 60.1702 44.0677 59.6574 43.7952L58.0267 42.1851L57.6568 40.8144C57.7913 40.063 58.1107 39.4933 58.6067 39.0887C58.3713 38.9731 58.2032 38.8575 58.1107 38.7584C57.993 38.6428 57.8922 38.4612 57.7913 38.23C57.598 37.8254 57.5055 37.5034 57.5223 37.2556C57.5223 36.9914 57.6232 36.6942 57.8249 36.3556C57.9426 36.1327 58.0603 35.9676 58.178 35.852C58.3545 35.6703 58.5983 35.5052 58.9093 35.3731C59.4136 35.1584 59.9096 35.0841 60.4055 35.1501C60.9351 35.2079 61.389 35.4226 61.7589 35.7859C61.9186 35.9428 62.0531 36.1327 62.1623 36.3556C62.3473 36.7107 62.4313 37.0492 62.4061 37.3878C64.247 36.5786 66.0627 35.7611 67.8363 34.9272C68.9291 32.5905 69.9462 30.4684 70.8708 28.561C70.9044 28.5032 70.9465 28.4537 70.9969 28.4124C71.9972 27.6528 73.0648 27.05 74.2164 26.6041C74.2416 26.5216 74.292 26.4555 74.3593 26.3895C74.4685 26.3069 74.6535 26.2408 74.9224 26.1995C75.183 26.1583 75.5697 26.1087 76.0825 26.0344C76.3514 25.9766 76.6372 25.9188 76.9314 25.8693C77.1164 25.8197 77.2845 25.7702 77.4358 25.7041C77.5199 25.6711 77.5871 25.6463 77.6459 25.6298C77.2761 25.1674 76.8558 24.8454 76.3851 24.6638M64.3731 23.1279C65.7685 23.9289 66.6763 25.0849 67.0966 26.6041C67.5001 28.1234 67.3151 29.5601 66.525 30.9225C66.483 30.9969 66.4493 31.0712 66.4073 31.1372C65.6003 32.3923 64.4571 33.218 62.9777 33.6143C61.4226 34.0189 59.9516 33.829 58.5562 33.0363C57.1609 32.2437 56.2614 31.0877 55.8496 29.5601C55.4293 28.0409 55.6226 26.5876 56.4296 25.217C57.2365 23.8463 58.4133 22.9628 59.96 22.5582C60.9687 22.2857 61.9438 22.2692 62.9021 22.5169C63.398 22.6573 63.894 22.8555 64.3731 23.1197M26.8409 14.8462C29.7662 15.548 32.5989 16.4398 35.3561 17.5132C35.9445 17.7444 36.5329 17.9838 37.1213 18.2398C40.4332 19.6518 42.6019 20.849 43.6358 21.8481C44.6782 22.839 45.275 23.8298 45.4263 24.8206C45.4851 25.0766 45.4683 25.3573 45.359 25.6628C45.2161 26.084 44.9724 26.4307 44.6109 26.695C44.2999 26.9179 43.9132 27.0996 43.4509 27.2234C43.1315 27.3142 42.7028 27.3968 42.1648 27.4629C40.8451 27.6363 39.5086 27.7519 38.1552 27.8262C32.2459 28.1399 26.0508 27.4876 19.5614 25.8775C17.8551 25.4564 16.4513 25.0105 15.3585 24.5399C13.8791 23.9041 12.6686 23.1197 11.7356 22.1949C10.7857 21.2454 10.1889 20.2463 9.96195 19.1811C9.83587 18.5866 9.82746 18.0004 9.96195 17.4224C10.088 16.8114 10.3402 16.2829 10.7185 15.8453C11.1136 15.3912 11.6515 15.0361 12.3324 14.7636C12.8452 14.5572 13.4924 14.3838 14.2742 14.2517C18.1661 13.5746 22.3522 13.7728 26.8409 14.8379M58.5562 19.4206C58.6739 19.4618 58.7664 19.5444 58.8336 19.6518C58.9093 19.7591 58.9429 19.8747 58.9597 19.9986C58.9597 20.1224 58.9261 20.238 58.8673 20.3619C58.8084 20.4775 58.7244 20.5683 58.6151 20.6343C58.5731 20.6591 58.4974 20.7087 58.3797 20.7747C58.2788 20.8243 58.2032 20.8738 58.1528 20.9233C58.0771 20.9811 57.993 21.0967 57.8922 21.2701C57.7997 21.4435 57.7072 21.5591 57.6232 21.6252C57.5307 21.7077 57.3794 21.7655 57.1777 21.7986C56.9759 21.8316 56.8246 21.8233 56.7238 21.7738C56.6397 21.7243 56.5725 21.6582 56.5388 21.5674C56.4968 21.4766 56.48 21.3857 56.48 21.2949C56.4884 21.138 56.5556 20.9564 56.6817 20.7499C56.9087 20.3701 57.1945 20.0316 57.5475 19.7508C57.9174 19.4206 58.262 19.3132 58.5562 19.4371V19.4206Z" fill="#CCB79C"/>
<path d="M76.3346 24.6638C75.9227 24.5069 75.3596 24.4326 74.6451 24.4491C73.7288 24.4738 73.1404 24.4738 72.8966 24.4491C71.9804 24.3335 71.0305 23.8711 70.0555 23.0536C68.9711 22.0215 68.1557 21.2619 67.6093 20.783C66.8024 20.0811 65.9366 19.5031 65.0119 19.0407C64.0453 18.5618 63.0534 18.2398 62.0363 18.0664C60.9939 17.893 59.9516 17.893 58.9009 18.0664C57.8249 18.2481 56.8498 18.6031 55.9588 19.1316C55.3284 19.5031 54.6979 19.9986 54.0759 20.6096C53.5968 21.0802 53.0672 21.683 52.4704 22.4096C52.3695 22.5252 52.2518 22.5995 52.1258 22.649C52.0837 22.6656 52.0585 22.6738 52.0333 22.6738C51.9913 22.7151 51.9492 22.7481 51.8904 22.7729C51.6886 22.8555 51.4281 22.7481 51.1171 22.4509C50.5034 21.8894 49.7889 21.3279 48.9736 20.7665C48.3431 20.3371 47.5782 19.8499 46.6619 19.305C46.3257 19.1068 45.9811 18.9169 45.6532 18.727C41.9799 16.6462 38.172 14.8957 34.2381 13.4673C31.6995 12.5425 29.1021 11.7581 26.4543 11.114C24.9328 10.7342 23.571 10.4617 22.3522 10.2966C20.9988 10.1149 19.5362 10.0159 17.9643 9.99109C14.5347 9.9498 11.2481 10.2966 8.10426 11.0315C7.06193 11.2792 6.18772 11.5434 5.49844 11.8324C4.5822 12.2205 3.82568 12.6911 3.23727 13.2609C2.45552 14.004 1.90073 14.9288 1.58131 16.0435C1.2787 17.1086 1.21986 18.1985 1.4216 19.305C1.61494 20.3371 2.02682 21.3444 2.63204 22.3188C3.20364 23.2353 3.93495 24.061 4.80916 24.7959C6.28019 26.0509 8.22194 27.0913 10.626 27.9087C13.215 28.784 16.1907 29.3867 19.5699 29.717C21.747 29.9235 24.8151 30.0473 28.7575 30.0968C32.4224 30.1464 35.7679 30.1546 38.7857 30.1299C40.5341 30.1216 42.1732 30.0968 43.7031 30.0638C43.93 30.0556 44.0982 30.0638 44.2242 30.0638C44.3167 30.0803 44.4092 30.0968 44.4932 30.1134C44.5521 29.7253 44.6277 29.3207 44.7202 28.9078C44.779 28.6519 44.8631 28.4702 44.9471 28.3794C45.0228 28.2968 45.1153 28.2555 45.2161 28.2473C45.3254 28.239 45.4179 28.2721 45.4851 28.3464C45.544 28.4207 45.5692 28.5198 45.5524 28.6436C45.544 28.7014 45.5103 28.817 45.4515 28.9904C45.3674 29.2133 45.3254 29.5436 45.317 29.9647C45.2834 31.3024 45.317 32.351 45.4263 33.1272C45.4851 33.6061 45.586 34.1345 45.7289 34.7125C45.813 35.0593 45.9474 35.5795 46.1492 36.2648C46.3425 36.9914 46.5359 37.5446 46.7208 37.9162C46.8637 38.2135 47.057 38.519 47.3008 38.8492C47.4521 39.0474 47.6875 39.3364 47.9901 39.6997C48.217 39.9639 48.402 40.1704 48.5533 40.3107C48.7718 40.5254 48.982 40.6906 49.1837 40.8227C49.335 40.897 49.4443 40.963 49.5031 41.0208C49.6124 41.1447 49.6292 41.2603 49.5536 41.3594C49.5115 41.4419 49.4107 41.4832 49.2425 41.4997C48.755 41.541 48.2675 41.3841 47.7883 41.0456C47.4857 40.8309 47.1243 40.4676 46.704 39.9557C46.3173 39.4768 46.0315 39.0639 45.8382 38.7254C45.7373 38.5355 45.6448 38.3373 45.5524 38.1226C44.5773 39.163 43.2912 40.0465 41.6941 40.7649C41.3747 40.9135 41.0384 41.0456 40.6938 41.1777C39.8448 41.4915 38.7941 41.8052 37.5584 42.1273C36.1462 42.4576 35.0871 42.7135 34.381 42.8952C33.1537 43.2007 32.1114 43.5144 31.2456 43.8365C30.136 44.2493 29.1609 44.72 28.3204 45.2649C27.463 45.8099 26.8493 46.3879 26.4711 46.9989C26.3786 47.164 26.3029 47.2879 26.2525 47.3622C26.1685 47.5108 26.076 47.6264 25.9919 47.7007C25.8827 47.8081 25.7566 47.8824 25.6221 47.9154C25.4624 47.965 25.3195 47.9567 25.2018 47.8906C25.0841 47.8328 25 47.7338 24.9328 47.6017C24.874 47.4778 24.8571 47.3457 24.874 47.2053C24.8908 47.0732 24.9496 46.9246 25.0337 46.7594C24.9916 46.7182 24.9412 46.6769 24.874 46.6356C24.2099 46.1071 23.5374 45.7025 22.8481 45.4218C22.0748 45.0998 21.3099 44.9594 20.5617 44.9842C20.2003 44.9842 19.78 45.0337 19.3009 45.1411C18.5359 45.3145 17.9307 45.5374 17.4936 45.8181C17.2078 46.0081 16.964 46.2227 16.7791 46.4622C16.5606 46.7264 16.4261 47.0154 16.3588 47.3127C16.3084 47.5604 16.3 47.8411 16.3336 48.1631C16.3588 48.3696 16.4093 48.6503 16.4849 49.0136C16.5774 49.4017 16.6698 49.7072 16.7539 49.9301C16.88 50.2604 17.0313 50.5411 17.2162 50.7641C17.4095 51.0118 17.7206 51.2595 18.1325 51.5155C18.889 51.9613 19.5699 52.1843 20.1835 52.176C20.4441 52.176 20.7635 52.1347 21.1249 52.0522C21.3267 52.0026 21.6377 51.9283 22.0412 51.8375C22.3354 51.7879 22.5623 51.7879 22.7136 51.821C22.8313 51.854 22.9238 51.9118 23.0079 51.9861C23.0331 52.0026 23.0499 52.0274 23.0751 52.0522C23.1003 52.0522 23.1255 52.0522 23.1508 52.0522C23.3105 52.0852 23.4113 52.2338 23.4702 52.5063L24.025 55.1816C24.1174 55.6274 24.2267 55.9495 24.3696 56.1559C24.4284 56.2385 24.5293 56.3541 24.6722 56.5027C24.8151 56.6431 24.916 56.7586 24.9748 56.8495C25.0673 56.9898 25.1177 57.1302 25.1177 57.2871C25.1177 57.4522 25.0589 57.5843 24.9496 57.6752C24.8655 57.7412 24.7731 57.7743 24.6554 57.7825C24.5377 57.7825 24.4284 57.7577 24.3276 57.6999C24.1763 57.6256 24.025 57.4687 23.8568 57.2376C23.529 56.7917 23.3021 56.4036 23.176 56.0733C23.0331 56.0651 22.949 56.0568 22.907 56.0568C22.6632 56.0651 22.4194 56.1476 22.1841 56.2963C21.9655 56.4284 21.7806 56.6018 21.6209 56.8082C21.3939 57.0972 21.1838 57.5596 20.9736 58.1871C20.7299 58.9385 20.5029 59.789 20.3096 60.755C20.1835 61.3248 20.0154 62.2 19.7968 63.3808C19.6623 64.0909 19.5699 64.6358 19.5278 65.0074C19.4438 65.6101 19.4185 66.1634 19.4354 66.6588C19.4522 67.1377 19.5446 67.8891 19.7212 68.9295C19.8052 69.3836 19.8809 69.7221 19.9565 69.9616C20.0742 70.3249 20.2255 70.6304 20.4273 70.8698C20.713 71.2166 21.0913 71.4561 21.562 71.6047C22.016 71.7368 22.4699 71.7616 22.9322 71.679C23.7644 71.5221 24.5461 71.0597 25.2774 70.3001C25.9079 69.6395 26.387 68.8799 26.7232 68.0129C27.0595 67.1377 27.2192 66.2459 27.1856 65.3459C27.1772 65.0817 27.1856 64.8753 27.2276 64.7432C27.2444 64.6688 27.2696 64.6028 27.3032 64.545L27.1015 64.3468C26.3534 63.5872 25.7734 62.8358 25.3615 62.1009C24.8992 61.2422 24.6974 60.433 24.7731 59.6899C24.7983 59.5 24.8487 59.3596 24.916 59.277C25.0337 59.1367 25.185 59.0954 25.3867 59.1532C25.5885 59.1945 25.7398 59.2935 25.8574 59.4504C25.9415 59.5743 26.0003 59.7394 26.0424 59.9458C26.0676 60.0614 26.1012 60.2431 26.1348 60.4908C26.2273 61.011 26.4627 61.5394 26.8241 62.0679C27.0931 62.4725 27.4798 62.9184 27.9757 63.4138C28.6566 64.0991 29.287 64.578 29.8586 64.8588C30.5395 65.189 31.3381 65.3624 32.2543 65.3624C32.9856 65.3624 33.8094 65.2551 34.734 65.0322C37.1129 64.4707 38.6932 63.5129 39.5002 62.167C40.0549 61.2339 40.2651 60.1192 40.1222 58.8146C40.0717 58.2945 39.9541 57.733 39.7691 57.1302C39.6346 56.6761 39.4413 56.1311 39.1975 55.4953C38.9286 54.7935 38.668 54.2485 38.4242 53.8687C38.0543 53.2825 37.4407 52.6136 36.5833 51.8623C35.5242 50.9375 34.8601 50.3099 34.5827 49.9879C34.4146 49.798 34.3558 49.6411 34.3978 49.5173C34.4482 49.3769 34.5575 49.3191 34.734 49.3191C34.8853 49.3191 35.0366 49.3604 35.1963 49.443C36.9364 50.3843 38.3738 51.7054 39.5002 53.4063C40.0381 54.232 40.4668 55.0825 40.7862 55.966L41.6605 55.8504L46.0567 53.9595L47.9901 52.2834L48.9651 52.0274C49.6965 52.3164 50.5118 52.5558 51.4197 52.7458C52.6889 53.0265 53.9498 53.3403 55.2107 53.6788C57.4467 54.2733 59.6658 54.9504 61.8766 55.7183C64.4403 56.61 66.9621 56.9238 69.425 56.6761C69.5007 56.5605 69.5679 56.4449 69.6183 56.3128C69.7612 55.999 69.8285 55.6935 69.8369 55.388C69.7949 55.3384 69.7612 55.2807 69.7444 55.2146C69.694 55.0907 69.7024 54.9504 69.7781 54.81C69.6772 54.4302 69.4755 54.0999 69.1812 53.8192C68.887 53.5384 68.5088 53.3237 68.0296 53.1834C67.6682 53.076 67.2143 53.01 66.6679 52.9687C65.7096 52.9192 64.9951 52.8779 64.516 52.8448C63.667 52.787 62.9525 52.688 62.3725 52.5476C61.9858 52.4568 61.6076 52.3329 61.2125 52.1843C61.1957 52.1843 61.1873 52.176 61.1705 52.1678C61.1284 52.1595 61.0948 52.143 61.0612 52.1182C60.5064 51.8953 59.9432 51.6063 59.3632 51.2595C58.7244 50.8714 57.8249 50.2356 56.6649 49.3604C56.522 49.253 56.4296 49.1375 56.3623 49.0053C56.2783 48.8567 56.2867 48.7329 56.3875 48.642C56.5136 48.5182 56.7238 48.5347 57.0096 48.6916C58.9093 49.7237 59.918 50.2604 60.0357 50.3182C60.5064 50.5577 60.9687 50.7641 61.4142 50.921C61.5655 50.7145 61.7421 50.4668 61.9522 50.1861C62.2464 49.7732 62.4818 49.4017 62.6667 49.0797C62.8853 48.6998 63.0954 48.2622 63.2971 47.7585C63.44 47.4365 63.6166 46.9824 63.8267 46.3961C63.894 46.2227 63.9444 46.0741 63.9696 45.9585C63.3055 45.9007 62.6499 45.8016 61.9858 45.686C61.6328 45.6282 61.3806 45.5457 61.2293 45.4218C61.12 45.331 61.0444 45.2154 61.0023 45.0915C60.9603 44.9512 60.9687 44.8273 61.0276 44.7117C61.0696 44.6374 61.1368 44.5796 61.2125 44.5383C60.6829 44.3154 60.1702 44.0677 59.6574 43.7952L58.0267 42.1851L57.6568 40.8144C57.7913 40.063 58.1107 39.4933 58.6067 39.0887C58.3713 38.9731 58.2032 38.8575 58.1107 38.7584C57.993 38.6428 57.8922 38.4612 57.7913 38.23C57.598 37.8254 57.5055 37.5034 57.5223 37.2556C57.5223 36.9914 57.6232 36.6942 57.8249 36.3556C57.9426 36.1327 58.0603 35.9676 58.178 35.852C58.3545 35.6703 58.5983 35.5052 58.9093 35.3731C59.4136 35.1584 59.9096 35.0841 60.4055 35.1501C60.9351 35.2079 61.389 35.4226 61.7589 35.7859C61.9186 35.9428 62.0531 36.1327 62.1623 36.3556C62.3473 36.7107 62.4313 37.0492 62.4061 37.3878C64.247 36.5786 66.0627 35.7611 67.8363 34.9272C68.9291 32.5905 69.9462 30.4684 70.8708 28.561C70.9044 28.5032 70.9465 28.4537 70.9969 28.4124C71.9972 27.6528 73.0648 27.05 74.2164 26.6041C74.2416 26.5216 74.292 26.4555 74.3593 26.3895C74.4685 26.3069 74.6535 26.2408 74.9224 26.1995C75.183 26.1583 75.5697 26.1087 76.0825 26.0344C76.3514 25.9766 76.6372 25.9188 76.9314 25.8693C77.1164 25.8197 77.2845 25.7702 77.4358 25.7041C77.5199 25.6711 77.5871 25.6463 77.6459 25.6298C77.2761 25.1674 76.8558 24.8454 76.3851 24.6638M64.3731 23.1279C65.7685 23.9289 66.6763 25.0849 67.0966 26.6041C67.5001 28.1234 67.3151 29.5601 66.525 30.9225C66.483 30.9969 66.4493 31.0712 66.4073 31.1372C65.6003 32.3923 64.4571 33.218 62.9777 33.6143C61.4226 34.0189 59.9516 33.829 58.5562 33.0363C57.1609 32.2437 56.2614 31.0877 55.8496 29.5601C55.4293 28.0409 55.6226 26.5876 56.4296 25.217C57.2365 23.8463 58.4133 22.9628 59.96 22.5582C60.9687 22.2857 61.9438 22.2692 62.9021 22.5169C63.398 22.6573 63.894 22.8555 64.3731 23.1197M26.8409 14.8462C29.7662 15.548 32.5989 16.4398 35.3561 17.5132C35.9445 17.7444 36.5329 17.9838 37.1213 18.2398C40.4332 19.6518 42.6019 20.849 43.6358 21.8481C44.6782 22.839 45.275 23.8298 45.4263 24.8206C45.4851 25.0766 45.4683 25.3573 45.359 25.6628C45.2161 26.084 44.9724 26.4307 44.6109 26.695C44.2999 26.9179 43.9132 27.0996 43.4509 27.2234C43.1315 27.3142 42.7028 27.3968 42.1648 27.4629C40.8451 27.6363 39.5086 27.7519 38.1552 27.8262C32.2459 28.1399 26.0508 27.4876 19.5614 25.8775C17.8551 25.4564 16.4513 25.0105 15.3585 24.5399C13.8791 23.9041 12.6686 23.1197 11.7356 22.1949C10.7857 21.2454 10.1889 20.2463 9.96195 19.1811C9.83587 18.5866 9.82746 18.0004 9.96195 17.4224C10.088 16.8114 10.3402 16.2829 10.7185 15.8453C11.1136 15.3912 11.6515 15.0361 12.3324 14.7636C12.8452 14.5572 13.4924 14.3838 14.2742 14.2517C18.1661 13.5746 22.3522 13.7728 26.8409 14.8379M58.5562 19.4206C58.6739 19.4618 58.7664 19.5444 58.8336 19.6518C58.9093 19.7591 58.9429 19.8747 58.9597 19.9986C58.9597 20.1224 58.9261 20.238 58.8673 20.3619C58.8084 20.4775 58.7244 20.5683 58.6151 20.6343C58.5731 20.6591 58.4974 20.7087 58.3797 20.7747C58.2788 20.8243 58.2032 20.8738 58.1528 20.9233C58.0771 20.9811 57.993 21.0967 57.8922 21.2701C57.7997 21.4435 57.7072 21.5591 57.6232 21.6252C57.5307 21.7077 57.3794 21.7655 57.1777 21.7986C56.9759 21.8316 56.8246 21.8233 56.7238 21.7738C56.6397 21.7243 56.5725 21.6582 56.5388 21.5674C56.4968 21.4766 56.48 21.3857 56.48 21.2949C56.4884 21.138 56.5556 20.9564 56.6817 20.7499C56.9087 20.3701 57.1945 20.0316 57.5475 19.7508C57.9174 19.4206 58.262 19.3132 58.5562 19.4371V19.4206Z" stroke="#CCB79C" stroke-width="0.25"/>
<path d="M58.8337 19.6518C58.758 19.5362 58.6656 19.4619 58.5563 19.4206C58.2537 19.305 57.9174 19.4124 57.5476 19.7344C57.1945 20.0234 56.9087 20.3537 56.6818 20.7335C56.5557 20.9317 56.4884 21.1133 56.48 21.2784C56.48 21.3693 56.4968 21.4684 56.5389 21.5509C56.5809 21.6418 56.6397 21.7078 56.7238 21.7574C56.8247 21.8069 56.976 21.8151 57.1777 21.7821C57.3795 21.7491 57.5308 21.6913 57.6232 21.6087C57.7073 21.5509 57.7913 21.4271 57.8922 21.2537C57.9931 21.0803 58.0771 20.9729 58.1528 20.9069C58.2032 20.8573 58.2789 20.8078 58.3798 20.7583C58.4974 20.6839 58.5815 20.6427 58.6151 20.6179C58.7244 20.5518 58.8085 20.461 58.8673 20.3454C58.9261 20.2298 58.9598 20.106 58.9598 19.9821C58.9514 19.8582 58.9093 19.7426 58.8337 19.6353M35.3561 17.5133C32.599 16.4399 29.7662 15.5481 26.841 14.8463C22.3522 13.7811 18.1661 13.5829 14.2742 14.26C13.4925 14.3921 12.8452 14.5573 12.3324 14.7719C11.6516 15.0362 11.1136 15.3995 10.7185 15.8536C10.3403 16.2912 10.0881 16.8197 9.962 17.4307C9.83591 18.0087 9.83591 18.5867 9.962 19.1894C10.189 20.2546 10.7858 21.2537 11.7356 22.2032C12.6687 23.128 13.8791 23.9042 15.3586 24.5482C16.4513 25.0271 17.8551 25.473 19.5615 25.8858C26.0424 27.496 32.2459 28.14 38.1553 27.8345C39.5086 27.7602 40.8451 27.6363 42.1649 27.4712C42.7028 27.3969 43.1315 27.3226 43.4509 27.2317C43.9133 27.1079 44.2999 26.9262 44.611 26.7033C44.9724 26.4391 45.2162 26.1005 45.3591 25.6712C45.4684 25.3657 45.4852 25.0849 45.4263 24.8289C45.275 23.8381 44.6782 22.8473 43.6359 21.8564C42.602 20.8656 40.4332 19.6601 37.1213 18.2481C36.5329 17.9922 35.9445 17.7527 35.3561 17.5215M35.5242 19.1729C35.6251 19.2142 35.726 19.2637 35.8436 19.305C37.5837 20.0894 39.7103 21.1381 42.2321 22.4427C42.8037 22.7399 43.2324 23.0207 43.5266 23.2766C43.9469 23.6565 44.1907 24.0693 44.2411 24.5069C44.2747 24.7299 44.2495 24.9363 44.1739 25.1427C44.0982 25.3657 43.9721 25.539 43.804 25.6629C43.6107 25.8198 43.2828 25.9436 42.8205 26.018C41.2066 26.2987 39.5422 26.4803 37.8274 26.5794C32.6578 26.8684 27.0091 26.3235 20.898 24.9528C19.2841 24.5895 17.956 24.2179 16.922 23.8464C15.5099 23.3262 14.3162 22.6904 13.3327 21.939C12.2484 21.1216 11.5675 20.2463 11.2817 19.3133C11.1052 18.7518 11.0884 18.1986 11.2313 17.6371C11.3826 17.0509 11.6768 16.5885 12.1223 16.2582C12.4838 15.9857 13.0385 15.771 13.7783 15.6224C16.1067 15.127 18.578 14.9784 21.2006 15.1765C23.5795 15.3499 26.0256 15.8041 28.5474 16.5472C30.7161 17.183 33.0445 18.0582 35.5326 19.1729M64.3731 23.1363C63.8856 22.8638 63.3981 22.6574 62.9021 22.5335C61.9522 22.2858 60.9688 22.2941 59.9601 22.5665C58.405 22.9711 57.2282 23.8546 56.4296 25.2253C55.6226 26.5959 55.4293 28.0409 55.8496 29.5685C56.2615 31.0877 57.1609 32.252 58.5563 33.0364C59.9517 33.8291 61.4311 34.019 62.9778 33.6144C64.4572 33.218 65.6004 32.3923 66.4073 31.1373C66.4494 31.0712 66.483 30.9969 66.525 30.9226C67.3152 29.5602 67.5085 28.1235 67.0966 26.6042C66.6763 25.0767 65.7685 23.9207 64.3731 23.1363ZM62.3978 23.4335C62.2801 23.5821 62.1708 23.7473 62.0699 23.9207C61.4227 25.0271 61.2714 26.2079 61.5992 27.4382C61.9354 28.6767 62.6667 29.6097 63.7931 30.2455C64.3143 30.5428 64.8523 30.7327 65.407 30.8235C64.7514 31.7483 63.852 32.3593 62.7172 32.6648C61.4311 32.9951 60.2122 32.8382 59.0522 32.1859C57.9006 31.5336 57.1525 30.5758 56.8079 29.3042C56.4548 28.0409 56.6145 26.8437 57.287 25.7124C57.9511 24.5812 58.9261 23.8464 60.2122 23.5078C60.9519 23.3097 61.6833 23.2766 62.3894 23.4253L62.3978 23.4335Z" fill="#4F4527"/>
<path d="M62.0695 23.9203C62.1704 23.7469 62.2797 23.5818 62.3973 23.4332C61.6913 23.2846 60.96 23.3176 60.2204 23.5157C58.9344 23.846 57.9594 24.5808 57.2954 25.7201C56.623 26.8512 56.4633 28.0483 56.8163 29.3115C57.1525 30.5747 57.9006 31.5324 59.0605 32.1928C60.2204 32.8451 61.4391 33.0102 62.7251 32.6717C63.8682 32.3662 64.7592 31.7553 65.4148 30.8306C64.86 30.7398 64.3221 30.5499 63.801 30.2527C62.6747 29.617 61.9434 28.684 61.6072 27.4456C61.271 26.2072 61.4307 25.0348 62.0779 23.9285L62.0695 23.9203Z" fill="#FFFAF8"/>
<path d="M62.6415 16.9268C61.1452 16.6213 59.691 16.6213 58.2872 16.9268C57.3962 17.1167 56.564 17.4222 55.7907 17.8516C55.7319 17.7773 55.673 17.703 55.6058 17.6287C52.504 14.3837 49.419 11.5928 46.3677 9.25608C46.3509 9.24782 46.3425 9.23957 46.3341 9.23131C42.8457 6.55605 39.3152 4.40923 35.7427 2.7826C34.2128 2.08902 32.8595 1.57708 31.6827 1.26332C30.9009 1.05689 30.0099 0.87524 29.018 0.726615C28.3624 0.627531 27.4629 0.511933 26.3029 0.379821C25.1513 0.24771 24.2603 0.156883 23.6383 0.0990838C22.6548 0.0247709 21.7638 0 20.9736 0C19.5362 0.024771 18.1156 0.189911 16.7034 0.503676C15.2913 0.809184 13.9379 1.25506 12.6266 1.84131C10.7521 2.68352 9.41556 3.68262 8.63381 4.83859C8.14627 5.56521 7.87729 6.34962 7.81004 7.20009C7.7512 8.1001 7.95294 8.88452 8.41526 9.54507C8.41526 9.56159 8.43207 9.56985 8.44048 9.5781C7.11235 9.85884 5.96916 10.2056 5.0277 10.6185C3.64914 11.213 2.55638 11.9809 1.74941 12.9222C0.959263 13.8552 0.429694 14.9534 0.169112 16.2332C-0.0830636 17.4635 -0.0494401 18.7021 0.244765 19.9324C0.530564 21.0966 1.04332 22.2195 1.77463 23.293C2.47232 24.3003 3.32972 25.2086 4.34683 26.0178C6.07843 27.4049 8.31439 28.5114 11.0547 29.3536C13.4336 30.0885 16.1487 30.6004 19.2 30.9059C21.2762 31.1123 24.0502 31.2444 27.5302 31.3187C31.3717 31.4013 35.2384 31.4343 39.1303 31.4178C40.7946 31.4096 42.459 31.3931 44.1318 31.3683C44.199 31.3683 44.2663 31.3683 44.3335 31.36C44.2663 32.1857 44.2747 32.9536 44.3671 33.6555C44.4428 34.2417 44.6277 35.117 44.9471 36.2647C45.0312 36.5867 45.1152 36.8592 45.1909 37.0904C44.1654 38.0317 42.8793 38.8326 41.341 39.4849C41.0804 39.5922 40.8199 39.6996 40.5425 39.8069C39.7691 40.0959 38.8865 40.3684 37.8946 40.6326C37.2978 40.7978 36.3984 41.0124 35.1963 41.3014C33.9523 41.5987 33.0192 41.8381 32.3972 42.0198C31.3717 42.317 30.4638 42.6391 29.6905 42.9859C28.0009 43.7372 26.6728 44.6785 25.7145 45.818C25.0673 45.24 24.5461 44.8437 24.151 44.6125C23.4702 44.2079 22.6968 43.9354 21.8226 43.795C21.0072 43.6547 20.2339 43.6382 19.4942 43.762C19.2924 43.7868 18.931 43.8694 18.4014 44.0015C17.9223 44.1253 17.5861 44.2409 17.4011 44.3317C17.1742 44.4391 16.9304 44.6042 16.653 44.8189C16.1655 45.2152 15.7788 45.6364 15.5014 46.0905C15.1736 46.6107 15.0139 47.1309 14.9971 47.6593C14.9971 47.907 15.0391 48.2621 15.1231 48.7327C15.2408 49.3437 15.3669 49.8226 15.4762 50.1694C15.6527 50.6896 15.8797 51.119 16.1571 51.4658C16.384 51.7465 16.7034 52.0355 17.1321 52.3493C17.5188 52.63 17.8887 52.8447 18.2417 53.0016C18.8637 53.2823 19.553 53.4144 20.3096 53.4144C21.0072 53.4144 21.7049 53.2988 22.4026 53.0511C22.5371 53.0098 22.6464 52.9603 22.7473 52.9108C22.7557 53.2906 22.7977 53.786 22.8649 54.3888C22.8986 54.6447 22.9238 54.8511 22.9406 54.9998C22.7725 54.9915 22.5959 54.9998 22.411 55.0411C21.9655 55.1236 21.562 55.3135 21.2006 55.6108C20.6458 56.0732 20.1835 56.8163 19.822 57.8319C19.6539 58.3026 19.5026 58.831 19.3513 59.4338C19.2588 59.7971 19.1411 60.3338 18.9814 61.0604L18.435 63.7109C18.2165 64.8091 18.0988 65.6513 18.0988 66.2375C18.0988 66.6669 18.124 67.1458 18.2081 67.666C18.2585 67.9963 18.3426 68.4752 18.4603 69.0862C18.5695 69.6642 18.6788 70.1018 18.7713 70.4073C18.9226 70.878 19.1159 71.2825 19.3513 71.6046C19.6791 72.0504 20.1162 72.3972 20.671 72.645C21.2006 72.8844 21.7554 73 22.3354 73C22.8902 73 23.4449 72.8844 23.9997 72.6615C24.5209 72.4633 25.0168 72.1743 25.4792 71.8027C26.2693 71.1587 26.967 70.2752 27.5638 69.1522C27.7067 68.8715 27.8412 68.5908 27.9589 68.3183C28.0598 68.5247 28.2027 68.7559 28.3708 68.9954C28.8163 69.6146 29.2534 70.077 29.6905 70.366C29.9679 70.5559 30.2621 70.688 30.5731 70.7624C30.9009 70.8449 31.2204 70.8449 31.5146 70.7871C31.8676 70.7128 32.187 70.5477 32.4812 70.2835C32.7586 70.0357 32.9772 69.7385 33.1453 69.3752C33.2882 69.0697 33.3975 68.7229 33.4731 68.3265C33.532 68.0293 33.574 67.666 33.5992 67.2284C33.616 66.9311 33.5992 66.6999 33.5488 66.543C33.7589 66.5183 33.9691 66.4852 34.1876 66.4522C35.936 66.1715 37.4071 65.6265 38.5839 64.8173C39.2564 64.3549 39.8196 63.81 40.2819 63.1907C40.6265 62.7201 40.8871 62.2329 41.0804 61.7292C41.5007 61.9522 41.8538 62.109 42.1312 62.1916C42.5262 62.3072 42.9718 62.3567 43.4593 62.3567C43.846 62.3567 44.2915 62.3072 44.8042 62.2246C45.6784 62.076 46.5358 61.8613 47.3764 61.5888C47.8051 61.4402 48.2254 61.2833 48.6457 61.1017C49.8814 60.5732 51.0246 59.9044 52.0837 59.1117C52.5376 58.7815 52.9159 58.4595 53.2185 58.1292C53.3698 57.964 53.4791 57.8071 53.5295 57.675C53.8321 57.9145 54.0843 58.0961 54.2776 58.2283C54.8324 58.5833 55.5049 58.864 56.295 59.0705C56.7994 59.2026 57.5223 59.3429 58.4806 59.4916C60.4055 59.7971 61.8849 59.9705 62.9189 60.0118C64.5664 60.0861 66.029 59.954 67.2983 59.6072C68.1053 59.3842 68.7609 59.087 69.2737 58.6989C69.7108 58.3686 70.0975 57.931 70.4421 57.386C70.8288 56.7668 71.0557 56.164 71.1146 55.5695C71.4172 55.52 71.745 55.4374 72.0812 55.3383C72.3839 55.2475 72.821 55.0823 73.401 54.8511C74.1071 54.5787 74.6114 54.3144 74.9308 54.0585C75.2503 53.8025 75.5697 53.3979 75.8891 52.853C76.4943 51.8786 76.7129 51.0529 76.5616 50.3676C76.5027 50.0704 76.3346 49.7153 76.0656 49.3107C75.8471 48.9969 75.6369 48.7492 75.4352 48.5676C74.7711 47.9813 73.8045 47.6841 72.5436 47.6841C72.2494 47.6841 71.7282 47.7089 70.9969 47.7667C70.3412 47.8162 69.8285 47.8327 69.4502 47.8245C68.8198 47.7997 68.1221 47.6923 67.3572 47.4942C66.9116 47.3703 66.2308 47.1639 65.3229 46.8584C65.0624 46.7676 64.8858 46.6932 64.7934 46.6354C64.7682 46.6189 64.7429 46.6024 64.7177 46.5859C64.7513 46.3795 64.7766 46.1813 64.8018 45.9831C66.1635 46.0409 67.5169 45.9501 68.8618 45.7272C71.2407 45.3308 73.3842 44.5299 75.3007 43.3327C76.5027 42.5813 77.5367 41.7143 78.3941 40.74C79.3271 39.6748 79.9996 38.5436 80.4115 37.3298C80.7981 36.1821 80.9999 34.7949 80.9999 33.1683C81.0083 30.716 80.6216 28.6104 79.8315 26.86C79.3523 25.7866 78.7135 24.9031 77.9149 24.2095C77.0155 23.4251 76.0404 23.0205 75.0149 23.004C74.8888 23.004 74.4601 23.0287 73.7372 23.0948C73.216 23.1443 72.8042 23.1278 72.4763 23.037C72.1233 22.9462 71.7702 22.7645 71.4088 22.492C71.1902 22.3269 70.8876 22.0544 70.5094 21.6663C69.8201 20.9893 69.2149 20.436 68.6937 19.9984C68.0128 19.4204 67.3572 18.9333 66.7099 18.5369C65.4406 17.7525 64.0873 17.2158 62.6415 16.9268ZM58.8925 18.0663C59.9348 17.8929 60.9771 17.8929 62.0194 18.0663C63.0365 18.2397 64.02 18.5617 64.9867 19.0406C65.9198 19.503 66.7856 20.081 67.5841 20.7828C68.1305 21.2617 68.9459 22.0214 70.0218 23.0535C70.9969 23.8709 71.9468 24.3416 72.863 24.4489C73.1068 24.482 73.6868 24.482 74.6114 24.4489C75.3259 24.4242 75.8891 24.4985 76.2926 24.6554C76.7633 24.837 77.1752 25.159 77.5535 25.6214C77.4946 25.6379 77.419 25.6627 77.3433 25.6957C77.0071 25.8196 76.5952 25.9269 76.1077 26.0012C75.5361 26.0838 75.1158 26.1416 74.83 26.1829C74.5694 26.2242 74.3845 26.282 74.2752 26.3728C74.1911 26.4389 74.1407 26.5214 74.1155 26.6205C74.0902 26.7279 74.0987 26.8187 74.1491 26.893C74.2079 26.9838 74.3424 27.0416 74.5526 27.0747C75.5697 27.2315 76.57 27.182 77.5535 26.9178C77.8309 26.8435 78.0158 26.7444 78.1167 26.6205C78.1251 26.604 78.1419 26.5957 78.1503 26.5792C78.2427 26.7609 78.3352 26.9591 78.4277 27.1737C79.3355 29.2462 79.7726 31.2692 79.7474 33.2426C79.428 33.3004 79.1842 33.3417 78.9993 33.3665C78.579 33.4243 78.2007 33.4408 77.8645 33.416C76.9146 33.3417 75.8723 32.8958 74.7543 32.0701C73.8549 31.4096 73.0563 30.6499 72.3502 29.7995C72.1233 29.527 71.9215 29.4279 71.745 29.4939C71.6694 29.527 71.6105 29.5848 71.5769 29.6756C71.5433 29.7664 71.5349 29.849 71.5601 29.9398C71.5769 30.0307 71.6694 30.1793 71.8207 30.3857C71.9804 30.5839 72.2073 30.8811 72.5015 31.2775C73.401 32.4252 74.376 33.2756 75.4436 33.8289C76.0404 34.1344 76.6624 34.3491 77.3013 34.4647C77.9738 34.5885 78.621 34.5885 79.2514 34.4647C79.4028 34.4316 79.5457 34.3986 79.6801 34.3573C79.5457 35.6041 79.2094 36.7849 78.6798 37.8913C78.1251 39.0473 77.3938 40.0381 76.4943 40.8473C75.8387 41.4335 75.0485 41.9785 74.1155 42.4574C73.3926 42.829 72.5015 43.2088 71.4508 43.5886C69.778 44.1914 68.3575 44.5464 67.1722 44.6538C66.4241 44.7198 65.5415 44.7198 64.516 44.6373C63.3307 44.5217 62.4481 44.4391 61.8513 44.3895C61.3638 44.3565 61.0612 44.4473 60.9435 44.6703C60.8846 44.7859 60.8762 44.9097 60.9183 45.0501C60.9603 45.1822 61.0444 45.2896 61.1452 45.3804C61.2965 45.496 61.5487 45.5868 61.8933 45.6529C62.5574 45.7767 63.2215 45.8675 63.8771 45.9171C63.8435 46.0409 63.8015 46.1813 63.7342 46.3547C63.5157 46.941 63.3392 47.3951 63.2047 47.7171C62.9945 48.2125 62.7844 48.6502 62.5658 49.03C62.3809 49.352 62.1455 49.7236 61.8513 50.1364C61.6412 50.4171 61.4646 50.6649 61.3217 50.8713C60.8762 50.7061 60.4139 50.508 59.9348 50.2685C59.8171 50.219 58.8168 49.674 56.9171 48.6336C56.6229 48.4768 56.4127 48.4602 56.2866 48.5841C56.1858 48.6749 56.1774 48.7988 56.2614 48.9557C56.3287 49.0795 56.4295 49.1951 56.564 49.3107C57.724 50.186 58.6235 50.8135 59.2707 51.2098C59.8507 51.5566 60.4139 51.8456 60.9603 52.0685C60.9855 52.0933 61.0191 52.1098 61.0612 52.1181C61.078 52.1181 61.0948 52.1181 61.1116 52.1263C61.4983 52.2832 61.8849 52.4071 62.2716 52.4979C62.8432 52.6383 63.5577 52.7374 64.4151 52.7952C64.8942 52.8282 65.6171 52.8695 66.5754 52.919C67.1218 52.9603 67.5757 53.0346 67.9288 53.1337C68.4079 53.2741 68.7862 53.4887 69.0804 53.7612C69.3746 54.042 69.5763 54.3805 69.6688 54.7603C69.6015 54.9007 69.5847 55.0328 69.6351 55.1649C69.6604 55.231 69.6856 55.2805 69.736 55.3301C69.736 55.6356 69.6604 55.9411 69.5259 56.2631C69.3325 56.7007 69.0383 57.0888 68.6517 57.4108C68.0212 57.931 67.1302 58.2943 65.9618 58.4925C64.8438 58.6906 63.5997 58.7402 62.2212 58.6494C61.2545 58.5833 60.0104 58.4347 58.4806 58.187C57.7409 58.0631 57.1693 57.9558 56.7658 57.8567C56.1437 57.6915 55.6142 57.4934 55.1603 57.2539C54.9333 57.1301 54.6727 56.9649 54.3869 56.7668C54.0507 56.5273 53.8069 56.3457 53.6388 56.2301C52.6889 55.5365 51.6886 54.9007 50.6379 54.3144C50.4025 54.1823 50.2176 54.1245 50.0747 54.1493C49.9066 54.1741 49.7721 54.2814 49.6964 54.4713C49.6208 54.653 49.6208 54.8264 49.688 54.9998C49.7889 55.2475 50.0411 55.4869 50.453 55.7264C50.5707 55.7924 50.8901 55.9741 51.4196 56.2631C51.8231 56.4778 52.1341 56.6594 52.3779 56.8246C52.4788 56.8906 52.6049 56.9815 52.7562 57.1053C52.7226 57.1218 52.6973 57.1383 52.6637 57.1548C52.504 57.2539 52.1762 57.4851 51.6802 57.8649C50.2428 58.9631 48.6793 59.8136 46.9813 60.4164C46.3173 60.6475 45.6448 60.8457 44.9471 61.0026C44.241 61.1677 43.6106 61.2503 43.0558 61.2668C42.3749 61.2833 41.7613 61.1843 41.2233 60.9778C41.3494 60.3586 41.383 59.6485 41.3242 58.831C41.1645 56.8906 40.5172 55.0658 39.3909 53.3649C38.2645 51.6557 36.8355 50.3346 35.0955 49.3933C34.9358 49.3107 34.776 49.2694 34.6331 49.2694C34.4566 49.2694 34.3389 49.3272 34.2969 49.4593C34.2549 49.5914 34.3137 49.7483 34.4818 49.9382C34.7676 50.2603 35.4317 50.8878 36.4908 51.8126C37.3482 52.564 37.9619 53.2328 38.3317 53.819C38.5755 54.1906 38.8277 54.7355 39.1051 55.4374C39.3572 56.0814 39.5422 56.6264 39.6767 57.0723C39.8532 57.675 39.9793 58.2365 40.0297 58.7567C40.1642 60.0531 39.9541 61.1677 39.4077 62.109C38.6007 63.4549 37.012 64.4127 34.6415 64.966C33.7169 65.1889 32.8847 65.2962 32.1618 65.2962C31.254 65.2962 30.4554 65.1311 29.7746 64.7926C29.203 64.5118 28.5809 64.0247 27.8916 63.3476C27.4041 62.8604 27.0174 62.4145 26.7484 62.0017C26.387 61.4732 26.1516 60.9448 26.0592 60.4246C26.0255 60.1852 25.9919 59.9952 25.9667 59.8796C25.9247 59.6732 25.8574 59.5081 25.7734 59.3842C25.6641 59.2273 25.5128 59.1283 25.311 59.087C25.1009 59.0374 24.9412 59.087 24.8319 59.2108C24.7647 59.2934 24.7142 59.4255 24.689 59.6237C24.6134 60.3751 24.8151 61.176 25.2774 62.043C25.6809 62.7779 26.2609 63.521 27.009 64.2889C27.0763 64.3549 27.1435 64.421 27.2108 64.487C27.1771 64.5448 27.1519 64.6109 27.1267 64.6852C27.0931 64.8256 27.0763 65.0238 27.0847 65.288C27.1183 66.1962 26.967 67.088 26.6308 67.955C26.2945 68.822 25.8154 69.5816 25.1765 70.2422C24.4536 71.0018 23.6719 71.4642 22.8397 71.6211C22.369 71.7119 21.9151 71.6871 21.4696 71.555C20.9904 71.4147 20.6122 71.1669 20.3348 70.8202C20.133 70.5807 19.9817 70.2752 19.864 69.9036C19.7884 69.6642 19.7127 69.3256 19.6371 68.8715C19.4606 67.8311 19.3597 67.0715 19.3429 66.6008C19.3261 66.1054 19.3597 65.5605 19.4353 64.9577C19.4858 64.5861 19.5782 64.0412 19.7127 63.3311C19.9313 62.1503 20.0994 61.2751 20.2171 60.7136C20.4272 59.7475 20.6458 58.8806 20.8896 58.1374C21.0913 57.5182 21.3099 57.0558 21.5368 56.7668C21.6965 56.5521 21.8815 56.3787 22.1 56.2466C22.3354 56.1062 22.5707 56.0236 22.8229 56.0154C22.8649 56.0154 22.949 56.0154 23.0919 56.0154C23.218 56.3622 23.4449 56.7503 23.7728 57.1961C23.9409 57.4191 24.0922 57.576 24.2351 57.6503C24.336 57.7081 24.4452 57.7328 24.5629 57.7328C24.6806 57.7328 24.7815 57.6998 24.8655 57.6338C24.9748 57.5429 25.0336 57.4108 25.0336 57.2374C25.0336 57.0805 24.9748 56.9402 24.8823 56.7998C24.8235 56.709 24.7226 56.6016 24.5797 56.453C24.4368 56.3044 24.336 56.1888 24.2771 56.1062C24.1342 55.908 24.0249 55.5778 23.9325 55.1319L23.3777 52.4566C23.3273 52.1841 23.218 52.0355 23.0583 52.0025C23.0331 52.0025 23.0078 52.0025 22.9826 52.0025C22.9574 51.9777 22.9406 51.9612 22.9238 51.9364C22.8397 51.8621 22.7388 51.8126 22.6296 51.7795C22.4783 51.7383 22.2513 51.7383 21.9571 51.7878C21.5452 51.8869 21.2426 51.9612 21.0325 52.0107C20.6626 52.0933 20.3516 52.1346 20.091 52.1429C19.4774 52.1429 18.7965 51.9199 18.04 51.474C17.6197 51.2181 17.3171 50.9704 17.1237 50.7227C16.9388 50.4997 16.7875 50.2272 16.6614 49.897C16.5774 49.674 16.4849 49.3603 16.3924 48.9722C16.3084 48.6171 16.2579 48.3364 16.2411 48.13C16.2075 47.8162 16.2159 47.5272 16.2663 47.2795C16.3336 46.9822 16.4765 46.6932 16.6866 46.429C16.88 46.1813 17.1153 45.9666 17.4011 45.785C17.8466 45.496 18.4435 45.273 19.2084 45.1079C19.6875 45.0088 20.1078 44.951 20.4693 44.9428C21.2174 44.918 21.9823 45.0666 22.7557 45.3886C23.4449 45.6694 24.1258 46.074 24.7815 46.6024C24.8403 46.652 24.8992 46.6932 24.9412 46.7263C24.8571 46.8914 24.8067 47.04 24.7815 47.1722C24.7647 47.3125 24.7815 47.4446 24.8403 47.5767C24.8992 47.7089 24.9916 47.8079 25.1093 47.8657C25.2354 47.9235 25.3783 47.9318 25.5296 47.8823C25.6725 47.8492 25.7902 47.7749 25.8995 47.6676C25.9835 47.585 26.076 47.4777 26.16 47.329C26.2105 47.2465 26.2861 47.1226 26.387 46.9575C26.7653 46.3465 27.3789 45.7685 28.2363 45.2235C29.0769 44.6868 30.0519 44.2079 31.1531 43.795C32.0189 43.4813 33.0612 43.1675 34.2885 42.862C34.9946 42.6886 36.0537 42.4326 37.4659 42.0941C38.7016 41.7803 39.7439 41.4583 40.6013 41.1446C40.9459 41.0124 41.2822 40.8803 41.6016 40.74C43.1987 40.0299 44.4848 39.1464 45.4599 38.0977C45.5524 38.3124 45.6532 38.5188 45.7541 38.7087C45.939 39.0473 46.2248 39.4601 46.6115 39.939C47.0318 40.4592 47.3932 40.8225 47.6958 41.0372C48.1834 41.3757 48.6625 41.5244 49.1501 41.4913C49.3098 41.4748 49.4106 41.4335 49.4611 41.351C49.5283 41.2519 49.5115 41.1446 49.4106 41.0124C49.3518 40.9546 49.2509 40.8886 49.0996 40.806C48.8895 40.6822 48.6709 40.517 48.4608 40.3023C48.3179 40.162 48.133 39.9555 47.906 39.6913C47.595 39.3198 47.368 39.039 47.2083 38.8409C46.9645 38.5188 46.7712 38.2051 46.6283 37.9161C46.4518 37.5445 46.2584 36.9913 46.0567 36.2647C45.8634 35.5793 45.7289 35.0592 45.6364 34.7124C45.4935 34.1344 45.401 33.5977 45.3338 33.127C45.2329 32.3591 45.1993 31.3022 45.2329 29.9729C45.2329 29.5435 45.2834 29.2215 45.359 28.9985C45.4179 28.8251 45.4599 28.7095 45.4683 28.66C45.4851 28.5361 45.4683 28.4288 45.401 28.3545C45.3338 28.2802 45.2497 28.2554 45.1405 28.2637C45.0312 28.2719 44.9471 28.3132 44.8715 28.3958C44.779 28.4866 44.7034 28.6682 44.6361 28.9242C44.5436 29.3371 44.468 29.7417 44.4092 30.138C44.3251 30.1132 44.2326 30.0967 44.1318 30.0884C44.0141 30.0719 43.846 30.0719 43.619 30.0802C42.0891 30.1132 40.45 30.138 38.7016 30.1462C35.6839 30.1628 32.3383 30.1462 28.6734 30.105C24.731 30.0554 21.6713 29.9316 19.4942 29.7251C16.115 29.4031 13.1394 28.8004 10.5588 27.9169C8.15468 27.0912 6.21293 26.059 4.73349 24.804C3.85929 24.0609 3.13638 23.2434 2.55638 22.3269C1.94275 21.3526 1.53927 20.3452 1.34593 19.3048C1.14419 18.2066 1.19463 17.1167 1.50564 16.0516C1.82507 14.9369 2.37145 14.0121 3.15319 13.269C3.75001 12.7075 4.50654 12.2286 5.41437 11.8405C6.11206 11.5515 6.97786 11.2873 8.02019 11.0396C11.164 10.3047 14.4507 9.95792 17.8803 9.99921C19.4606 10.0157 20.9232 10.1231 22.2681 10.3047C23.487 10.4699 24.8487 10.7423 26.3702 11.1222C29.018 11.7662 31.6154 12.5506 34.1456 13.4754C38.4494 15.036 42.5935 16.9846 46.5695 19.3131C47.4857 19.8498 48.259 20.337 48.8811 20.7746C49.6964 21.336 50.4025 21.8975 51.0162 22.459C51.3356 22.7562 51.5962 22.8636 51.8063 22.781C51.8567 22.7562 51.9072 22.7232 51.9408 22.6902C51.966 22.6902 51.9996 22.6819 52.0417 22.6654C52.1762 22.6159 52.2854 22.5333 52.3863 22.426C52.9747 21.6994 53.5127 21.0966 53.9834 20.6342C54.6055 20.0232 55.2359 19.5278 55.8663 19.1479C56.749 18.6195 57.7324 18.2727 58.8084 18.0911M34.6415 12.3029C34.1624 12.1213 33.7001 11.9479 33.263 11.791C31.3549 11.1056 29.5644 10.5524 27.8916 10.1313C24.7731 9.34691 21.6377 8.89277 18.4687 8.77717C15.2828 8.66158 12.1643 8.89277 9.12135 9.4625C9.12135 9.39645 9.09614 9.33039 9.07092 9.25608C8.8944 8.68635 8.83555 8.10836 8.87758 7.52211C8.91961 6.91935 9.07932 6.35788 9.33991 5.84594C9.83585 4.89639 10.7353 4.07069 12.0382 3.36059C13.3159 2.66701 14.9466 2.11379 16.9388 1.69268C18.4435 1.37892 19.7716 1.21378 20.9232 1.18075C21.4696 1.17249 22.0916 1.18075 22.7725 1.23855C23.1423 1.26332 23.7644 1.31286 24.6302 1.40369C25.8742 1.52754 26.8241 1.63488 27.4713 1.72571C28.5221 1.86608 29.4551 2.03122 30.2789 2.22113C32.0778 2.63398 33.9943 3.31931 36.0201 4.27712C38.9538 5.64778 41.8874 7.43129 44.821 9.62764C45.2161 9.91664 45.6028 10.2221 45.9979 10.5277C48.7298 12.6827 51.6298 15.3415 54.6979 18.5039C54.6979 18.5039 54.7063 18.5122 54.7147 18.5204C54.5887 18.6112 54.4626 18.7103 54.3365 18.8094C53.2605 19.6847 52.4704 20.7168 51.9744 21.8975C51.8988 21.7902 51.7895 21.6828 51.6634 21.559C49.9822 19.9654 47.906 18.4874 45.4431 17.1332C43.6526 16.1424 41.3158 15.0442 38.4494 13.847C37.0372 13.2607 35.7595 12.7405 34.5995 12.3029M64.5076 47.5272C64.5832 47.5767 64.6757 47.6263 64.7766 47.6758C65.7516 48.1382 66.6595 48.485 67.4917 48.7162C68.5004 48.9887 69.4502 49.1125 70.3496 49.0795C70.5598 49.0795 70.896 49.0465 71.3499 48.9969C71.7786 48.9557 72.1065 48.9226 72.3418 48.9226C73.132 48.8979 73.7792 49.0217 74.2752 49.2942C74.5778 49.4593 74.8216 49.674 75.0149 49.9465C75.2166 50.2355 75.3091 50.541 75.3175 50.8548C75.3175 51.152 75.225 51.4906 75.0233 51.8704C74.7963 52.2997 74.5526 52.63 74.292 52.8612C74.023 53.0841 73.5775 53.3236 72.9471 53.5796C72.1317 53.9099 71.5097 54.108 71.0641 54.1823C71.0221 54.1823 70.9801 54.1906 70.9465 54.1988C70.9128 54.108 70.8708 54.0172 70.8372 53.9181C70.6186 53.4475 70.316 53.0429 69.9125 52.7208C69.1728 52.1016 68.0969 51.7217 66.6847 51.6062C66.4493 51.5814 65.8693 51.5566 64.9447 51.5236C64.2302 51.4988 63.6586 51.4493 63.2215 51.375C62.9861 51.3337 62.7423 51.2841 62.4986 51.2263C62.7003 50.9951 62.902 50.7392 63.0954 50.4502C63.7594 49.4841 64.2386 48.5015 64.5244 47.5189M32.4644 66.6174C32.4392 66.7082 32.4224 66.8238 32.4224 66.9394C32.414 67.1293 32.3972 67.41 32.3804 67.7816C32.3552 68.1036 32.3131 68.3761 32.2291 68.599C32.1366 68.888 31.9853 69.1275 31.792 69.3256C31.5734 69.5403 31.3296 69.6724 31.0606 69.6972C30.6656 69.755 30.2369 69.5981 29.7661 69.2431C29.3795 68.9458 29.0601 68.599 28.7827 68.2027C28.5809 67.9137 28.4128 67.5999 28.2867 67.2779C28.4464 66.6586 28.5137 66.0724 28.4801 65.5027C28.6986 65.6595 28.9172 65.7916 29.1273 65.899C30.0688 66.3779 31.1783 66.6091 32.456 66.6008L32.4644 66.6174Z" fill="#4F4527"/>
</svg>
