<svg width="75" height="48" viewBox="0 0 75 48" fill="none" xmlns="http://www.w3.org/2000/svg">
<rect x="0.5" y="0.5" width="74" height="47" rx="19.5" fill="white"/>
<rect x="0.5" y="0.5" width="74" height="47" rx="19.5" stroke="#009FDE"/>
<path d="M21.5598 15.24V28.224L23.9838 28.416V30H16.3758V28.416L19.2558 28.224V17.4L16.3758 17.52V16.128L19.2078 15.6L20.3598 15.24H21.5598ZM31.0051 30.096C27.5011 30.096 25.4131 27.408 25.4131 22.872C25.4131 18.12 27.6211 15.24 31.3171 15.24C34.7971 15.24 36.8371 17.952 36.8371 22.488C36.8371 27.456 34.8931 30.096 31.0051 30.096ZM31.2931 28.32C32.2291 28.32 32.9731 28.104 33.5491 27.72C34.1731 26.904 34.5331 24.888 34.5331 22.848C34.5331 18.936 33.4531 17.016 30.9331 17.016C30.0451 17.016 29.3491 17.256 28.8211 17.688C28.0531 18.6 27.7171 20.568 27.7171 22.632C27.7171 26.4 28.7971 28.32 31.2931 28.32ZM45.4295 23.352H38.8535L38.9975 21.672H45.5975L45.4295 23.352ZM53.2238 30.096C49.7198 30.096 47.6318 27.408 47.6318 22.872C47.6318 18.12 49.8398 15.24 53.5358 15.24C57.0158 15.24 59.0558 17.952 59.0558 22.488C59.0558 27.456 57.1118 30.096 53.2238 30.096ZM53.5118 28.32C54.4478 28.32 55.1918 28.104 55.7678 27.72C56.3918 26.904 56.7518 24.888 56.7518 22.848C56.7518 18.936 55.6718 17.016 53.1518 17.016C52.2638 17.016 51.5678 17.256 51.0398 17.688C50.2718 18.6 49.9358 20.568 49.9358 22.632C49.9358 26.4 51.0158 28.32 53.5118 28.32Z" fill="#383745"/>
</svg>
