<?xml version="1.0" encoding="UTF-8"?>
<svg width="124px" height="38px" viewBox="0 0 124 38" version="1.1" xmlns="http://www.w3.org/2000/svg" xmlns:xlink="http://www.w3.org/1999/xlink">
    <!-- Generator: Sketch 63.1 (92452) - https://sketch.com -->
    <title>CET_logo</title>
    <desc>Created with Sketch.</desc>
    <defs>
        <polygon id="path-1" points="0 0.000273627179 123.940803 0.000273627179 123.940803 37.987 0 37.987"></polygon>
    </defs>
    <g id="Symbols" stroke="none" stroke-width="1" fill="none" fill-rule="evenodd">
        <g id="Header" transform="translate(-1436.000000, -24.000000)">
            <g id="CET_logo" transform="translate(1436.000000, 24.000000)">
                <mask id="mask-2" fill="white">
                    <use xlink:href="#path-1"></use>
                </mask>
                <g id="Clip-2"></g>
                <path d="M36.399,37.759 L38.102,37.759 L38.102,34.57 L36.399,34.57 L36.399,37.759 Z M42.023,37.759 L40.32,37.759 L40.32,34.432 C40.32,33.899 40.236,33.554 40.069,33.397 C39.901,33.242 39.57,33.163 39.074,33.163 L36.399,33.163 L36.399,32.02 L39.829,32.02 C40.606,32.02 41.166,32.196 41.51,32.546 C41.852,32.896 42.023,33.491 42.023,34.329 L42.023,37.759 Z" id="Fill-1" fill="#005DAC" mask="url(#mask-2)"></path>
                <path d="M108.596,37.759 L110.299,37.759 L110.299,34.57 L108.596,34.57 L108.596,37.759 Z M114.22,37.759 L112.516,37.759 L112.516,34.432 C112.516,33.899 112.432,33.554 112.265,33.397 C112.098,33.242 111.765,33.163 111.27,33.163 L108.596,33.163 L108.596,32.02 L112.025,32.02 C112.803,32.02 113.362,32.196 113.705,32.546 C114.049,32.896 114.22,33.491 114.22,34.329 L114.22,37.759 Z" id="Fill-3" fill="#005DAC" mask="url(#mask-2)"></path>
                <path d="M107.9276,34.8895 C107.9276,35.7045 107.8246,36.3485 107.6186,36.8215 C107.2996,37.5525 106.7426,37.9185 105.9496,37.9185 C105.7906,37.9185 105.6326,37.9075 105.4766,37.8845 C105.3206,37.8615 105.1386,37.8195 104.9336,37.7585 L104.9336,36.6385 C104.9796,36.6605 105.0176,36.6765 105.0476,36.6835 C105.1546,36.7225 105.2496,36.7415 105.3326,36.7415 C105.5846,36.7415 105.7826,36.6305 105.9276,36.4095 C106.1336,36.1045 106.2366,35.5975 106.2366,34.8895 C106.2366,34.1805 106.1796,33.6965 106.0656,33.4375 C105.9196,33.1175 105.6386,32.9575 105.2186,32.9575 C104.6476,32.9575 104.2426,33.2045 104.0076,33.7005 C103.8476,34.0355 103.7676,34.4855 103.7676,35.0495 L103.7676,37.7585 L102.0746,37.7585 L102.0746,33.7115 C102.0746,33.3615 102.0606,32.9915 102.0306,32.6025 C101.9986,32.2145 101.9686,32.0195 101.9386,32.0195 L103.3666,32.0195 C103.4206,32.0195 103.4776,32.1385 103.5386,32.3745 C103.5996,32.6105 103.6296,32.8205 103.6296,33.0035 L103.6986,33.0265 C103.8586,32.7215 104.0986,32.4545 104.4186,32.2255 C104.7776,31.9665 105.1846,31.8375 105.6416,31.8375 C106.5716,31.8375 107.2036,32.1155 107.5396,32.6715 C107.7986,33.1055 107.9276,33.8455 107.9276,34.8895" id="Fill-4" fill="#005DAC" mask="url(#mask-2)"></path>
                <path d="M101.203,37.7586 L99.385,37.7586 L99.385,34.4776 C99.385,34.0206 99.316,33.6926 99.18,33.4946 C99.012,33.2586 98.715,33.1406 98.288,33.1406 L96.299,33.1406 L96.299,32.0196 L98.882,32.0196 C99.773,32.0196 100.384,32.1606 100.711,32.4436 C101.039,32.7246 101.203,33.2396 101.203,33.9866 L101.203,37.7586 Z" id="Fill-5" fill="#005DAC" mask="url(#mask-2)"></path>
                <path d="M93.1835,37.7586 L91.0455,37.7586 L91.0455,36.6266 L92.9445,36.6266 C93.4395,36.6266 93.8315,36.4476 94.1205,36.0896 C94.3875,35.7616 94.5215,35.3616 94.5215,34.8896 C94.5215,34.4086 94.3915,34.0086 94.1325,33.6886 C93.8355,33.3226 93.4395,33.1406 92.9445,33.1406 L91.0455,33.1406 L91.0455,32.0196 L93.1835,32.0196 C94.1595,32.0196 94.9325,32.3176 95.5035,32.9116 C96.0225,33.4526 96.2815,34.1126 96.2815,34.8896 C96.2815,35.6746 96.0265,36.3336 95.5155,36.8666 C94.9445,37.4616 94.1665,37.7586 93.1835,37.7586" id="Fill-6" fill="#005DAC" mask="url(#mask-2)"></path>
                <path d="M90.201,33.1517 C89.722,33.1517 89.433,33.2077 89.339,33.3187 C89.243,33.4287 89.195,33.7557 89.195,34.2977 L89.195,37.7587 L87.492,37.7587 L87.492,34.7067 L87.492,34.3637 C87.492,34.0437 87.534,33.8037 87.618,33.6437 C87.74,33.4067 87.987,33.2467 88.361,33.1637 C88.353,33.1557 88.281,33.1517 88.143,33.1517 L87.778,33.1517 L87.087,33.1517 L86.544,33.1517 L86.544,32.0197 L90.201,32.0197 L90.201,33.1517 Z" id="Fill-7" fill="#005DAC" mask="url(#mask-2)"></path>
                <path d="M82.828,33.1405 L82.051,37.7585 L80.359,37.7585 L81.022,34.2495 C81.053,34.1195 81.075,34.0075 81.091,33.9115 C81.106,33.8165 81.113,33.7265 81.113,33.6435 C81.113,33.4915 81.066,33.3695 80.971,33.2775 C80.876,33.1855 80.71,33.1405 80.474,33.1405 L79.182,33.1405 C78.816,33.1405 78.53,33.0685 78.324,32.9235 C78.065,32.7415 77.935,32.4415 77.935,32.0235 L77.935,30.6445 C77.935,30.2875 77.905,29.9725 77.845,29.6995 C77.837,29.6535 77.817,29.5925 77.787,29.5165 L79.433,29.5165 C79.456,29.5705 79.472,29.6195 79.479,29.6645 C79.562,29.9525 79.604,30.2485 79.604,30.5525 C79.604,31.2875 79.636,31.7165 79.696,31.8385 C79.757,31.9595 79.971,32.0195 80.337,32.0195 L81.776,32.0195 C82.127,32.0195 82.394,32.1225 82.577,32.3285 C82.79,32.5805 82.874,32.8505 82.828,33.1405" id="Fill-8" fill="#005DAC" mask="url(#mask-2)"></path>
                <path d="M77.8905,35.0555 C77.8905,36.1315 77.6355,36.9025 77.1245,37.3685 C76.6675,37.7815 75.9585,37.9875 74.9985,37.9875 C73.8855,37.9875 73.0705,37.7235 72.5525,37.1985 C72.1715,36.8095 71.9815,36.3185 71.9815,35.7235 L71.9815,32.0195 L73.6845,32.0195 L73.6845,35.2895 C73.6845,35.7465 73.7715,36.0975 73.9475,36.3415 C74.1675,36.6535 74.5185,36.8095 74.9985,36.8095 C75.5395,36.8095 75.8945,36.6185 76.0615,36.2365 C76.1535,36.0225 76.1995,35.6285 76.1995,35.0555 C76.1995,34.4445 76.1575,34.0045 76.0735,33.7365 C75.9285,33.2705 75.6345,33.0375 75.1935,33.0375 C75.0405,33.0375 74.8955,33.0645 74.7585,33.1175 C74.7125,33.1325 74.6595,33.1595 74.5985,33.1975 L74.5985,32.1455 C74.7965,32.0165 74.9855,31.9285 75.1635,31.8835 C75.3435,31.8375 75.5585,31.8145 75.8105,31.8145 C76.5115,31.8145 77.0335,32.0725 77.3755,32.5875 C77.7195,33.1025 77.8905,33.9255 77.8905,35.0555" id="Fill-9" fill="#005DAC" mask="url(#mask-2)"></path>
                <path d="M68.2118,37.7586 L66.0748,37.7586 L66.0748,36.6266 L67.9728,36.6266 C68.4678,36.6266 68.8598,36.4476 69.1488,36.0896 C69.4158,35.7616 69.5498,35.3616 69.5498,34.8896 C69.5498,34.4086 69.4198,34.0086 69.1608,33.6886 C68.8638,33.3226 68.4678,33.1406 67.9728,33.1406 L66.0748,33.1406 L66.0748,32.0196 L68.2118,32.0196 C69.1878,32.0196 69.9608,32.3176 70.5328,32.9116 C71.0508,33.4526 71.3108,34.1126 71.3108,34.8896 C71.3108,35.6746 71.0548,36.3336 70.5438,36.8666 C69.9728,37.4616 69.1948,37.7586 68.2118,37.7586" id="Fill-10" fill="#005DAC" mask="url(#mask-2)"></path>
                <path d="M65.2577,37.7586 L61.6797,37.7586 L61.6797,36.6266 L63.5547,36.6266 L63.5547,34.4546 C63.5547,33.9596 63.5017,33.6286 63.3947,33.4606 C63.2577,33.2466 62.9757,33.1406 62.5487,33.1406 L61.7597,33.1406 L61.7597,32.0196 L63.3607,32.0196 C63.9317,32.0196 64.3777,32.1606 64.6977,32.4436 C65.0707,32.7706 65.2577,33.2656 65.2577,33.9286 L65.2577,37.7586 Z" id="Fill-11" fill="#005DAC" mask="url(#mask-2)"></path>
                <path d="M60.6786,37.7586 L58.9756,37.7586 L58.9756,33.1406 C58.9756,32.7586 58.9416,32.4396 58.8726,32.1796 C58.8656,32.1346 58.8456,32.0806 58.8156,32.0196 L60.4616,32.0196 C60.5076,32.1566 60.5416,32.2716 60.5646,32.3626 C60.6406,32.6676 60.6786,32.9346 60.6786,33.1636 L60.6786,37.7586 Z" id="Fill-12" fill="#005DAC" mask="url(#mask-2)"></path>
                <path d="M58.0213,33.1405 L57.2443,37.7585 L55.5513,37.7585 L56.2143,34.2495 C56.2453,34.1195 56.2683,34.0075 56.2833,33.9115 C56.2983,33.8165 56.3063,33.7265 56.3063,33.6435 C56.3063,33.4915 56.2583,33.3695 56.1633,33.2775 C56.0683,33.1855 55.9023,33.1405 55.6663,33.1405 L54.3753,33.1405 C54.0083,33.1405 53.7223,33.0685 53.5173,32.9235 C53.2573,32.7415 53.1283,32.4415 53.1283,32.0235 L53.1283,30.6445 C53.1283,30.2875 53.0973,29.9725 53.0373,29.6995 C53.0293,29.6535 53.0103,29.5925 52.9793,29.5165 L54.6253,29.5165 C54.6493,29.5705 54.6643,29.6195 54.6713,29.6645 C54.7553,29.9525 54.7973,30.2485 54.7973,30.5525 C54.7973,31.2875 54.8283,31.7165 54.8883,31.8385 C54.9503,31.9595 55.1633,32.0195 55.5293,32.0195 L56.9693,32.0195 C57.3203,32.0195 57.5863,32.1225 57.7693,32.3285 C57.9833,32.5805 58.0663,32.8505 58.0213,33.1405" id="Fill-13" fill="#005DAC" mask="url(#mask-2)"></path>
                <path d="M52.3895,37.7586 L50.6855,37.7586 L50.6855,33.1406 C50.6855,32.7586 50.6515,32.4396 50.5825,32.1796 C50.5755,32.1346 50.5565,32.0806 50.5265,32.0196 L52.1715,32.0196 C52.2175,32.1566 52.2515,32.2716 52.2745,32.3626 C52.3505,32.6676 52.3895,32.9346 52.3895,33.1636 L52.3895,37.7586 Z" id="Fill-14" fill="#005DAC" mask="url(#mask-2)"></path>
                <path d="M49.6209,37.7586 L48.0659,37.7586 C47.9599,37.6436 47.8939,37.5206 47.8719,37.3866 C47.8499,37.2536 47.8379,37.0876 47.8379,36.8896 C47.8379,36.7296 47.8179,36.6496 47.7799,36.6496 C47.7729,36.6496 47.6739,36.8626 47.4829,37.2896 C47.2929,37.7166 46.9579,37.9296 46.4769,37.9296 C46.1189,37.9296 45.8719,37.9036 45.7339,37.8496 C45.6879,37.8346 45.6499,37.8036 45.6199,37.7586 L45.6199,36.4666 C45.8589,36.5886 46.0979,36.6496 46.3369,36.6496 C46.7289,36.6496 47.0559,36.4816 47.3129,36.1466 C47.5709,35.8116 47.6999,35.3316 47.6999,34.7066 C47.6999,33.9596 47.6039,33.5156 47.4109,33.3746 C47.2189,33.2336 46.6669,33.1636 45.7579,33.1636 L45.7579,32.0196 L47.1259,32.0196 C47.9929,32.0196 48.5889,32.2046 48.9149,32.5746 C49.2409,32.9446 49.4039,33.6246 49.4039,34.6146 L49.4039,36.3866 C49.4039,36.6226 49.4209,36.8706 49.4549,37.1296 C49.4889,37.3886 49.5449,37.5986 49.6209,37.7586" id="Fill-15" fill="#005DAC" mask="url(#mask-2)"></path>
                <path d="M44.9012,35.3465 L43.1742,35.3465 L43.1742,33.1405 C43.1742,32.9195 43.1482,32.7095 43.0942,32.5115 C43.0422,32.3135 42.9762,32.1495 42.9002,32.0195 L44.6152,32.0195 C44.7072,32.1645 44.7672,32.2985 44.7972,32.4205 C44.8672,32.6565 44.9012,32.8965 44.9012,33.1405 L44.9012,35.3465 Z" id="Fill-16" fill="#005DAC" mask="url(#mask-2)"></path>
                <path d="M31.5868,37.7586 L29.8838,37.7586 L29.8838,34.4466 C29.8838,33.8886 29.8228,33.5336 29.7008,33.3806 C29.5788,33.2286 29.3008,33.1516 28.8668,33.1516 L27.5178,33.1516 L27.5178,37.7586 L25.8148,37.7586 L25.8148,32.0196 L29.6088,32.0196 C30.3718,32.0196 30.9048,32.1956 31.2098,32.5476 C31.4618,32.8376 31.5868,33.2956 31.5868,33.9216 L31.5868,37.7586 Z" id="Fill-17" fill="#005DAC" mask="url(#mask-2)"></path>
                <path d="M25.0321,35.3465 L23.3051,35.3465 L23.3051,33.1405 C23.3051,32.9195 23.2791,32.7095 23.2251,32.5115 C23.1731,32.3135 23.1071,32.1495 23.0311,32.0195 L24.7461,32.0195 C24.8381,32.1645 24.8981,32.2985 24.9291,32.4205 C24.9981,32.6565 25.0321,32.8965 25.0321,33.1405 L25.0321,35.3465 Z" id="Fill-18" fill="#005DAC" mask="url(#mask-2)"></path>
                <path d="M22.5526,37.7586 L18.9746,37.7586 L18.9746,36.6266 L20.8496,36.6266 L20.8496,34.4546 C20.8496,33.9596 20.7956,33.6286 20.6896,33.4606 C20.5526,33.2466 20.2706,33.1406 19.8436,33.1406 L19.0546,33.1406 L19.0546,32.0196 L20.6556,32.0196 C21.2266,32.0196 21.6726,32.1606 21.9916,32.4436 C22.3656,32.7706 22.5526,33.2656 22.5526,33.9286 L22.5526,37.7586 Z" id="Fill-19" fill="#005DAC" mask="url(#mask-2)"></path>
                <path d="M17.9276,37.7586 L16.2246,37.7586 L16.2246,33.1406 C16.2246,32.7586 16.1906,32.4396 16.1216,32.1796 C16.1146,32.1346 16.0946,32.0806 16.0646,32.0196 L17.7106,32.0196 C17.7566,32.1566 17.7906,32.2716 17.8136,32.3626 C17.8896,32.6676 17.9276,32.9346 17.9276,33.1636 L17.9276,37.7586 Z" id="Fill-20" fill="#005DAC" mask="url(#mask-2)"></path>
                <path d="M12.3456,37.7586 L10.2076,37.7586 L10.2076,36.6266 L12.1056,36.6266 C12.6016,36.6266 12.9936,36.4476 13.2826,36.0896 C13.5496,35.7616 13.6836,35.3616 13.6836,34.8896 C13.6836,34.4086 13.5536,34.0086 13.2946,33.6886 C12.9966,33.3226 12.6016,33.1406 12.1056,33.1406 L10.2076,33.1406 L10.2076,32.0196 L12.3456,32.0196 C13.3216,32.0196 14.0946,32.3176 14.6656,32.9116 C15.1846,33.4526 15.4436,34.1126 15.4436,34.8896 C15.4436,35.6746 15.1886,36.3336 14.6776,36.8666 C14.1066,37.4616 13.3286,37.7586 12.3456,37.7586" id="Fill-21" fill="#005DAC" mask="url(#mask-2)"></path>
                <path d="M9.4061,35.3465 L7.6791,35.3465 L7.6791,33.1405 C7.6791,32.9195 7.6531,32.7095 7.6001,32.5115 C7.5471,32.3135 7.4821,32.1495 7.4051,32.0195 L9.1201,32.0195 C9.2121,32.1645 9.2721,32.2985 9.3031,32.4205 C9.3721,32.6565 9.4061,32.8965 9.4061,33.1405 L9.4061,35.3465 Z" id="Fill-22" fill="#005DAC" mask="url(#mask-2)"></path>
                <path d="M6.7557,37.7586 L5.0527,37.7586 L5.0527,34.4666 C5.0527,33.9176 4.9877,33.5636 4.8587,33.4036 C4.7287,33.2426 4.4197,33.1636 3.9327,33.1636 L2.6517,33.1636 L2.6517,35.8956 C2.6517,36.7256 2.5607,37.2726 2.3777,37.5356 C2.1947,37.7986 1.7867,37.9296 1.1537,37.9296 C0.7047,37.9296 0.4007,37.9036 0.2397,37.8496 C0.0797,37.7966 -0.0003,37.7276 -0.0003,37.6436 L-0.0003,36.5006 C0.0687,36.5466 0.1217,36.5766 0.1597,36.5926 C0.2967,36.6606 0.4147,36.6956 0.5147,36.6956 C0.6367,36.6956 0.7387,36.6396 0.8227,36.5296 C0.9067,36.4196 0.9487,36.2266 0.9487,35.9526 L0.9487,32.0196 L4.4817,32.0196 C5.4337,32.0196 6.0507,32.1726 6.3327,32.4776 C6.6147,32.7816 6.7557,33.4036 6.7557,34.3406 L6.7557,37.7586 Z" id="Fill-23" fill="#005DAC" mask="url(#mask-2)"></path>
                <path d="M76.16,1.1253 C76.966,0.3633 77.787,0.000273627179 78.65,0.000273627179 L107.208,0.000273627179 C107.208,0.000273627179 110.639,-0.0537 110.987,4.7253 C111.884,3.0773 113.338,2.8113 114.791,2.7323 L120.687,2.7323 C120.687,2.7323 125.257,2.4473 123.565,6.7073 L115.735,25.9723 C115.735,25.9723 114.709,28.0553 112.344,28.0553 L93.629,28.0553 C93.637,28.0553 93.64,28.0563 93.64,28.0563 C93.64,28.0683 92.002,28.1613 91.412,26.3113 C91.337,26.4183 90.056,27.9823 88.602,28.0553 C88.438,28.0553 82.293,28.0653 80.665,28.0453 C79.396,28.0553 78.633,27.4983 78.33,25.6813 C78.33,25.6813 75.404,2.9703 75.353,2.8963 C75.353,2.9233 75.355,2.9373 75.355,2.9373 C75.3519595,2.9083 75.351,2.8943 75.353,2.8963 C75.348,2.7023 75.377,1.8653 76.16,1.1253 M107.9,4.62829939 L91.811,4.62829939 C90.316,4.62829939 88.589,5.8563 87.955,7.3723 L81.223,23.4453 C80.589,24.9613 81.287,26.1893 82.783,26.1893 L87.105,26.1893 C88.6,26.1893 90.328,24.9613 90.962,23.4453 L97.617,7.5863 C97.871,6.9803 98.526,6.4893 99.08,6.4893 C99.635,6.4893 99.878,6.9803 99.624,7.5863 L92.99,23.4453 C92.355,24.9613 93.054,26.1893 94.549,26.1893 L110.512,26.1893 C112.756,26.2383 113.734,24.9613 114.369,23.4453 L121.099,7.3723 C121.734,5.8563 121.841,4.6273 119.541,4.62829939 L115.218,4.62829939 C113.723,4.62829939 111.995,5.8563 111.361,7.3723 L104.716,23.2383 C104.462,23.8443 103.831,24.3353 103.306,24.3353 C102.78,24.3353 102.56,23.8443 102.814,23.2383 L109.496,7.2813 C110.065,5.8083 109.366,4.62829939 107.9,4.62829939" id="Fill-24" fill="#005DAC" mask="url(#mask-2)"></path>
                <path d="M48.3514,16.203 C48.3514,19.957 47.3414,22.93 45.3224,25.12 C43.2174,27.396 40.2164,28.534 36.3204,28.534 C32.8784,28.534 30.1624,27.737 28.1704,26.144 C25.9814,24.409 24.8854,21.906 24.8854,18.635 L24.8854,7.926 C24.8854,6.987 25.2554,6.247 25.9954,5.707 C26.6214,5.224 27.4164,4.981 28.3844,4.981 C29.3514,4.981 30.1474,5.224 30.7734,5.707 C31.5124,6.247 31.8824,6.987 31.8824,7.926 L31.8824,18.891 C31.8824,22.219 33.4184,23.883 36.4904,23.883 C38.1124,23.883 39.3344,23.03 40.1604,21.323 C40.7854,19.986 41.0984,18.336 41.0984,16.373 C41.0984,12.05 40.3164,9.888 38.7514,9.888 C38.3814,9.888 37.8704,10.343 37.2154,11.254 C36.5614,12.164 35.9504,12.619 35.3814,12.619 C34.7844,12.619 34.3004,12.349 33.9304,11.808 C33.6464,11.353 33.5034,10.87 33.5034,10.358 C33.5034,9.618 33.7464,8.75 34.2294,7.755 C35.1394,5.906 36.9884,4.981 39.7754,4.981 C42.7904,4.981 45.0514,6.219 46.5594,8.694 C47.7534,10.684 48.3514,13.188 48.3514,16.203" id="Fill-25" fill="#005DAC" mask="url(#mask-2)"></path>
                <path d="M22.5506,25.2533 C22.5506,26.1903 22.1816,26.9283 21.4416,27.4683 C20.8166,27.9513 20.0196,28.1923 19.0526,28.1923 C18.0856,28.1923 17.2886,27.9513 16.6626,27.4693 C15.9236,26.9293 15.5536,26.1913 15.5536,25.2553 L15.5536,14.6563 C15.5536,11.7623 14.0036,10.3153 10.9046,10.3153 L7.8316,10.3153 L7.8316,25.2553 C7.8316,26.1913 7.4616,26.9293 6.7226,27.4693 C6.0966,27.9513 5.3006,28.1923 4.3336,28.1923 C3.3656,28.1923 2.5706,27.9513 1.9446,27.4683 C1.2046,26.9283 0.8346,26.1903 0.8346,25.2533 L0.8346,8.2193 C0.8346,6.3453 1.8726,5.4083 3.9486,5.4083 L12.8656,5.4083 C15.6536,5.4083 17.9286,6.1183 19.6926,7.5373 C21.5986,9.0703 22.5506,11.1713 22.5506,13.8403 L22.5506,25.2533 Z" id="Fill-26" fill="#005DAC" mask="url(#mask-2)"></path>
                <path d="M74.0174,16.4588 C74.0174,19.6728 73.3344,22.3038 71.9694,24.3528 C70.3204,26.8268 67.8604,28.0638 64.5884,28.0638 L62.6264,28.0638 C61.2044,28.0638 60.4934,27.2538 60.4934,25.6318 C60.4934,23.9818 61.2044,23.1578 62.6264,23.1578 L63.3094,23.1578 C64.8164,23.1578 65.8264,22.3328 66.3374,20.6828 C66.6514,19.7158 66.8074,18.2788 66.8074,16.3738 C66.8074,12.0218 65.2864,9.8458 62.2424,9.8458 C59.1994,9.8458 57.6774,12.0308 57.6774,16.4008 L57.6774,25.2548 C57.6774,26.1908 57.3074,26.9288 56.5684,27.4688 C55.9424,27.9508 55.1464,28.1918 54.1784,28.1918 C53.2114,28.1918 52.4154,27.9508 51.7894,27.4678 C51.0504,26.9288 50.6804,26.1898 50.6804,25.2528 L50.6804,7.9198 C50.6804,6.9828 51.0504,6.2448 51.7894,5.7058 C52.4154,5.2228 53.2114,4.9808 54.1784,4.9808 C55.8854,4.9808 56.9384,5.7348 57.3354,7.2428 C57.4214,7.5558 57.5214,7.7118 57.6344,7.7118 C57.7484,7.7118 57.9184,7.5988 58.1464,7.3708 C59.6824,5.7778 61.7164,4.9808 64.2474,4.9808 C67.6894,4.9808 70.2354,6.1338 71.8844,8.4378 C73.3064,10.3998 74.0174,13.0738 74.0174,16.4588" id="Fill-27" fill="#005DAC" mask="url(#mask-2)"></path>
            </g>
        </g>
    </g>
</svg>