<svg width="52" height="52" viewBox="0 0 52 52" fill="none" xmlns="http://www.w3.org/2000/svg">
<rect x="1" y="1" width="50" height="50" rx="25" fill="#009FDE" stroke="white" stroke-width="2"/>
<path d="M15.5 20.5C14.1667 22.3333 11.4 26 11 26L16.5 31.5L22 34.5H30L37 31.5L41 26L38.5 22.5C37.1667 21.5 34.4 19.4 34 19C33.6 18.6 30.1667 17.8333 28.5 17.5H21.5L15.5 20.5Z" fill="white"/>
<path d="M25.9994 18C28.7917 17.9961 31.5348 18.735 33.9476 20.1408C36.3603 21.5466 38.3559 23.5688 39.7295 26C37.8807 29.2466 34.9412 31.7333 31.433 33.0181C27.9247 34.3029 24.0746 34.3029 20.5664 33.0181C17.0581 31.7333 14.1184 29.2466 12.2699 26C13.6434 23.5687 15.6389 21.5467 18.0517 20.1408C20.4644 18.735 23.2069 17.9961 25.9994 18ZM25.9999 16C22.665 16.0052 19.3984 16.9449 16.5704 18.7125C13.7424 20.48 11.4661 23.0045 10 26C11.9592 30.0189 15.3589 33.1533 19.5234 34.7799C23.6879 36.4067 28.3119 36.4067 32.4764 34.7799C36.641 33.1533 40.0407 30.0189 41.9999 26C40.5337 23.0045 38.2575 20.48 35.4295 18.7125C32.6015 16.9449 29.3349 16.0053 25.9999 16Z" fill="white"/>
<circle cx="26" cy="26" r="6.5" fill="#009FDE" stroke="#009FDE"/>
<path d="M25.9994 19.9552C24.8019 19.9463 23.6288 20.2933 22.6288 20.952C21.6288 21.6109 20.847 22.5518 20.3825 23.6555C19.9182 24.7592 19.792 25.9761 20.0201 27.1517C20.2483 28.3273 20.8205 29.4086 21.664 30.2586C22.5076 31.1085 23.5846 31.6887 24.7584 31.9256C25.9321 32.1626 27.15 32.0455 28.257 31.5894C29.3642 31.1331 30.311 30.3585 30.9773 29.3633C31.6435 28.3684 31.9993 27.1978 31.9993 26.0004C32.0072 24.9421 31.7351 23.9005 31.2105 22.9815C30.6859 22.0625 29.9275 21.2983 29.0123 20.7669C28.0971 20.2355 27.0576 19.9556 25.9992 19.9556L25.9994 19.9552ZM23.9994 26.0003C23.469 26.0003 22.9603 25.7896 22.5853 25.4145C22.2102 25.0395 21.9994 24.5307 21.9994 24.0003C21.9994 23.4699 22.2102 22.9611 22.5853 22.5861C22.9603 22.2111 23.469 22.0003 23.9994 22.0003C24.5298 22.0003 25.0386 22.211 25.4136 22.5861C25.7887 22.9611 25.9994 23.4699 25.9994 24.0003C25.9994 24.5307 25.7887 25.0395 25.4136 25.4145C25.0386 25.7895 24.5298 26.0003 23.9994 26.0003Z" fill="white"/>
</svg>
