<svg width="52" height="52" viewBox="0 0 52 52" fill="none" xmlns="http://www.w3.org/2000/svg">
<g id="Group 1183">
<g id="Group 1176">
<rect id="Rectangle 2929" x="1" y="1" width="50" height="50" rx="25" fill="#E1F4FD" stroke="#009FDE" stroke-width="2"/>
</g>
<path id="Vector" fill-rule="evenodd" clip-rule="evenodd" d="M35.8213 20.4041C35.3247 20.4041 34.9222 20.8013 34.9222 21.29C34.9222 21.7787 35.3249 22.1726 35.8213 22.1726C36.3178 22.1726 36.7213 21.7786 36.7213 21.29C36.7213 20.8013 36.3178 20.4041 35.8213 20.4041ZM31.4676 10.0003C31.6866 10.0054 31.9354 10.1285 32.227 10.4773C32.8123 11.1783 33.2819 12.4655 33.4466 13.9631C33.5448 14.8703 33.5254 15.8528 33.3952 16.8354C36.3031 17.2326 39.0784 19.3398 39.8083 22.6278C40.1524 24.1348 40.0297 25.0764 39.469 25.703C38.9116 26.3269 37.8053 26.6921 36.0373 26.8834C34.9215 27.0066 35.2608 27.5562 35.2949 28.0081C35.4945 30.5464 34.9436 31.9476 34.2603 33.0291C33.55 34.1565 32.6456 34.9546 32.5494 36.247L32.6135 37.4957C32.6433 38.081 32.8472 38.323 33.5423 38.514C34.13 38.6737 34.5556 38.9711 34.6264 39.4672C34.6976 39.9759 34.2304 40 33.9057 40H31.2093C30.7501 40 30.5528 39.6029 30.4159 39.2766C29.9661 38.2435 29.177 36.1571 29.0117 35.086C27.2961 36.2348 24.1617 37.4696 22.0792 37.024C21.4184 36.879 21.4651 37.4109 22.0354 37.561C22.9176 37.7957 23.6778 37.9266 24.4373 38.6644C24.609 38.8316 24.7586 39.0249 24.796 39.2669C24.9018 39.9206 24.2235 39.9902 23.8175 39.9902H18.4953C16.674 39.9902 15.1424 39.0877 14.0022 37.7474C13.4288 37.6577 12.8714 37.496 12.3748 37.2563C9.08271 35.6713 9.64867 31.6162 11.4501 32.4395C11.5921 32.5046 11.7183 32.5529 11.8509 32.611C11.8037 32.1804 11.7814 31.7521 11.7994 31.3358C11.8952 28.9164 13.021 26.688 14.7635 24.9679C17.4919 22.2749 21.7087 20.872 25.7272 22.0356C26.514 22.2628 27.2937 22.58 28.0574 23.0004C28.2665 23.1142 28.5252 22.9763 28.542 22.7417C28.6285 21.4522 28.9768 20.504 29.3996 19.7421C29.3926 19.7323 29.3879 19.7198 29.3775 19.7105C27.1898 17.6201 25.4568 14.6802 25.358 12.7566C25.3292 12.2005 25.3924 11.7676 25.5057 11.4619C25.6185 11.1595 25.7638 10.9951 25.9432 10.9081C26.0319 10.8667 26.1399 10.8398 26.2655 10.838C26.6465 10.8305 27.1919 11.029 27.8754 11.5539C29.5646 13.0419 30.6756 14.7626 31.2336 17.102C31.3417 17.5642 31.8061 17.4067 31.7032 16.9905C31.3222 15.4664 30.6686 14.0342 29.8965 12.8389C30.1206 11.547 30.5407 10.6011 30.9438 10.2189C31.1116 10.0606 31.2466 9.99511 31.4674 10.0003L31.4676 10.0003Z" fill="#009FDE"/>
</g>
</svg>
